G04 #@! TF.GenerationSoftware,KiCad,Pcbnew,6.0.10-86aedd382b~118~ubuntu22.04.1*
G04 #@! TF.CreationDate,2023-02-01T12:07:48+01:00*
G04 #@! TF.ProjectId,rpcube,72706375-6265-42e6-9b69-6361645f7063,rev?*
G04 #@! TF.SameCoordinates,Original*
G04 #@! TF.FileFunction,Soldermask,Top*
G04 #@! TF.FilePolarity,Negative*
%FSLAX46Y46*%
G04 Gerber Fmt 4.6, Leading zero omitted, Abs format (unit mm)*
G04 Created by KiCad (PCBNEW 6.0.10-86aedd382b~118~ubuntu22.04.1) date 2023-02-01 12:07:48*
%MOMM*%
%LPD*%
G01*
G04 APERTURE LIST*
G04 Aperture macros list*
%AMRoundRect*
0 Rectangle with rounded corners*
0 $1 Rounding radius*
0 $2 $3 $4 $5 $6 $7 $8 $9 X,Y pos of 4 corners*
0 Add a 4 corners polygon primitive as box body*
4,1,4,$2,$3,$4,$5,$6,$7,$8,$9,$2,$3,0*
0 Add four circle primitives for the rounded corners*
1,1,$1+$1,$2,$3*
1,1,$1+$1,$4,$5*
1,1,$1+$1,$6,$7*
1,1,$1+$1,$8,$9*
0 Add four rect primitives between the rounded corners*
20,1,$1+$1,$2,$3,$4,$5,0*
20,1,$1+$1,$4,$5,$6,$7,0*
20,1,$1+$1,$6,$7,$8,$9,0*
20,1,$1+$1,$8,$9,$2,$3,0*%
G04 Aperture macros list end*
%ADD10RoundRect,0.140000X0.219203X0.021213X0.021213X0.219203X-0.219203X-0.021213X-0.021213X-0.219203X0*%
%ADD11RoundRect,0.135000X-0.135000X-0.185000X0.135000X-0.185000X0.135000X0.185000X-0.135000X0.185000X0*%
%ADD12RoundRect,0.140000X-0.170000X0.140000X-0.170000X-0.140000X0.170000X-0.140000X0.170000X0.140000X0*%
%ADD13RoundRect,0.135000X-0.185000X0.135000X-0.185000X-0.135000X0.185000X-0.135000X0.185000X0.135000X0*%
%ADD14RoundRect,0.140000X0.140000X0.170000X-0.140000X0.170000X-0.140000X-0.170000X0.140000X-0.170000X0*%
%ADD15RoundRect,0.140000X0.170000X-0.140000X0.170000X0.140000X-0.170000X0.140000X-0.170000X-0.140000X0*%
%ADD16RoundRect,0.150000X0.150000X-0.512500X0.150000X0.512500X-0.150000X0.512500X-0.150000X-0.512500X0*%
%ADD17RoundRect,0.140000X-0.140000X-0.170000X0.140000X-0.170000X0.140000X0.170000X-0.140000X0.170000X0*%
%ADD18R,1.150000X1.000000*%
%ADD19RoundRect,0.050000X-0.387500X-0.050000X0.387500X-0.050000X0.387500X0.050000X-0.387500X0.050000X0*%
%ADD20RoundRect,0.050000X-0.050000X-0.387500X0.050000X-0.387500X0.050000X0.387500X-0.050000X0.387500X0*%
%ADD21RoundRect,0.137160X-1.386840X-1.386840X1.386840X-1.386840X1.386840X1.386840X-1.386840X1.386840X0*%
%ADD22RoundRect,0.225000X0.250000X-0.225000X0.250000X0.225000X-0.250000X0.225000X-0.250000X-0.225000X0*%
%ADD23RoundRect,0.135000X0.135000X0.185000X-0.135000X0.185000X-0.135000X-0.185000X0.135000X-0.185000X0*%
%ADD24R,0.300000X0.600000*%
%ADD25R,1.700000X0.300000*%
G04 APERTURE END LIST*
D10*
X84667411Y-61553411D03*
X83988589Y-60874589D03*
D11*
X77848999Y-65315633D03*
X78868999Y-65315633D03*
D12*
X77089000Y-69116000D03*
X77089000Y-70076000D03*
D13*
X76869593Y-64883468D03*
X76869593Y-65903468D03*
D14*
X88773000Y-62738000D03*
X87813000Y-62738000D03*
D15*
X86731618Y-62796954D03*
X86731618Y-61836954D03*
D16*
X89601000Y-74670500D03*
X90551000Y-74670500D03*
X91501000Y-74670500D03*
X91501000Y-72395500D03*
X89601000Y-72395500D03*
D17*
X89182000Y-63754000D03*
X90142000Y-63754000D03*
D15*
X91567000Y-68679000D03*
X91567000Y-67719000D03*
D12*
X85725000Y-73335000D03*
X85725000Y-74295000D03*
D14*
X79728000Y-68453000D03*
X78768000Y-68453000D03*
D15*
X80137000Y-74140000D03*
X80137000Y-73180000D03*
D18*
X83298000Y-73341000D03*
X81548000Y-73341000D03*
X81548000Y-74741000D03*
X83298000Y-74741000D03*
D17*
X89182000Y-64770000D03*
X90142000Y-64770000D03*
X90833000Y-70993000D03*
X91793000Y-70993000D03*
D19*
X81017500Y-64837000D03*
X81017500Y-65237000D03*
X81017500Y-65637000D03*
X81017500Y-66037000D03*
X81017500Y-66437000D03*
X81017500Y-66837000D03*
X81017500Y-67237000D03*
X81017500Y-67637000D03*
X81017500Y-68037000D03*
X81017500Y-68437000D03*
X81017500Y-68837000D03*
X81017500Y-69237000D03*
X81017500Y-69637000D03*
X81017500Y-70037000D03*
D20*
X81855000Y-70874500D03*
X82255000Y-70874500D03*
X82655000Y-70874500D03*
X83055000Y-70874500D03*
X83455000Y-70874500D03*
X83855000Y-70874500D03*
X84255000Y-70874500D03*
X84655000Y-70874500D03*
X85055000Y-70874500D03*
X85455000Y-70874500D03*
X85855000Y-70874500D03*
X86255000Y-70874500D03*
X86655000Y-70874500D03*
X87055000Y-70874500D03*
D19*
X87892500Y-70037000D03*
X87892500Y-69637000D03*
X87892500Y-69237000D03*
X87892500Y-68837000D03*
X87892500Y-68437000D03*
X87892500Y-68037000D03*
X87892500Y-67637000D03*
X87892500Y-67237000D03*
X87892500Y-66837000D03*
X87892500Y-66437000D03*
X87892500Y-66037000D03*
X87892500Y-65637000D03*
X87892500Y-65237000D03*
X87892500Y-64837000D03*
D20*
X87055000Y-63999500D03*
X86655000Y-63999500D03*
X86255000Y-63999500D03*
X85855000Y-63999500D03*
X85455000Y-63999500D03*
X85055000Y-63999500D03*
X84655000Y-63999500D03*
X84255000Y-63999500D03*
X83855000Y-63999500D03*
X83455000Y-63999500D03*
X83055000Y-63999500D03*
X82655000Y-63999500D03*
X82255000Y-63999500D03*
X81855000Y-63999500D03*
D21*
X84455000Y-67437000D03*
D13*
X84709000Y-73243000D03*
X84709000Y-74263000D03*
D17*
X90833000Y-69977000D03*
X91793000Y-69977000D03*
D12*
X86782650Y-74196000D03*
X86782650Y-75156000D03*
D22*
X88011000Y-74943000D03*
X88011000Y-73393000D03*
D23*
X89410000Y-61595000D03*
X88390000Y-61595000D03*
D17*
X84700939Y-75263890D03*
X85660939Y-75263890D03*
D23*
X89410000Y-60579000D03*
X88390000Y-60579000D03*
D17*
X80673000Y-60833000D03*
X81633000Y-60833000D03*
D10*
X83905411Y-62315411D03*
X83226589Y-61636589D03*
D24*
X76974000Y-63734000D03*
X77474000Y-63734000D03*
X77974000Y-63734000D03*
X78474000Y-63734000D03*
X78474000Y-61234000D03*
X77974000Y-61234000D03*
X77474000Y-61234000D03*
X76974000Y-61234000D03*
D25*
X77724000Y-62484000D03*
M02*
