G04 #@! TF.GenerationSoftware,KiCad,Pcbnew,6.0.10-86aedd382b~118~ubuntu22.04.1*
G04 #@! TF.CreationDate,2023-02-01T12:07:48+01:00*
G04 #@! TF.ProjectId,rpcube,72706375-6265-42e6-9b69-6361645f7063,rev?*
G04 #@! TF.SameCoordinates,Original*
G04 #@! TF.FileFunction,Legend,Bot*
G04 #@! TF.FilePolarity,Positive*
%FSLAX46Y46*%
G04 Gerber Fmt 4.6, Leading zero omitted, Abs format (unit mm)*
G04 Created by KiCad (PCBNEW 6.0.10-86aedd382b~118~ubuntu22.04.1) date 2023-02-01 12:07:48*
%MOMM*%
%LPD*%
G01*
G04 APERTURE LIST*
%ADD10C,0.150000*%
%ADD11C,1.000000*%
G04 APERTURE END LIST*
D10*
X85153523Y-58205714D02*
X85153523Y-58872380D01*
X85391619Y-57824761D02*
X85629714Y-58539047D01*
X85010666Y-58539047D01*
X92956095Y-72271000D02*
X93051333Y-72223380D01*
X93194190Y-72223380D01*
X93337047Y-72271000D01*
X93432285Y-72366238D01*
X93479904Y-72461476D01*
X93527523Y-72651952D01*
X93527523Y-72794809D01*
X93479904Y-72985285D01*
X93432285Y-73080523D01*
X93337047Y-73175761D01*
X93194190Y-73223380D01*
X93098952Y-73223380D01*
X92956095Y-73175761D01*
X92908476Y-73128142D01*
X92908476Y-72794809D01*
X93098952Y-72794809D01*
X77311238Y-58300952D02*
X77406476Y-58253333D01*
X77454095Y-58205714D01*
X77501714Y-58110476D01*
X77501714Y-58062857D01*
X77454095Y-57967619D01*
X77406476Y-57920000D01*
X77311238Y-57872380D01*
X77120761Y-57872380D01*
X77025523Y-57920000D01*
X76977904Y-57967619D01*
X76930285Y-58062857D01*
X76930285Y-58110476D01*
X76977904Y-58205714D01*
X77025523Y-58253333D01*
X77120761Y-58300952D01*
X77311238Y-58300952D01*
X77406476Y-58348571D01*
X77454095Y-58396190D01*
X77501714Y-58491428D01*
X77501714Y-58681904D01*
X77454095Y-58777142D01*
X77406476Y-58824761D01*
X77311238Y-58872380D01*
X77120761Y-58872380D01*
X77025523Y-58824761D01*
X76977904Y-58777142D01*
X76930285Y-58681904D01*
X76930285Y-58491428D01*
X76977904Y-58396190D01*
X77025523Y-58348571D01*
X77120761Y-58300952D01*
X82946904Y-57872380D02*
X83423095Y-57872380D01*
X83470714Y-58348571D01*
X83423095Y-58300952D01*
X83327857Y-58253333D01*
X83089761Y-58253333D01*
X82994523Y-58300952D01*
X82946904Y-58348571D01*
X82899285Y-58443809D01*
X82899285Y-58681904D01*
X82946904Y-58777142D01*
X82994523Y-58824761D01*
X83089761Y-58872380D01*
X83327857Y-58872380D01*
X83423095Y-58824761D01*
X83470714Y-58777142D01*
X87709333Y-57872380D02*
X87090285Y-57872380D01*
X87423619Y-58253333D01*
X87280761Y-58253333D01*
X87185523Y-58300952D01*
X87137904Y-58348571D01*
X87090285Y-58443809D01*
X87090285Y-58681904D01*
X87137904Y-58777142D01*
X87185523Y-58824761D01*
X87280761Y-58872380D01*
X87566476Y-58872380D01*
X87661714Y-58824761D01*
X87709333Y-58777142D01*
X91281285Y-58872380D02*
X91852714Y-58872380D01*
X91567000Y-58872380D02*
X91567000Y-57872380D01*
X91662238Y-58015238D01*
X91757476Y-58110476D01*
X91852714Y-58158095D01*
X92908476Y-65000142D02*
X92956095Y-65047761D01*
X93098952Y-65095380D01*
X93194190Y-65095380D01*
X93337047Y-65047761D01*
X93432285Y-64952523D01*
X93479904Y-64857285D01*
X93527523Y-64666809D01*
X93527523Y-64523952D01*
X93479904Y-64333476D01*
X93432285Y-64238238D01*
X93337047Y-64143000D01*
X93194190Y-64095380D01*
X93098952Y-64095380D01*
X92956095Y-64143000D01*
X92908476Y-64190619D01*
X93146571Y-62539571D02*
X93003714Y-62587190D01*
X92956095Y-62634809D01*
X92908476Y-62730047D01*
X92908476Y-62872904D01*
X92956095Y-62968142D01*
X93003714Y-63015761D01*
X93098952Y-63063380D01*
X93479904Y-63063380D01*
X93479904Y-62063380D01*
X93146571Y-62063380D01*
X93051333Y-62111000D01*
X93003714Y-62158619D01*
X92956095Y-62253857D01*
X92956095Y-62349095D01*
X93003714Y-62444333D01*
X93051333Y-62491952D01*
X93146571Y-62539571D01*
X93479904Y-62539571D01*
X93075142Y-70667571D02*
X93408476Y-70667571D01*
X93408476Y-71191380D02*
X93408476Y-70191380D01*
X92932285Y-70191380D01*
X93456095Y-60618666D02*
X92979904Y-60618666D01*
X93551333Y-60904380D02*
X93218000Y-59904380D01*
X92884666Y-60904380D01*
X93479904Y-67127380D02*
X93479904Y-66127380D01*
X93241809Y-66127380D01*
X93098952Y-66175000D01*
X93003714Y-66270238D01*
X92956095Y-66365476D01*
X92908476Y-66555952D01*
X92908476Y-66698809D01*
X92956095Y-66889285D01*
X93003714Y-66984523D01*
X93098952Y-67079761D01*
X93241809Y-67127380D01*
X93479904Y-67127380D01*
X79708333Y-57872380D02*
X79041666Y-57872380D01*
X79470238Y-58872380D01*
X81089523Y-57872380D02*
X81280000Y-57872380D01*
X81375238Y-57920000D01*
X81422857Y-57967619D01*
X81518095Y-58110476D01*
X81565714Y-58300952D01*
X81565714Y-58681904D01*
X81518095Y-58777142D01*
X81470476Y-58824761D01*
X81375238Y-58872380D01*
X81184761Y-58872380D01*
X81089523Y-58824761D01*
X81041904Y-58777142D01*
X80994285Y-58681904D01*
X80994285Y-58443809D01*
X81041904Y-58348571D01*
X81089523Y-58300952D01*
X81184761Y-58253333D01*
X81375238Y-58253333D01*
X81470476Y-58300952D01*
X81518095Y-58348571D01*
X81565714Y-58443809D01*
X93432285Y-68635571D02*
X93098952Y-68635571D01*
X92956095Y-69159380D02*
X93432285Y-69159380D01*
X93432285Y-68159380D01*
X92956095Y-68159380D01*
X89693714Y-57967619D02*
X89646095Y-57920000D01*
X89550857Y-57872380D01*
X89312761Y-57872380D01*
X89217523Y-57920000D01*
X89169904Y-57967619D01*
X89122285Y-58062857D01*
X89122285Y-58158095D01*
X89169904Y-58300952D01*
X89741333Y-58872380D01*
X89122285Y-58872380D01*
X93503714Y-75255380D02*
X93503714Y-74255380D01*
X93503714Y-74731571D02*
X92932285Y-74731571D01*
X92932285Y-75255380D02*
X92932285Y-74255380D01*
%LPC*%
D11*
X77216000Y-60452000D03*
X81280000Y-70612000D03*
X85344000Y-66548000D03*
X89408000Y-60452000D03*
X79248000Y-74676000D03*
X91440000Y-62484000D03*
X77216000Y-66548000D03*
X77216000Y-72644000D03*
X91440000Y-70612000D03*
X87376000Y-66548000D03*
X91440000Y-64516000D03*
X87376000Y-60452000D03*
X83312000Y-68580000D03*
X79248000Y-66548000D03*
X77216000Y-62484000D03*
X77216000Y-74676000D03*
X87376000Y-70612000D03*
X81280000Y-60452000D03*
X77216000Y-70612000D03*
X79248000Y-62484000D03*
X83312000Y-64516000D03*
X83312000Y-62484000D03*
X79248000Y-60452000D03*
X87376000Y-62484000D03*
X87376000Y-64516000D03*
X89408000Y-74676000D03*
X89281000Y-64516000D03*
X87376000Y-72644000D03*
X91440000Y-68580000D03*
X83312000Y-72644000D03*
X83312000Y-74676000D03*
X79248000Y-64516000D03*
X89408000Y-72644000D03*
X81280000Y-68580000D03*
X83312000Y-70612000D03*
X79248000Y-72644000D03*
X85344000Y-68580000D03*
X77216000Y-68580000D03*
X81280000Y-64516000D03*
X83312000Y-66548000D03*
X91440000Y-66548000D03*
X85344000Y-72644000D03*
X77216000Y-64516000D03*
X87376000Y-68580000D03*
X81280000Y-72644000D03*
X81280000Y-62484000D03*
X87376000Y-74676000D03*
X85344000Y-62484000D03*
X83312000Y-60452000D03*
X85344000Y-60452000D03*
X85344000Y-74676000D03*
X91440000Y-72644000D03*
X89408000Y-68580000D03*
X85344000Y-64516000D03*
X79248000Y-70612000D03*
X79248000Y-68580000D03*
X89408000Y-62484000D03*
X81280000Y-66548000D03*
X85344000Y-70612000D03*
X89408000Y-66548000D03*
X91440000Y-74676000D03*
X89408000Y-70612000D03*
X81280000Y-74676000D03*
X91440000Y-60452000D03*
M02*
