%TF.GenerationSoftware,KiCad,Pcbnew,6.0.10-86aedd382b~118~ubuntu22.04.1*%
%TF.CreationDate,2023-02-01T12:08:23+01:00*%
%TF.ProjectId,rpcube,72706375-6265-42e6-9b69-6361645f7063,rev?*%
%TF.SameCoordinates,Original*%
%TF.FileFunction,Drillmap*%
%TF.FilePolarity,Positive*%
%FSLAX45Y45*%
G04 Gerber Fmt 4.5, Leading zero omitted, Abs format (unit mm)*
G04 Created by KiCad (PCBNEW 6.0.10-86aedd382b~118~ubuntu22.04.1) date 2023-02-01 12:08:23*
%MOMM*%
%LPD*%
G01*
G04 APERTURE LIST*
%ADD10C,0.200000*%
G04 APERTURE END LIST*
D10*
X7607300Y-5930900D02*
X9258300Y-5930900D01*
X9258300Y-5930900D02*
X9258300Y-7581900D01*
X9258300Y-7581900D02*
X7607300Y-7581900D01*
X7607300Y-7581900D02*
X7607300Y-5930900D01*
X7854919Y-7902376D02*
X7854919Y-7702376D01*
X7902538Y-7702376D01*
X7931109Y-7711900D01*
X7950157Y-7730948D01*
X7959681Y-7749995D01*
X7969205Y-7788090D01*
X7969205Y-7816662D01*
X7959681Y-7854757D01*
X7950157Y-7873805D01*
X7931109Y-7892852D01*
X7902538Y-7902376D01*
X7854919Y-7902376D01*
X8054919Y-7902376D02*
X8054919Y-7769043D01*
X8054919Y-7807138D02*
X8064443Y-7788090D01*
X8073967Y-7778567D01*
X8093014Y-7769043D01*
X8112062Y-7769043D01*
X8178728Y-7902376D02*
X8178728Y-7769043D01*
X8178728Y-7702376D02*
X8169205Y-7711900D01*
X8178728Y-7721424D01*
X8188252Y-7711900D01*
X8178728Y-7702376D01*
X8178728Y-7721424D01*
X8302538Y-7902376D02*
X8283490Y-7892852D01*
X8273967Y-7873805D01*
X8273967Y-7702376D01*
X8407300Y-7902376D02*
X8388252Y-7892852D01*
X8378728Y-7873805D01*
X8378728Y-7702376D01*
X8635871Y-7902376D02*
X8635871Y-7702376D01*
X8702538Y-7845233D01*
X8769205Y-7702376D01*
X8769205Y-7902376D01*
X8950157Y-7902376D02*
X8950157Y-7797614D01*
X8940633Y-7778567D01*
X8921586Y-7769043D01*
X8883490Y-7769043D01*
X8864443Y-7778567D01*
X8950157Y-7892852D02*
X8931110Y-7902376D01*
X8883490Y-7902376D01*
X8864443Y-7892852D01*
X8854919Y-7873805D01*
X8854919Y-7854757D01*
X8864443Y-7835709D01*
X8883490Y-7826186D01*
X8931110Y-7826186D01*
X8950157Y-7816662D01*
X9045395Y-7769043D02*
X9045395Y-7969043D01*
X9045395Y-7778567D02*
X9064443Y-7769043D01*
X9102538Y-7769043D01*
X9121586Y-7778567D01*
X9131110Y-7788090D01*
X9140633Y-7807138D01*
X9140633Y-7864281D01*
X9131110Y-7883328D01*
X9121586Y-7892852D01*
X9102538Y-7902376D01*
X9064443Y-7902376D01*
X9045395Y-7892852D01*
X9226348Y-7883328D02*
X9235871Y-7892852D01*
X9226348Y-7902376D01*
X9216824Y-7892852D01*
X9226348Y-7883328D01*
X9226348Y-7902376D01*
X9226348Y-7778567D02*
X9235871Y-7788090D01*
X9226348Y-7797614D01*
X9216824Y-7788090D01*
X9226348Y-7778567D01*
X9226348Y-7797614D01*
M02*
