G04 #@! TF.GenerationSoftware,KiCad,Pcbnew,6.0.10-86aedd382b~118~ubuntu22.04.1*
G04 #@! TF.CreationDate,2023-02-01T12:07:48+01:00*
G04 #@! TF.ProjectId,rpcube,72706375-6265-42e6-9b69-6361645f7063,rev?*
G04 #@! TF.SameCoordinates,Original*
G04 #@! TF.FileFunction,Paste,Bot*
G04 #@! TF.FilePolarity,Positive*
%FSLAX46Y46*%
G04 Gerber Fmt 4.6, Leading zero omitted, Abs format (unit mm)*
G04 Created by KiCad (PCBNEW 6.0.10-86aedd382b~118~ubuntu22.04.1) date 2023-02-01 12:07:48*
%MOMM*%
%LPD*%
G01*
G04 APERTURE LIST*
%ADD10C,1.000000*%
G04 APERTURE END LIST*
D10*
X77216000Y-60452000D03*
X81280000Y-70612000D03*
X85344000Y-66548000D03*
X89408000Y-60452000D03*
X79248000Y-74676000D03*
X91440000Y-62484000D03*
X77216000Y-66548000D03*
X77216000Y-72644000D03*
X91440000Y-70612000D03*
X87376000Y-66548000D03*
X91440000Y-64516000D03*
X87376000Y-60452000D03*
X83312000Y-68580000D03*
X79248000Y-66548000D03*
X77216000Y-62484000D03*
X77216000Y-74676000D03*
X87376000Y-70612000D03*
X81280000Y-60452000D03*
X77216000Y-70612000D03*
X79248000Y-62484000D03*
X83312000Y-64516000D03*
X83312000Y-62484000D03*
X79248000Y-60452000D03*
X87376000Y-62484000D03*
X87376000Y-64516000D03*
X89408000Y-74676000D03*
X89281000Y-64516000D03*
X87376000Y-72644000D03*
X91440000Y-68580000D03*
X83312000Y-72644000D03*
X83312000Y-74676000D03*
X79248000Y-64516000D03*
X89408000Y-72644000D03*
X81280000Y-68580000D03*
X83312000Y-70612000D03*
X79248000Y-72644000D03*
X85344000Y-68580000D03*
X77216000Y-68580000D03*
X81280000Y-64516000D03*
X83312000Y-66548000D03*
X91440000Y-66548000D03*
X85344000Y-72644000D03*
X77216000Y-64516000D03*
X87376000Y-68580000D03*
X81280000Y-72644000D03*
X81280000Y-62484000D03*
X87376000Y-74676000D03*
X85344000Y-62484000D03*
X83312000Y-60452000D03*
X85344000Y-60452000D03*
X85344000Y-74676000D03*
X91440000Y-72644000D03*
X89408000Y-68580000D03*
X85344000Y-64516000D03*
X79248000Y-70612000D03*
X79248000Y-68580000D03*
X89408000Y-62484000D03*
X81280000Y-66548000D03*
X85344000Y-70612000D03*
X89408000Y-66548000D03*
X91440000Y-74676000D03*
X89408000Y-70612000D03*
X81280000Y-74676000D03*
X91440000Y-60452000D03*
M02*
