G04 #@! TF.GenerationSoftware,KiCad,Pcbnew,6.0.10-86aedd382b~118~ubuntu22.04.1*
G04 #@! TF.CreationDate,2023-02-01T12:07:48+01:00*
G04 #@! TF.ProjectId,rpcube,72706375-6265-42e6-9b69-6361645f7063,rev?*
G04 #@! TF.SameCoordinates,Original*
G04 #@! TF.FileFunction,Copper,L3,Inr*
G04 #@! TF.FilePolarity,Positive*
%FSLAX46Y46*%
G04 Gerber Fmt 4.6, Leading zero omitted, Abs format (unit mm)*
G04 Created by KiCad (PCBNEW 6.0.10-86aedd382b~118~ubuntu22.04.1) date 2023-02-01 12:07:48*
%MOMM*%
%LPD*%
G01*
G04 APERTURE LIST*
G04 #@! TA.AperFunction,ViaPad*
%ADD10C,0.800000*%
G04 #@! TD*
G04 #@! TA.AperFunction,Conductor*
%ADD11C,0.127000*%
G04 #@! TD*
G04 APERTURE END LIST*
D10*
X80772000Y-73152000D03*
X84455000Y-67437000D03*
X91856500Y-70866000D03*
X83312000Y-66548000D03*
X83298000Y-74741000D03*
X85344000Y-66548000D03*
X79515562Y-63154062D03*
X82804000Y-60706000D03*
X87520612Y-61903500D03*
X76708000Y-73660000D03*
X90424000Y-63119000D03*
X79151521Y-69219949D03*
X85344000Y-68580000D03*
X89408000Y-74676000D03*
X91450500Y-74676000D03*
X90542801Y-73298860D03*
X78156932Y-69318938D03*
X85405355Y-72580736D03*
X88393483Y-63502000D03*
X90935085Y-69629633D03*
X81026000Y-64262000D03*
X79883000Y-60452000D03*
X76808588Y-60627809D03*
X84963000Y-60543500D03*
X86607387Y-73673409D03*
X83947000Y-62357000D03*
X76845938Y-67504438D03*
X87270387Y-72372179D03*
X83820000Y-69596000D03*
X85857113Y-69679489D03*
X82296000Y-65036500D03*
X84074000Y-65313500D03*
X79996864Y-65040209D03*
X79607426Y-65960721D03*
X78232000Y-67056000D03*
X82247631Y-66823726D03*
X79850005Y-67543500D03*
X82296000Y-67945000D03*
X82055792Y-69832864D03*
X78188550Y-70317940D03*
X77216000Y-71711503D03*
X80173547Y-70536326D03*
X78570740Y-71966740D03*
X78232000Y-73787000D03*
X78233562Y-75092500D03*
X80373498Y-75028150D03*
X88650875Y-72328896D03*
X88577135Y-71332117D03*
X87884000Y-70612000D03*
X89953500Y-71161374D03*
X86855500Y-69596000D03*
X89935741Y-69647432D03*
X86855922Y-67563564D03*
X89424846Y-68274898D03*
X90400988Y-68060069D03*
X89470650Y-66911083D03*
X90458658Y-67062231D03*
X86736927Y-65653298D03*
X91845752Y-63511029D03*
X91440000Y-60452000D03*
X90274666Y-60457977D03*
X90568000Y-61468000D03*
D11*
X86607387Y-70872613D02*
X87884000Y-69596000D01*
X86607387Y-73673409D02*
X86607387Y-70872613D01*
X87884000Y-69596000D02*
X87884000Y-64897000D01*
X85344000Y-62357000D02*
X83947000Y-62357000D01*
X87884000Y-64897000D02*
X85344000Y-62357000D01*
G04 #@! TA.AperFunction,Conductor*
G36*
X92364194Y-59527806D02*
G01*
X92382500Y-59572000D01*
X92382500Y-63041080D01*
X92364194Y-63085274D01*
X92320000Y-63103580D01*
X92276051Y-63085375D01*
X92274034Y-63082747D01*
X92148593Y-62986493D01*
X92091108Y-62962682D01*
X92006300Y-62927553D01*
X92006299Y-62927553D01*
X92002514Y-62925985D01*
X91998452Y-62925450D01*
X91998451Y-62925450D01*
X91849816Y-62905882D01*
X91845752Y-62905347D01*
X91841688Y-62905882D01*
X91693053Y-62925450D01*
X91693052Y-62925450D01*
X91688990Y-62925985D01*
X91685205Y-62927553D01*
X91685204Y-62927553D01*
X91600396Y-62962682D01*
X91542911Y-62986493D01*
X91417470Y-63082747D01*
X91321216Y-63208188D01*
X91260708Y-63354267D01*
X91240070Y-63511029D01*
X91240605Y-63515093D01*
X91249787Y-63584834D01*
X91260708Y-63667791D01*
X91262276Y-63671576D01*
X91262276Y-63671577D01*
X91275946Y-63704579D01*
X91321216Y-63813870D01*
X91417470Y-63939311D01*
X91542911Y-64035565D01*
X91546694Y-64037132D01*
X91685204Y-64094505D01*
X91685205Y-64094505D01*
X91688990Y-64096073D01*
X91693052Y-64096608D01*
X91693053Y-64096608D01*
X91841688Y-64116176D01*
X91845752Y-64116711D01*
X91849816Y-64116176D01*
X91998451Y-64096608D01*
X91998452Y-64096608D01*
X92002514Y-64096073D01*
X92006299Y-64094505D01*
X92006300Y-64094505D01*
X92144810Y-64037132D01*
X92148593Y-64035565D01*
X92274034Y-63939311D01*
X92276051Y-63936683D01*
X92320000Y-63918478D01*
X92364194Y-63936784D01*
X92382500Y-63980978D01*
X92382500Y-70385961D01*
X92364194Y-70430155D01*
X92320000Y-70448461D01*
X92281953Y-70435546D01*
X92162591Y-70343957D01*
X92162587Y-70343955D01*
X92159341Y-70341464D01*
X92155558Y-70339897D01*
X92017048Y-70282524D01*
X92017047Y-70282524D01*
X92013262Y-70280956D01*
X92009200Y-70280421D01*
X92009199Y-70280421D01*
X91860564Y-70260853D01*
X91856500Y-70260318D01*
X91852436Y-70260853D01*
X91703801Y-70280421D01*
X91703800Y-70280421D01*
X91699738Y-70280956D01*
X91695953Y-70282524D01*
X91695952Y-70282524D01*
X91557442Y-70339897D01*
X91553659Y-70341464D01*
X91428218Y-70437718D01*
X91331964Y-70563159D01*
X91330397Y-70566942D01*
X91278146Y-70693088D01*
X91271456Y-70709238D01*
X91270921Y-70713300D01*
X91270921Y-70713301D01*
X91263509Y-70769605D01*
X91250818Y-70866000D01*
X91251353Y-70870064D01*
X91269067Y-71004612D01*
X91271456Y-71022762D01*
X91273024Y-71026547D01*
X91273024Y-71026548D01*
X91305860Y-71105821D01*
X91331964Y-71168841D01*
X91428218Y-71294282D01*
X91553659Y-71390536D01*
X91557442Y-71392103D01*
X91695952Y-71449476D01*
X91695953Y-71449476D01*
X91699738Y-71451044D01*
X91703800Y-71451579D01*
X91703801Y-71451579D01*
X91852436Y-71471147D01*
X91856500Y-71471682D01*
X91860564Y-71471147D01*
X92009199Y-71451579D01*
X92009200Y-71451579D01*
X92013262Y-71451044D01*
X92017047Y-71449476D01*
X92017048Y-71449476D01*
X92155558Y-71392103D01*
X92159341Y-71390536D01*
X92162587Y-71388045D01*
X92162591Y-71388043D01*
X92281953Y-71296454D01*
X92328158Y-71284074D01*
X92369585Y-71307992D01*
X92382500Y-71346039D01*
X92382500Y-75556000D01*
X92364194Y-75600194D01*
X92320000Y-75618500D01*
X80774689Y-75618500D01*
X80730495Y-75600194D01*
X80712189Y-75556000D01*
X80730495Y-75511806D01*
X80736641Y-75506415D01*
X80798535Y-75458922D01*
X80801780Y-75456432D01*
X80898034Y-75330991D01*
X80900733Y-75324476D01*
X80956974Y-75188698D01*
X80956974Y-75188697D01*
X80958542Y-75184912D01*
X80979180Y-75028150D01*
X80958542Y-74871388D01*
X80904533Y-74741000D01*
X82692318Y-74741000D01*
X82712956Y-74897762D01*
X82773464Y-75043841D01*
X82869718Y-75169282D01*
X82995159Y-75265536D01*
X82998942Y-75267103D01*
X83137452Y-75324476D01*
X83137453Y-75324476D01*
X83141238Y-75326044D01*
X83145300Y-75326579D01*
X83145301Y-75326579D01*
X83293936Y-75346147D01*
X83298000Y-75346682D01*
X83302064Y-75346147D01*
X83450699Y-75326579D01*
X83450700Y-75326579D01*
X83454762Y-75326044D01*
X83458547Y-75324476D01*
X83458548Y-75324476D01*
X83597058Y-75267103D01*
X83600841Y-75265536D01*
X83726282Y-75169282D01*
X83822536Y-75043841D01*
X83883044Y-74897762D01*
X83903682Y-74741000D01*
X83895125Y-74676000D01*
X88802318Y-74676000D01*
X88822956Y-74832762D01*
X88883464Y-74978841D01*
X88979718Y-75104282D01*
X89105159Y-75200536D01*
X89108942Y-75202103D01*
X89247452Y-75259476D01*
X89247453Y-75259476D01*
X89251238Y-75261044D01*
X89255300Y-75261579D01*
X89255301Y-75261579D01*
X89403936Y-75281147D01*
X89408000Y-75281682D01*
X89412064Y-75281147D01*
X89560699Y-75261579D01*
X89560700Y-75261579D01*
X89564762Y-75261044D01*
X89568547Y-75259476D01*
X89568548Y-75259476D01*
X89707058Y-75202103D01*
X89710841Y-75200536D01*
X89836282Y-75104282D01*
X89932536Y-74978841D01*
X89993044Y-74832762D01*
X90013682Y-74676000D01*
X90844818Y-74676000D01*
X90865456Y-74832762D01*
X90925964Y-74978841D01*
X91022218Y-75104282D01*
X91147659Y-75200536D01*
X91151442Y-75202103D01*
X91289952Y-75259476D01*
X91289953Y-75259476D01*
X91293738Y-75261044D01*
X91297800Y-75261579D01*
X91297801Y-75261579D01*
X91446436Y-75281147D01*
X91450500Y-75281682D01*
X91454564Y-75281147D01*
X91603199Y-75261579D01*
X91603200Y-75261579D01*
X91607262Y-75261044D01*
X91611047Y-75259476D01*
X91611048Y-75259476D01*
X91749558Y-75202103D01*
X91753341Y-75200536D01*
X91878782Y-75104282D01*
X91975036Y-74978841D01*
X92035544Y-74832762D01*
X92056182Y-74676000D01*
X92035544Y-74519238D01*
X92029073Y-74503614D01*
X91976603Y-74376942D01*
X91975036Y-74373159D01*
X91878782Y-74247718D01*
X91753341Y-74151464D01*
X91633179Y-74101691D01*
X91611048Y-74092524D01*
X91611047Y-74092524D01*
X91607262Y-74090956D01*
X91603200Y-74090421D01*
X91603199Y-74090421D01*
X91454564Y-74070853D01*
X91450500Y-74070318D01*
X91446436Y-74070853D01*
X91297801Y-74090421D01*
X91297800Y-74090421D01*
X91293738Y-74090956D01*
X91289953Y-74092524D01*
X91289952Y-74092524D01*
X91267821Y-74101691D01*
X91147659Y-74151464D01*
X91022218Y-74247718D01*
X90925964Y-74373159D01*
X90924397Y-74376942D01*
X90871928Y-74503614D01*
X90865456Y-74519238D01*
X90844818Y-74676000D01*
X90013682Y-74676000D01*
X89993044Y-74519238D01*
X89986573Y-74503614D01*
X89934103Y-74376942D01*
X89932536Y-74373159D01*
X89836282Y-74247718D01*
X89710841Y-74151464D01*
X89590679Y-74101691D01*
X89568548Y-74092524D01*
X89568547Y-74092524D01*
X89564762Y-74090956D01*
X89560700Y-74090421D01*
X89560699Y-74090421D01*
X89412064Y-74070853D01*
X89408000Y-74070318D01*
X89403936Y-74070853D01*
X89255301Y-74090421D01*
X89255300Y-74090421D01*
X89251238Y-74090956D01*
X89247453Y-74092524D01*
X89247452Y-74092524D01*
X89225321Y-74101691D01*
X89105159Y-74151464D01*
X88979718Y-74247718D01*
X88883464Y-74373159D01*
X88881897Y-74376942D01*
X88829428Y-74503614D01*
X88822956Y-74519238D01*
X88802318Y-74676000D01*
X83895125Y-74676000D01*
X83883044Y-74584238D01*
X83849649Y-74503614D01*
X83824103Y-74441942D01*
X83822536Y-74438159D01*
X83726282Y-74312718D01*
X83600841Y-74216464D01*
X83585837Y-74210249D01*
X83458548Y-74157524D01*
X83458547Y-74157524D01*
X83454762Y-74155956D01*
X83450700Y-74155421D01*
X83450699Y-74155421D01*
X83302064Y-74135853D01*
X83298000Y-74135318D01*
X83293936Y-74135853D01*
X83145301Y-74155421D01*
X83145300Y-74155421D01*
X83141238Y-74155956D01*
X83137453Y-74157524D01*
X83137452Y-74157524D01*
X83010163Y-74210249D01*
X82995159Y-74216464D01*
X82869718Y-74312718D01*
X82773464Y-74438159D01*
X82771897Y-74441942D01*
X82746352Y-74503614D01*
X82712956Y-74584238D01*
X82692318Y-74741000D01*
X80904533Y-74741000D01*
X80898034Y-74725309D01*
X80801780Y-74599868D01*
X80676339Y-74503614D01*
X80542102Y-74448011D01*
X80534046Y-74444674D01*
X80534045Y-74444674D01*
X80530260Y-74443106D01*
X80526198Y-74442571D01*
X80526197Y-74442571D01*
X80377562Y-74423003D01*
X80373498Y-74422468D01*
X80369434Y-74423003D01*
X80220799Y-74442571D01*
X80220798Y-74442571D01*
X80216736Y-74443106D01*
X80212951Y-74444674D01*
X80212950Y-74444674D01*
X80204894Y-74448011D01*
X80070657Y-74503614D01*
X79945216Y-74599868D01*
X79848962Y-74725309D01*
X79788454Y-74871388D01*
X79767816Y-75028150D01*
X79788454Y-75184912D01*
X79790022Y-75188697D01*
X79790022Y-75188698D01*
X79846263Y-75324476D01*
X79848962Y-75330991D01*
X79945216Y-75456432D01*
X79948461Y-75458922D01*
X80010355Y-75506415D01*
X80034272Y-75547842D01*
X80021892Y-75594048D01*
X79980465Y-75617965D01*
X79972307Y-75618500D01*
X78713601Y-75618500D01*
X78669407Y-75600194D01*
X78651101Y-75556000D01*
X78664016Y-75517953D01*
X78755605Y-75398591D01*
X78755607Y-75398587D01*
X78758098Y-75395341D01*
X78818606Y-75249262D01*
X78839244Y-75092500D01*
X78818606Y-74935738D01*
X78758098Y-74789659D01*
X78661844Y-74664218D01*
X78536403Y-74567964D01*
X78532620Y-74566397D01*
X78394110Y-74509024D01*
X78394109Y-74509024D01*
X78390324Y-74507456D01*
X78386262Y-74506921D01*
X78386261Y-74506921D01*
X78345936Y-74501612D01*
X78304509Y-74477694D01*
X78292129Y-74431489D01*
X78316047Y-74390062D01*
X78345936Y-74377682D01*
X78359222Y-74375933D01*
X78384700Y-74372579D01*
X78384702Y-74372579D01*
X78388762Y-74372044D01*
X78392547Y-74370476D01*
X78392548Y-74370476D01*
X78531058Y-74313103D01*
X78534841Y-74311536D01*
X78660282Y-74215282D01*
X78756536Y-74089841D01*
X78764623Y-74070318D01*
X78815476Y-73947548D01*
X78815476Y-73947547D01*
X78817044Y-73943762D01*
X78831999Y-73830171D01*
X78837147Y-73791064D01*
X78837682Y-73787000D01*
X78817044Y-73630238D01*
X78795008Y-73577037D01*
X78758103Y-73487942D01*
X78756536Y-73484159D01*
X78660282Y-73358718D01*
X78534841Y-73262464D01*
X78492986Y-73245127D01*
X78392548Y-73203524D01*
X78392547Y-73203524D01*
X78388762Y-73201956D01*
X78384700Y-73201421D01*
X78384699Y-73201421D01*
X78236064Y-73181853D01*
X78232000Y-73181318D01*
X78227936Y-73181853D01*
X78079301Y-73201421D01*
X78079300Y-73201421D01*
X78075238Y-73201956D01*
X78071453Y-73203524D01*
X78071452Y-73203524D01*
X77971014Y-73245127D01*
X77929159Y-73262464D01*
X77803718Y-73358718D01*
X77707464Y-73484159D01*
X77705897Y-73487942D01*
X77668993Y-73577037D01*
X77646956Y-73630238D01*
X77626318Y-73787000D01*
X77626853Y-73791064D01*
X77632002Y-73830171D01*
X77646956Y-73943762D01*
X77648524Y-73947547D01*
X77648524Y-73947548D01*
X77699377Y-74070318D01*
X77707464Y-74089841D01*
X77803718Y-74215282D01*
X77929159Y-74311536D01*
X77932942Y-74313103D01*
X78071452Y-74370476D01*
X78071453Y-74370476D01*
X78075238Y-74372044D01*
X78079300Y-74372579D01*
X78079301Y-74372579D01*
X78119626Y-74377888D01*
X78161053Y-74401806D01*
X78173433Y-74448011D01*
X78149515Y-74489438D01*
X78119626Y-74501818D01*
X78117886Y-74502047D01*
X78080862Y-74506921D01*
X78080860Y-74506921D01*
X78076800Y-74507456D01*
X78073015Y-74509024D01*
X78073014Y-74509024D01*
X77934504Y-74566397D01*
X77930721Y-74567964D01*
X77805280Y-74664218D01*
X77709026Y-74789659D01*
X77648518Y-74935738D01*
X77627880Y-75092500D01*
X77648518Y-75249262D01*
X77709026Y-75395341D01*
X77711517Y-75398587D01*
X77711519Y-75398591D01*
X77803108Y-75517953D01*
X77815488Y-75564158D01*
X77791570Y-75605585D01*
X77753523Y-75618500D01*
X76336000Y-75618500D01*
X76291806Y-75600194D01*
X76273500Y-75556000D01*
X76273500Y-74210249D01*
X76291806Y-74166055D01*
X76336000Y-74147749D01*
X76374047Y-74160664D01*
X76401909Y-74182043D01*
X76401913Y-74182045D01*
X76405159Y-74184536D01*
X76408942Y-74186103D01*
X76547452Y-74243476D01*
X76547453Y-74243476D01*
X76551238Y-74245044D01*
X76555300Y-74245579D01*
X76555301Y-74245579D01*
X76703936Y-74265147D01*
X76708000Y-74265682D01*
X76712064Y-74265147D01*
X76860699Y-74245579D01*
X76860700Y-74245579D01*
X76864762Y-74245044D01*
X76868547Y-74243476D01*
X76868548Y-74243476D01*
X77007058Y-74186103D01*
X77010841Y-74184536D01*
X77136282Y-74088282D01*
X77232536Y-73962841D01*
X77293044Y-73816762D01*
X77303746Y-73735476D01*
X77313147Y-73664064D01*
X77313682Y-73660000D01*
X77293044Y-73503238D01*
X77232536Y-73357159D01*
X77136282Y-73231718D01*
X77032391Y-73152000D01*
X80166318Y-73152000D01*
X80166853Y-73156064D01*
X80179006Y-73248372D01*
X80186956Y-73308762D01*
X80188524Y-73312547D01*
X80188524Y-73312548D01*
X80211212Y-73367322D01*
X80247464Y-73454841D01*
X80343718Y-73580282D01*
X80469159Y-73676536D01*
X80472942Y-73678103D01*
X80611452Y-73735476D01*
X80611453Y-73735476D01*
X80615238Y-73737044D01*
X80619300Y-73737579D01*
X80619301Y-73737579D01*
X80767936Y-73757147D01*
X80772000Y-73757682D01*
X80776064Y-73757147D01*
X80924699Y-73737579D01*
X80924700Y-73737579D01*
X80928762Y-73737044D01*
X80932547Y-73735476D01*
X80932548Y-73735476D01*
X81071058Y-73678103D01*
X81074841Y-73676536D01*
X81200282Y-73580282D01*
X81296536Y-73454841D01*
X81332788Y-73367322D01*
X81355476Y-73312548D01*
X81355476Y-73312547D01*
X81357044Y-73308762D01*
X81364995Y-73248372D01*
X81377147Y-73156064D01*
X81377682Y-73152000D01*
X81375505Y-73135464D01*
X81357579Y-72999301D01*
X81357579Y-72999300D01*
X81357044Y-72995238D01*
X81337823Y-72948833D01*
X81298103Y-72852942D01*
X81296536Y-72849159D01*
X81200282Y-72723718D01*
X81074841Y-72627464D01*
X81071058Y-72625897D01*
X80932548Y-72568524D01*
X80932547Y-72568524D01*
X80928762Y-72566956D01*
X80924700Y-72566421D01*
X80924699Y-72566421D01*
X80776064Y-72546853D01*
X80772000Y-72546318D01*
X80767936Y-72546853D01*
X80619301Y-72566421D01*
X80619300Y-72566421D01*
X80615238Y-72566956D01*
X80611453Y-72568524D01*
X80611452Y-72568524D01*
X80472942Y-72625897D01*
X80469159Y-72627464D01*
X80343718Y-72723718D01*
X80247464Y-72849159D01*
X80245897Y-72852942D01*
X80206178Y-72948833D01*
X80186956Y-72995238D01*
X80186421Y-72999300D01*
X80186421Y-72999301D01*
X80168495Y-73135464D01*
X80166318Y-73152000D01*
X77032391Y-73152000D01*
X77010841Y-73135464D01*
X77004373Y-73132785D01*
X76868548Y-73076524D01*
X76868547Y-73076524D01*
X76864762Y-73074956D01*
X76860700Y-73074421D01*
X76860699Y-73074421D01*
X76712064Y-73054853D01*
X76708000Y-73054318D01*
X76703936Y-73054853D01*
X76555301Y-73074421D01*
X76555300Y-73074421D01*
X76551238Y-73074956D01*
X76547453Y-73076524D01*
X76547452Y-73076524D01*
X76411627Y-73132785D01*
X76405159Y-73135464D01*
X76401913Y-73137955D01*
X76401909Y-73137957D01*
X76374047Y-73159336D01*
X76327842Y-73171716D01*
X76286415Y-73147798D01*
X76273500Y-73109751D01*
X76273500Y-71711503D01*
X76610318Y-71711503D01*
X76610853Y-71715567D01*
X76628654Y-71850776D01*
X76630956Y-71868265D01*
X76632524Y-71872050D01*
X76632524Y-71872051D01*
X76652977Y-71921428D01*
X76691464Y-72014344D01*
X76787718Y-72139785D01*
X76913159Y-72236039D01*
X76916942Y-72237606D01*
X77055452Y-72294979D01*
X77055453Y-72294979D01*
X77059238Y-72296547D01*
X77063300Y-72297082D01*
X77063301Y-72297082D01*
X77211936Y-72316650D01*
X77216000Y-72317185D01*
X77220064Y-72316650D01*
X77368699Y-72297082D01*
X77368700Y-72297082D01*
X77372762Y-72296547D01*
X77376547Y-72294979D01*
X77376548Y-72294979D01*
X77515058Y-72237606D01*
X77518841Y-72236039D01*
X77644282Y-72139785D01*
X77740536Y-72014344D01*
X77760254Y-71966740D01*
X77965058Y-71966740D01*
X77985696Y-72123502D01*
X77987264Y-72127287D01*
X77987264Y-72127288D01*
X78044637Y-72265798D01*
X78046204Y-72269581D01*
X78142458Y-72395022D01*
X78267899Y-72491276D01*
X78271682Y-72492843D01*
X78410192Y-72550216D01*
X78410193Y-72550216D01*
X78413978Y-72551784D01*
X78418040Y-72552319D01*
X78418041Y-72552319D01*
X78566676Y-72571887D01*
X78570740Y-72572422D01*
X78574804Y-72571887D01*
X78723439Y-72552319D01*
X78723440Y-72552319D01*
X78727502Y-72551784D01*
X78731287Y-72550216D01*
X78731288Y-72550216D01*
X78869798Y-72492843D01*
X78873581Y-72491276D01*
X78999022Y-72395022D01*
X79095276Y-72269581D01*
X79096843Y-72265798D01*
X79154216Y-72127288D01*
X79154216Y-72127287D01*
X79155784Y-72123502D01*
X79176422Y-71966740D01*
X79155784Y-71809978D01*
X79149798Y-71795525D01*
X79096843Y-71667682D01*
X79095276Y-71663899D01*
X78999022Y-71538458D01*
X78873581Y-71442204D01*
X78742825Y-71388043D01*
X78731288Y-71383264D01*
X78731287Y-71383264D01*
X78727502Y-71381696D01*
X78723440Y-71381161D01*
X78723439Y-71381161D01*
X78574804Y-71361593D01*
X78570740Y-71361058D01*
X78566676Y-71361593D01*
X78418041Y-71381161D01*
X78418040Y-71381161D01*
X78413978Y-71381696D01*
X78410193Y-71383264D01*
X78410192Y-71383264D01*
X78398655Y-71388043D01*
X78267899Y-71442204D01*
X78142458Y-71538458D01*
X78046204Y-71663899D01*
X78044637Y-71667682D01*
X77991683Y-71795525D01*
X77985696Y-71809978D01*
X77965058Y-71966740D01*
X77760254Y-71966740D01*
X77779023Y-71921428D01*
X77799476Y-71872051D01*
X77799476Y-71872050D01*
X77801044Y-71868265D01*
X77803347Y-71850776D01*
X77821147Y-71715567D01*
X77821682Y-71711503D01*
X77811107Y-71631175D01*
X77801579Y-71558804D01*
X77801579Y-71558803D01*
X77801044Y-71554741D01*
X77795644Y-71541703D01*
X77742103Y-71412445D01*
X77740536Y-71408662D01*
X77644282Y-71283221D01*
X77518841Y-71186967D01*
X77475081Y-71168841D01*
X77376548Y-71128027D01*
X77376547Y-71128027D01*
X77372762Y-71126459D01*
X77368700Y-71125924D01*
X77368699Y-71125924D01*
X77220064Y-71106356D01*
X77216000Y-71105821D01*
X77211936Y-71106356D01*
X77063301Y-71125924D01*
X77063300Y-71125924D01*
X77059238Y-71126459D01*
X77055453Y-71128027D01*
X77055452Y-71128027D01*
X76956919Y-71168841D01*
X76913159Y-71186967D01*
X76787718Y-71283221D01*
X76691464Y-71408662D01*
X76689897Y-71412445D01*
X76636357Y-71541703D01*
X76630956Y-71554741D01*
X76630421Y-71558803D01*
X76630421Y-71558804D01*
X76620893Y-71631175D01*
X76610318Y-71711503D01*
X76273500Y-71711503D01*
X76273500Y-70317940D01*
X77582868Y-70317940D01*
X77583403Y-70322004D01*
X77600944Y-70455238D01*
X77603506Y-70474702D01*
X77605074Y-70478487D01*
X77605074Y-70478488D01*
X77630715Y-70540390D01*
X77664014Y-70620781D01*
X77760268Y-70746222D01*
X77885709Y-70842476D01*
X77889492Y-70844043D01*
X78028002Y-70901416D01*
X78028003Y-70901416D01*
X78031788Y-70902984D01*
X78035850Y-70903519D01*
X78035851Y-70903519D01*
X78184486Y-70923087D01*
X78188550Y-70923622D01*
X78192614Y-70923087D01*
X78341249Y-70903519D01*
X78341250Y-70903519D01*
X78345312Y-70902984D01*
X78349097Y-70901416D01*
X78349098Y-70901416D01*
X78487608Y-70844043D01*
X78491391Y-70842476D01*
X78616832Y-70746222D01*
X78713086Y-70620781D01*
X78746385Y-70540390D01*
X78748068Y-70536326D01*
X79567865Y-70536326D01*
X79568400Y-70540390D01*
X79581426Y-70639329D01*
X79588503Y-70693088D01*
X79590071Y-70696873D01*
X79590071Y-70696874D01*
X79635928Y-70807581D01*
X79649011Y-70839167D01*
X79745265Y-70964608D01*
X79870706Y-71060862D01*
X79874489Y-71062429D01*
X80012999Y-71119802D01*
X80013000Y-71119802D01*
X80016785Y-71121370D01*
X80020847Y-71121905D01*
X80020848Y-71121905D01*
X80169483Y-71141473D01*
X80173547Y-71142008D01*
X80177611Y-71141473D01*
X80326246Y-71121905D01*
X80326247Y-71121905D01*
X80330309Y-71121370D01*
X80334094Y-71119802D01*
X80334095Y-71119802D01*
X80472605Y-71062429D01*
X80476388Y-71060862D01*
X80601829Y-70964608D01*
X80698083Y-70839167D01*
X80711166Y-70807581D01*
X80757023Y-70696874D01*
X80757023Y-70696873D01*
X80758591Y-70693088D01*
X80765669Y-70639329D01*
X80778694Y-70540390D01*
X80779229Y-70536326D01*
X80765251Y-70430155D01*
X80759126Y-70383627D01*
X80759126Y-70383626D01*
X80758591Y-70379564D01*
X80750060Y-70358967D01*
X80699650Y-70237268D01*
X80698083Y-70233485D01*
X80601829Y-70108044D01*
X80476388Y-70011790D01*
X80472605Y-70010223D01*
X80334095Y-69952850D01*
X80334094Y-69952850D01*
X80330309Y-69951282D01*
X80326247Y-69950747D01*
X80326246Y-69950747D01*
X80177611Y-69931179D01*
X80173547Y-69930644D01*
X80169483Y-69931179D01*
X80020848Y-69950747D01*
X80020847Y-69950747D01*
X80016785Y-69951282D01*
X80013000Y-69952850D01*
X80012999Y-69952850D01*
X79874489Y-70010223D01*
X79870706Y-70011790D01*
X79745265Y-70108044D01*
X79649011Y-70233485D01*
X79647444Y-70237268D01*
X79597035Y-70358967D01*
X79588503Y-70379564D01*
X79587968Y-70383626D01*
X79587968Y-70383627D01*
X79581843Y-70430155D01*
X79567865Y-70536326D01*
X78748068Y-70536326D01*
X78772026Y-70478488D01*
X78772026Y-70478487D01*
X78773594Y-70474702D01*
X78776157Y-70455238D01*
X78793697Y-70322004D01*
X78794232Y-70317940D01*
X78789918Y-70285171D01*
X78774129Y-70165241D01*
X78774129Y-70165240D01*
X78773594Y-70161178D01*
X78752504Y-70110261D01*
X78714653Y-70018882D01*
X78713086Y-70015099D01*
X78616832Y-69889658D01*
X78542816Y-69832864D01*
X81450110Y-69832864D01*
X81450645Y-69836928D01*
X81465630Y-69950747D01*
X81470748Y-69989626D01*
X81472316Y-69993411D01*
X81472316Y-69993412D01*
X81523940Y-70118043D01*
X81531256Y-70135705D01*
X81627510Y-70261146D01*
X81752951Y-70357400D01*
X81756734Y-70358967D01*
X81895244Y-70416340D01*
X81895245Y-70416340D01*
X81899030Y-70417908D01*
X81903092Y-70418443D01*
X81903093Y-70418443D01*
X82051728Y-70438011D01*
X82055792Y-70438546D01*
X82059856Y-70438011D01*
X82208491Y-70418443D01*
X82208492Y-70418443D01*
X82212554Y-70417908D01*
X82216339Y-70416340D01*
X82216340Y-70416340D01*
X82354850Y-70358967D01*
X82358633Y-70357400D01*
X82484074Y-70261146D01*
X82580328Y-70135705D01*
X82587644Y-70118043D01*
X82639268Y-69993412D01*
X82639268Y-69993411D01*
X82640836Y-69989626D01*
X82645955Y-69950747D01*
X82660939Y-69836928D01*
X82661474Y-69832864D01*
X82655348Y-69786333D01*
X82641371Y-69680165D01*
X82641371Y-69680164D01*
X82640836Y-69676102D01*
X82629292Y-69648231D01*
X82607657Y-69596000D01*
X83214318Y-69596000D01*
X83214853Y-69600064D01*
X83229624Y-69712258D01*
X83234956Y-69752762D01*
X83236524Y-69756547D01*
X83236524Y-69756548D01*
X83290629Y-69887168D01*
X83295464Y-69898841D01*
X83391718Y-70024282D01*
X83517159Y-70120536D01*
X83520942Y-70122103D01*
X83659452Y-70179476D01*
X83659453Y-70179476D01*
X83663238Y-70181044D01*
X83667300Y-70181579D01*
X83667301Y-70181579D01*
X83815936Y-70201147D01*
X83820000Y-70201682D01*
X83824064Y-70201147D01*
X83972699Y-70181579D01*
X83972700Y-70181579D01*
X83976762Y-70181044D01*
X83980547Y-70179476D01*
X83980548Y-70179476D01*
X84119058Y-70122103D01*
X84122841Y-70120536D01*
X84248282Y-70024282D01*
X84344536Y-69898841D01*
X84349371Y-69887168D01*
X84403476Y-69756548D01*
X84403476Y-69756547D01*
X84405044Y-69752762D01*
X84410377Y-69712258D01*
X84425147Y-69600064D01*
X84425682Y-69596000D01*
X84416044Y-69522790D01*
X84405579Y-69443301D01*
X84405579Y-69443300D01*
X84405044Y-69439238D01*
X84379145Y-69376711D01*
X84346103Y-69296942D01*
X84344536Y-69293159D01*
X84248282Y-69167718D01*
X84122841Y-69071464D01*
X84098764Y-69061491D01*
X83980548Y-69012524D01*
X83980547Y-69012524D01*
X83976762Y-69010956D01*
X83972700Y-69010421D01*
X83972699Y-69010421D01*
X83824064Y-68990853D01*
X83820000Y-68990318D01*
X83815936Y-68990853D01*
X83667301Y-69010421D01*
X83667300Y-69010421D01*
X83663238Y-69010956D01*
X83659453Y-69012524D01*
X83659452Y-69012524D01*
X83541236Y-69061491D01*
X83517159Y-69071464D01*
X83391718Y-69167718D01*
X83295464Y-69293159D01*
X83293897Y-69296942D01*
X83260856Y-69376711D01*
X83234956Y-69439238D01*
X83234421Y-69443300D01*
X83234421Y-69443301D01*
X83223956Y-69522790D01*
X83214318Y-69596000D01*
X82607657Y-69596000D01*
X82581895Y-69533806D01*
X82580328Y-69530023D01*
X82484074Y-69404582D01*
X82358633Y-69308328D01*
X82322012Y-69293159D01*
X82216340Y-69249388D01*
X82216339Y-69249388D01*
X82212554Y-69247820D01*
X82208492Y-69247285D01*
X82208491Y-69247285D01*
X82059856Y-69227717D01*
X82055792Y-69227182D01*
X82051728Y-69227717D01*
X81903093Y-69247285D01*
X81903092Y-69247285D01*
X81899030Y-69247820D01*
X81895245Y-69249388D01*
X81895244Y-69249388D01*
X81789572Y-69293159D01*
X81752951Y-69308328D01*
X81627510Y-69404582D01*
X81531256Y-69530023D01*
X81529689Y-69533806D01*
X81482293Y-69648231D01*
X81470748Y-69676102D01*
X81470213Y-69680164D01*
X81470213Y-69680165D01*
X81456236Y-69786333D01*
X81450110Y-69832864D01*
X78542816Y-69832864D01*
X78491391Y-69793404D01*
X78383464Y-69748699D01*
X78349098Y-69734464D01*
X78349097Y-69734464D01*
X78345312Y-69732896D01*
X78341250Y-69732361D01*
X78341249Y-69732361D01*
X78192614Y-69712793D01*
X78188550Y-69712258D01*
X78184486Y-69712793D01*
X78035851Y-69732361D01*
X78035850Y-69732361D01*
X78031788Y-69732896D01*
X78028003Y-69734464D01*
X78028002Y-69734464D01*
X77993636Y-69748699D01*
X77885709Y-69793404D01*
X77760268Y-69889658D01*
X77664014Y-70015099D01*
X77662447Y-70018882D01*
X77624597Y-70110261D01*
X77603506Y-70161178D01*
X77602971Y-70165240D01*
X77602971Y-70165241D01*
X77587182Y-70285171D01*
X77582868Y-70317940D01*
X76273500Y-70317940D01*
X76273500Y-69219949D01*
X78545839Y-69219949D01*
X78566477Y-69376711D01*
X78568045Y-69380496D01*
X78568045Y-69380497D01*
X78601291Y-69460760D01*
X78626985Y-69522790D01*
X78723239Y-69648231D01*
X78848680Y-69744485D01*
X78852463Y-69746052D01*
X78990973Y-69803425D01*
X78990974Y-69803425D01*
X78994759Y-69804993D01*
X78998821Y-69805528D01*
X78998822Y-69805528D01*
X79147457Y-69825096D01*
X79151521Y-69825631D01*
X79155585Y-69825096D01*
X79304220Y-69805528D01*
X79304221Y-69805528D01*
X79308283Y-69804993D01*
X79312068Y-69803425D01*
X79312069Y-69803425D01*
X79450579Y-69746052D01*
X79454362Y-69744485D01*
X79579803Y-69648231D01*
X79676057Y-69522790D01*
X79701751Y-69460760D01*
X79734997Y-69380497D01*
X79734997Y-69380496D01*
X79736565Y-69376711D01*
X79757203Y-69219949D01*
X79744426Y-69122896D01*
X79737100Y-69067250D01*
X79737100Y-69067249D01*
X79736565Y-69063187D01*
X79727686Y-69041750D01*
X79677623Y-68920889D01*
X79676057Y-68917108D01*
X79579803Y-68791667D01*
X79454362Y-68695413D01*
X79334219Y-68645648D01*
X79312069Y-68636473D01*
X79312068Y-68636473D01*
X79308283Y-68634905D01*
X79304221Y-68634370D01*
X79304220Y-68634370D01*
X79155585Y-68614802D01*
X79151521Y-68614267D01*
X79147457Y-68614802D01*
X78998822Y-68634370D01*
X78998821Y-68634370D01*
X78994759Y-68634905D01*
X78990974Y-68636473D01*
X78990973Y-68636473D01*
X78968823Y-68645648D01*
X78848680Y-68695413D01*
X78723239Y-68791667D01*
X78626985Y-68917108D01*
X78625419Y-68920889D01*
X78575357Y-69041750D01*
X78566477Y-69063187D01*
X78565942Y-69067249D01*
X78565942Y-69067250D01*
X78558616Y-69122896D01*
X78545839Y-69219949D01*
X76273500Y-69219949D01*
X76273500Y-67928972D01*
X76291806Y-67884778D01*
X76336000Y-67866472D01*
X76380194Y-67884778D01*
X76385585Y-67890925D01*
X76415163Y-67929472D01*
X76415166Y-67929475D01*
X76417656Y-67932720D01*
X76543097Y-68028974D01*
X76546880Y-68030541D01*
X76685390Y-68087914D01*
X76685391Y-68087914D01*
X76689176Y-68089482D01*
X76693238Y-68090017D01*
X76693239Y-68090017D01*
X76841874Y-68109585D01*
X76845938Y-68110120D01*
X76850002Y-68109585D01*
X76998637Y-68090017D01*
X76998638Y-68090017D01*
X77002700Y-68089482D01*
X77006485Y-68087914D01*
X77006486Y-68087914D01*
X77144996Y-68030541D01*
X77148779Y-68028974D01*
X77274220Y-67932720D01*
X77370474Y-67807279D01*
X77376678Y-67792301D01*
X77429414Y-67664986D01*
X77429414Y-67664985D01*
X77430982Y-67661200D01*
X77435183Y-67629294D01*
X77451085Y-67508502D01*
X77451620Y-67504438D01*
X77437131Y-67394381D01*
X77431517Y-67351739D01*
X77431517Y-67351738D01*
X77430982Y-67347676D01*
X77427540Y-67339365D01*
X77372041Y-67205380D01*
X77370474Y-67201597D01*
X77274220Y-67076156D01*
X77247952Y-67056000D01*
X77626318Y-67056000D01*
X77626853Y-67060064D01*
X77636255Y-67131476D01*
X77646956Y-67212762D01*
X77648524Y-67216547D01*
X77648524Y-67216548D01*
X77676588Y-67284301D01*
X77707464Y-67358841D01*
X77803718Y-67484282D01*
X77929159Y-67580536D01*
X77932942Y-67582103D01*
X78071452Y-67639476D01*
X78071453Y-67639476D01*
X78075238Y-67641044D01*
X78079300Y-67641579D01*
X78079301Y-67641579D01*
X78227936Y-67661147D01*
X78232000Y-67661682D01*
X78236064Y-67661147D01*
X78384699Y-67641579D01*
X78384700Y-67641579D01*
X78388762Y-67641044D01*
X78392547Y-67639476D01*
X78392548Y-67639476D01*
X78531058Y-67582103D01*
X78534841Y-67580536D01*
X78583107Y-67543500D01*
X79244323Y-67543500D01*
X79244858Y-67547564D01*
X79259284Y-67657137D01*
X79264961Y-67700262D01*
X79266529Y-67704047D01*
X79266529Y-67704048D01*
X79322278Y-67838638D01*
X79325469Y-67846341D01*
X79421723Y-67971782D01*
X79424968Y-67974272D01*
X79437409Y-67983818D01*
X79547164Y-68068036D01*
X79550947Y-68069603D01*
X79689457Y-68126976D01*
X79689458Y-68126976D01*
X79693243Y-68128544D01*
X79697305Y-68129079D01*
X79697306Y-68129079D01*
X79845941Y-68148647D01*
X79850005Y-68149182D01*
X79854069Y-68148647D01*
X80002704Y-68129079D01*
X80002705Y-68129079D01*
X80006767Y-68128544D01*
X80010552Y-68126976D01*
X80010553Y-68126976D01*
X80149063Y-68069603D01*
X80152846Y-68068036D01*
X80262601Y-67983818D01*
X80275042Y-67974272D01*
X80278287Y-67971782D01*
X80374541Y-67846341D01*
X80377732Y-67838638D01*
X80433481Y-67704048D01*
X80433481Y-67704047D01*
X80435049Y-67700262D01*
X80440727Y-67657137D01*
X80455152Y-67547564D01*
X80455687Y-67543500D01*
X80438225Y-67410865D01*
X80435584Y-67390801D01*
X80435584Y-67390800D01*
X80435049Y-67386738D01*
X80432872Y-67381481D01*
X80376108Y-67244442D01*
X80374541Y-67240659D01*
X80284093Y-67122784D01*
X80280777Y-67118463D01*
X80278287Y-67115218D01*
X80152846Y-67018964D01*
X80080514Y-66989003D01*
X80010553Y-66960024D01*
X80010552Y-66960024D01*
X80006767Y-66958456D01*
X80002705Y-66957921D01*
X80002704Y-66957921D01*
X79854069Y-66938353D01*
X79850005Y-66937818D01*
X79845941Y-66938353D01*
X79697306Y-66957921D01*
X79697305Y-66957921D01*
X79693243Y-66958456D01*
X79689458Y-66960024D01*
X79689457Y-66960024D01*
X79619496Y-66989003D01*
X79547164Y-67018964D01*
X79421723Y-67115218D01*
X79419233Y-67118463D01*
X79415917Y-67122784D01*
X79325469Y-67240659D01*
X79323902Y-67244442D01*
X79267139Y-67381481D01*
X79264961Y-67386738D01*
X79264426Y-67390800D01*
X79264426Y-67390801D01*
X79261785Y-67410865D01*
X79244323Y-67543500D01*
X78583107Y-67543500D01*
X78660282Y-67484282D01*
X78756536Y-67358841D01*
X78787412Y-67284301D01*
X78815476Y-67216548D01*
X78815476Y-67216547D01*
X78817044Y-67212762D01*
X78827746Y-67131476D01*
X78837147Y-67060064D01*
X78837682Y-67056000D01*
X78832600Y-67017397D01*
X78817579Y-66903301D01*
X78817579Y-66903300D01*
X78817044Y-66899238D01*
X78802644Y-66864472D01*
X78785766Y-66823726D01*
X81641949Y-66823726D01*
X81642484Y-66827790D01*
X81653632Y-66912464D01*
X81662587Y-66980488D01*
X81664155Y-66984273D01*
X81664155Y-66984274D01*
X81706583Y-67086704D01*
X81723095Y-67126567D01*
X81819349Y-67252008D01*
X81944790Y-67348262D01*
X81946092Y-67348801D01*
X81974657Y-67386023D01*
X81968417Y-67433449D01*
X81952336Y-67451787D01*
X81870967Y-67514224D01*
X81870963Y-67514228D01*
X81867718Y-67516718D01*
X81771464Y-67642159D01*
X81769897Y-67645942D01*
X81720871Y-67764302D01*
X81710956Y-67788238D01*
X81710421Y-67792300D01*
X81710421Y-67792301D01*
X81708947Y-67803496D01*
X81690318Y-67945000D01*
X81690853Y-67949064D01*
X81700255Y-68020476D01*
X81710956Y-68101762D01*
X81712524Y-68105547D01*
X81712524Y-68105548D01*
X81738687Y-68168711D01*
X81771464Y-68247841D01*
X81867718Y-68373282D01*
X81993159Y-68469536D01*
X81996942Y-68471103D01*
X82135452Y-68528476D01*
X82135453Y-68528476D01*
X82139238Y-68530044D01*
X82143300Y-68530579D01*
X82143301Y-68530579D01*
X82291936Y-68550147D01*
X82296000Y-68550682D01*
X82300064Y-68550147D01*
X82448699Y-68530579D01*
X82448700Y-68530579D01*
X82452762Y-68530044D01*
X82456547Y-68528476D01*
X82456548Y-68528476D01*
X82595058Y-68471103D01*
X82598841Y-68469536D01*
X82724282Y-68373282D01*
X82820536Y-68247841D01*
X82853313Y-68168711D01*
X82879476Y-68105548D01*
X82879476Y-68105547D01*
X82881044Y-68101762D01*
X82891746Y-68020476D01*
X82901147Y-67949064D01*
X82901682Y-67945000D01*
X82883053Y-67803496D01*
X82881579Y-67792301D01*
X82881579Y-67792300D01*
X82881044Y-67788238D01*
X82871130Y-67764302D01*
X82822103Y-67645942D01*
X82820536Y-67642159D01*
X82724282Y-67516718D01*
X82685256Y-67486772D01*
X82620391Y-67437000D01*
X83849318Y-67437000D01*
X83849853Y-67441064D01*
X83855116Y-67481037D01*
X83869956Y-67593762D01*
X83871524Y-67597547D01*
X83871524Y-67597548D01*
X83888658Y-67638913D01*
X83930464Y-67739841D01*
X84026718Y-67865282D01*
X84152159Y-67961536D01*
X84155942Y-67963103D01*
X84294452Y-68020476D01*
X84294453Y-68020476D01*
X84298238Y-68022044D01*
X84302300Y-68022579D01*
X84302301Y-68022579D01*
X84450936Y-68042147D01*
X84455000Y-68042682D01*
X84459064Y-68042147D01*
X84607699Y-68022579D01*
X84607700Y-68022579D01*
X84611762Y-68022044D01*
X84615547Y-68020476D01*
X84615548Y-68020476D01*
X84754058Y-67963103D01*
X84757841Y-67961536D01*
X84883282Y-67865282D01*
X84979536Y-67739841D01*
X85021342Y-67638913D01*
X85038476Y-67597548D01*
X85038476Y-67597547D01*
X85040044Y-67593762D01*
X85044020Y-67563564D01*
X86250240Y-67563564D01*
X86250775Y-67567628D01*
X86268237Y-67700262D01*
X86270878Y-67720326D01*
X86272446Y-67724111D01*
X86272446Y-67724112D01*
X86321508Y-67842558D01*
X86331386Y-67866405D01*
X86427640Y-67991846D01*
X86430885Y-67994336D01*
X86443326Y-68003882D01*
X86553081Y-68088100D01*
X86556864Y-68089667D01*
X86695374Y-68147040D01*
X86695375Y-68147040D01*
X86699160Y-68148608D01*
X86703222Y-68149143D01*
X86703223Y-68149143D01*
X86851858Y-68168711D01*
X86855922Y-68169246D01*
X86859986Y-68168711D01*
X87008621Y-68149143D01*
X87008622Y-68149143D01*
X87012684Y-68148608D01*
X87016469Y-68147040D01*
X87016470Y-68147040D01*
X87154980Y-68089667D01*
X87158763Y-68088100D01*
X87268518Y-68003882D01*
X87280959Y-67994336D01*
X87284204Y-67991846D01*
X87380458Y-67866405D01*
X87390336Y-67842558D01*
X87439398Y-67724112D01*
X87439398Y-67724111D01*
X87440966Y-67720326D01*
X87443608Y-67700262D01*
X87461069Y-67567628D01*
X87461604Y-67563564D01*
X87458428Y-67539436D01*
X87441501Y-67410865D01*
X87441501Y-67410864D01*
X87440966Y-67406802D01*
X87425026Y-67368318D01*
X87382025Y-67264506D01*
X87380458Y-67260723D01*
X87284204Y-67135282D01*
X87158763Y-67039028D01*
X87116338Y-67021455D01*
X87016470Y-66980088D01*
X87016469Y-66980088D01*
X87012684Y-66978520D01*
X87008622Y-66977985D01*
X87008621Y-66977985D01*
X86859986Y-66958417D01*
X86855922Y-66957882D01*
X86851858Y-66958417D01*
X86703223Y-66977985D01*
X86703222Y-66977985D01*
X86699160Y-66978520D01*
X86695375Y-66980088D01*
X86695374Y-66980088D01*
X86595506Y-67021455D01*
X86553081Y-67039028D01*
X86427640Y-67135282D01*
X86331386Y-67260723D01*
X86329819Y-67264506D01*
X86286819Y-67368318D01*
X86270878Y-67406802D01*
X86270343Y-67410864D01*
X86270343Y-67410865D01*
X86253416Y-67539436D01*
X86250240Y-67563564D01*
X85044020Y-67563564D01*
X85054885Y-67481037D01*
X85060147Y-67441064D01*
X85060682Y-67437000D01*
X85053971Y-67386023D01*
X85040579Y-67284301D01*
X85040579Y-67284300D01*
X85040044Y-67280238D01*
X84993704Y-67168364D01*
X84993703Y-67120528D01*
X85027528Y-67086704D01*
X85075364Y-67086704D01*
X85183452Y-67131476D01*
X85183453Y-67131476D01*
X85187238Y-67133044D01*
X85191300Y-67133579D01*
X85191301Y-67133579D01*
X85339936Y-67153147D01*
X85344000Y-67153682D01*
X85348064Y-67153147D01*
X85496699Y-67133579D01*
X85496700Y-67133579D01*
X85500762Y-67133044D01*
X85504547Y-67131476D01*
X85504548Y-67131476D01*
X85643058Y-67074103D01*
X85646841Y-67072536D01*
X85772282Y-66976282D01*
X85868536Y-66850841D01*
X85929044Y-66704762D01*
X85937940Y-66637194D01*
X85949147Y-66552064D01*
X85949682Y-66548000D01*
X85940289Y-66476652D01*
X85929579Y-66395301D01*
X85929579Y-66395300D01*
X85929044Y-66391238D01*
X85925518Y-66382724D01*
X85870103Y-66248942D01*
X85870101Y-66248938D01*
X85868536Y-66245159D01*
X85772282Y-66119718D01*
X85646841Y-66023464D01*
X85505178Y-65964785D01*
X85504548Y-65964524D01*
X85504547Y-65964524D01*
X85500762Y-65962956D01*
X85496700Y-65962421D01*
X85496699Y-65962421D01*
X85348064Y-65942853D01*
X85344000Y-65942318D01*
X85339936Y-65942853D01*
X85191301Y-65962421D01*
X85191300Y-65962421D01*
X85187238Y-65962956D01*
X85183453Y-65964524D01*
X85183452Y-65964524D01*
X85182822Y-65964785D01*
X85041159Y-66023464D01*
X84915718Y-66119718D01*
X84819464Y-66245159D01*
X84817899Y-66248938D01*
X84817897Y-66248942D01*
X84762483Y-66382724D01*
X84758956Y-66391238D01*
X84758421Y-66395300D01*
X84758421Y-66395301D01*
X84747711Y-66476652D01*
X84738318Y-66548000D01*
X84738853Y-66552064D01*
X84750061Y-66637194D01*
X84758956Y-66704762D01*
X84760524Y-66708547D01*
X84760524Y-66708548D01*
X84805296Y-66816636D01*
X84805297Y-66864472D01*
X84771472Y-66898296D01*
X84723636Y-66898296D01*
X84615548Y-66853524D01*
X84615547Y-66853524D01*
X84611762Y-66851956D01*
X84607700Y-66851421D01*
X84607699Y-66851421D01*
X84459064Y-66831853D01*
X84455000Y-66831318D01*
X84450936Y-66831853D01*
X84302301Y-66851421D01*
X84302300Y-66851421D01*
X84298238Y-66851956D01*
X84294453Y-66853524D01*
X84294452Y-66853524D01*
X84174280Y-66903301D01*
X84152159Y-66912464D01*
X84026718Y-67008718D01*
X83930464Y-67134159D01*
X83928897Y-67137942D01*
X83895325Y-67218993D01*
X83869956Y-67280238D01*
X83869421Y-67284300D01*
X83869421Y-67284301D01*
X83856029Y-67386023D01*
X83849318Y-67437000D01*
X82620391Y-67437000D01*
X82602090Y-67422957D01*
X82598841Y-67420464D01*
X82597539Y-67419925D01*
X82568974Y-67382703D01*
X82575214Y-67335277D01*
X82591295Y-67316939D01*
X82672664Y-67254502D01*
X82672668Y-67254498D01*
X82675913Y-67252008D01*
X82772167Y-67126567D01*
X82815138Y-67022826D01*
X82848961Y-66989003D01*
X82896796Y-66989002D01*
X82910926Y-66997160D01*
X83009159Y-67072536D01*
X83012942Y-67074103D01*
X83151452Y-67131476D01*
X83151453Y-67131476D01*
X83155238Y-67133044D01*
X83159300Y-67133579D01*
X83159301Y-67133579D01*
X83307936Y-67153147D01*
X83312000Y-67153682D01*
X83316064Y-67153147D01*
X83464699Y-67133579D01*
X83464700Y-67133579D01*
X83468762Y-67133044D01*
X83472547Y-67131476D01*
X83472548Y-67131476D01*
X83611058Y-67074103D01*
X83614841Y-67072536D01*
X83740282Y-66976282D01*
X83836536Y-66850841D01*
X83897044Y-66704762D01*
X83905940Y-66637194D01*
X83917147Y-66552064D01*
X83917682Y-66548000D01*
X83908289Y-66476652D01*
X83897579Y-66395301D01*
X83897579Y-66395300D01*
X83897044Y-66391238D01*
X83893518Y-66382724D01*
X83838103Y-66248942D01*
X83838101Y-66248938D01*
X83836536Y-66245159D01*
X83740282Y-66119718D01*
X83614841Y-66023464D01*
X83473178Y-65964785D01*
X83472548Y-65964524D01*
X83472547Y-65964524D01*
X83468762Y-65962956D01*
X83464700Y-65962421D01*
X83464699Y-65962421D01*
X83316064Y-65942853D01*
X83312000Y-65942318D01*
X83307936Y-65942853D01*
X83159301Y-65962421D01*
X83159300Y-65962421D01*
X83155238Y-65962956D01*
X83151453Y-65964524D01*
X83151452Y-65964524D01*
X83150822Y-65964785D01*
X83009159Y-66023464D01*
X82883718Y-66119718D01*
X82787464Y-66245159D01*
X82744493Y-66348900D01*
X82710670Y-66382723D01*
X82662835Y-66382724D01*
X82648704Y-66374566D01*
X82584765Y-66325504D01*
X82550472Y-66299190D01*
X82429163Y-66248942D01*
X82408179Y-66240250D01*
X82408178Y-66240250D01*
X82404393Y-66238682D01*
X82400331Y-66238147D01*
X82400330Y-66238147D01*
X82251695Y-66218579D01*
X82247631Y-66218044D01*
X82243567Y-66218579D01*
X82094932Y-66238147D01*
X82094931Y-66238147D01*
X82090869Y-66238682D01*
X82087084Y-66240250D01*
X82087083Y-66240250D01*
X82066099Y-66248942D01*
X81944790Y-66299190D01*
X81819349Y-66395444D01*
X81723095Y-66520885D01*
X81721528Y-66524668D01*
X81667659Y-66654720D01*
X81662587Y-66666964D01*
X81641949Y-66823726D01*
X78785766Y-66823726D01*
X78758103Y-66756942D01*
X78756536Y-66753159D01*
X78660282Y-66627718D01*
X78534841Y-66531464D01*
X78427071Y-66486824D01*
X78392548Y-66472524D01*
X78392547Y-66472524D01*
X78388762Y-66470956D01*
X78384700Y-66470421D01*
X78384699Y-66470421D01*
X78236064Y-66450853D01*
X78232000Y-66450318D01*
X78227936Y-66450853D01*
X78079301Y-66470421D01*
X78079300Y-66470421D01*
X78075238Y-66470956D01*
X78071453Y-66472524D01*
X78071452Y-66472524D01*
X78036929Y-66486824D01*
X77929159Y-66531464D01*
X77803718Y-66627718D01*
X77707464Y-66753159D01*
X77705897Y-66756942D01*
X77661357Y-66864472D01*
X77646956Y-66899238D01*
X77646421Y-66903300D01*
X77646421Y-66903301D01*
X77631400Y-67017397D01*
X77626318Y-67056000D01*
X77247952Y-67056000D01*
X77148779Y-66979902D01*
X77140040Y-66976282D01*
X77006486Y-66920962D01*
X77006485Y-66920962D01*
X77002700Y-66919394D01*
X76998638Y-66918859D01*
X76998637Y-66918859D01*
X76850002Y-66899291D01*
X76845938Y-66898756D01*
X76841874Y-66899291D01*
X76693239Y-66918859D01*
X76693238Y-66918859D01*
X76689176Y-66919394D01*
X76685391Y-66920962D01*
X76685390Y-66920962D01*
X76551836Y-66976282D01*
X76543097Y-66979902D01*
X76417656Y-67076156D01*
X76415166Y-67079401D01*
X76415163Y-67079404D01*
X76385585Y-67117951D01*
X76344158Y-67141869D01*
X76297953Y-67129489D01*
X76274035Y-67088062D01*
X76273500Y-67079904D01*
X76273500Y-65960721D01*
X79001744Y-65960721D01*
X79022382Y-66117483D01*
X79023950Y-66121268D01*
X79023950Y-66121269D01*
X79076834Y-66248942D01*
X79082890Y-66263562D01*
X79179144Y-66389003D01*
X79304585Y-66485257D01*
X79308368Y-66486824D01*
X79446878Y-66544197D01*
X79446879Y-66544197D01*
X79450664Y-66545765D01*
X79454726Y-66546300D01*
X79454727Y-66546300D01*
X79603362Y-66565868D01*
X79607426Y-66566403D01*
X79611490Y-66565868D01*
X79760125Y-66546300D01*
X79760126Y-66546300D01*
X79764188Y-66545765D01*
X79767973Y-66544197D01*
X79767974Y-66544197D01*
X79906484Y-66486824D01*
X79910267Y-66485257D01*
X80035708Y-66389003D01*
X80131962Y-66263562D01*
X80138018Y-66248942D01*
X80190902Y-66121269D01*
X80190902Y-66121268D01*
X80192470Y-66117483D01*
X80213108Y-65960721D01*
X80192470Y-65803959D01*
X80166716Y-65741782D01*
X80147517Y-65695433D01*
X80147517Y-65647597D01*
X80181341Y-65613773D01*
X80295922Y-65566312D01*
X80299705Y-65564745D01*
X80425146Y-65468491D01*
X80521400Y-65343050D01*
X80568947Y-65228261D01*
X80580340Y-65200757D01*
X80580340Y-65200756D01*
X80581908Y-65196971D01*
X80602546Y-65040209D01*
X80602058Y-65036500D01*
X81690318Y-65036500D01*
X81690853Y-65040564D01*
X81706148Y-65156738D01*
X81710956Y-65193262D01*
X81712524Y-65197047D01*
X81712524Y-65197048D01*
X81724109Y-65225016D01*
X81771464Y-65339341D01*
X81867718Y-65464782D01*
X81993159Y-65561036D01*
X81996942Y-65562603D01*
X82135452Y-65619976D01*
X82135453Y-65619976D01*
X82139238Y-65621544D01*
X82143300Y-65622079D01*
X82143301Y-65622079D01*
X82291936Y-65641647D01*
X82296000Y-65642182D01*
X82300064Y-65641647D01*
X82448699Y-65622079D01*
X82448700Y-65622079D01*
X82452762Y-65621544D01*
X82456547Y-65619976D01*
X82456548Y-65619976D01*
X82595058Y-65562603D01*
X82598841Y-65561036D01*
X82724282Y-65464782D01*
X82820536Y-65339341D01*
X82831240Y-65313500D01*
X83468318Y-65313500D01*
X83468853Y-65317564D01*
X83488235Y-65464782D01*
X83488956Y-65470262D01*
X83490524Y-65474047D01*
X83490524Y-65474048D01*
X83516055Y-65535684D01*
X83549464Y-65616341D01*
X83645718Y-65741782D01*
X83771159Y-65838036D01*
X83774942Y-65839603D01*
X83913452Y-65896976D01*
X83913453Y-65896976D01*
X83917238Y-65898544D01*
X83921300Y-65899079D01*
X83921301Y-65899079D01*
X84069936Y-65918647D01*
X84074000Y-65919182D01*
X84078064Y-65918647D01*
X84226699Y-65899079D01*
X84226700Y-65899079D01*
X84230762Y-65898544D01*
X84234547Y-65896976D01*
X84234548Y-65896976D01*
X84373058Y-65839603D01*
X84376841Y-65838036D01*
X84502282Y-65741782D01*
X84570178Y-65653298D01*
X86131245Y-65653298D01*
X86151883Y-65810060D01*
X86212391Y-65956139D01*
X86308645Y-66081580D01*
X86434086Y-66177834D01*
X86437869Y-66179401D01*
X86576379Y-66236774D01*
X86576380Y-66236774D01*
X86580165Y-66238342D01*
X86584227Y-66238877D01*
X86584228Y-66238877D01*
X86732863Y-66258445D01*
X86736927Y-66258980D01*
X86740991Y-66258445D01*
X86889626Y-66238877D01*
X86889627Y-66238877D01*
X86893689Y-66238342D01*
X86897474Y-66236774D01*
X86897475Y-66236774D01*
X87035985Y-66179401D01*
X87039768Y-66177834D01*
X87165209Y-66081580D01*
X87261463Y-65956139D01*
X87321971Y-65810060D01*
X87342609Y-65653298D01*
X87337744Y-65616341D01*
X87322506Y-65500599D01*
X87322506Y-65500598D01*
X87321971Y-65496536D01*
X87310355Y-65468491D01*
X87263030Y-65354240D01*
X87261463Y-65350457D01*
X87165209Y-65225016D01*
X87039768Y-65128762D01*
X87035985Y-65127195D01*
X86897475Y-65069822D01*
X86897474Y-65069822D01*
X86893689Y-65068254D01*
X86889627Y-65067719D01*
X86889626Y-65067719D01*
X86740991Y-65048151D01*
X86736927Y-65047616D01*
X86732863Y-65048151D01*
X86584228Y-65067719D01*
X86584227Y-65067719D01*
X86580165Y-65068254D01*
X86576380Y-65069822D01*
X86576379Y-65069822D01*
X86437869Y-65127195D01*
X86434086Y-65128762D01*
X86308645Y-65225016D01*
X86212391Y-65350457D01*
X86210824Y-65354240D01*
X86163500Y-65468491D01*
X86151883Y-65496536D01*
X86151348Y-65500598D01*
X86151348Y-65500599D01*
X86136110Y-65616341D01*
X86131245Y-65653298D01*
X84570178Y-65653298D01*
X84598536Y-65616341D01*
X84631945Y-65535684D01*
X84657476Y-65474048D01*
X84657476Y-65474047D01*
X84659044Y-65470262D01*
X84659766Y-65464782D01*
X84679147Y-65317564D01*
X84679682Y-65313500D01*
X84664341Y-65196971D01*
X84659579Y-65160801D01*
X84659579Y-65160800D01*
X84659044Y-65156738D01*
X84598536Y-65010659D01*
X84502282Y-64885218D01*
X84376841Y-64788964D01*
X84373058Y-64787397D01*
X84234548Y-64730024D01*
X84234547Y-64730024D01*
X84230762Y-64728456D01*
X84226700Y-64727921D01*
X84226699Y-64727921D01*
X84078064Y-64708353D01*
X84074000Y-64707818D01*
X84069936Y-64708353D01*
X83921301Y-64727921D01*
X83921300Y-64727921D01*
X83917238Y-64728456D01*
X83913453Y-64730024D01*
X83913452Y-64730024D01*
X83774942Y-64787397D01*
X83771159Y-64788964D01*
X83645718Y-64885218D01*
X83549464Y-65010659D01*
X83488956Y-65156738D01*
X83488421Y-65160800D01*
X83488421Y-65160801D01*
X83483659Y-65196971D01*
X83468318Y-65313500D01*
X82831240Y-65313500D01*
X82867891Y-65225016D01*
X82879476Y-65197048D01*
X82879476Y-65197047D01*
X82881044Y-65193262D01*
X82885853Y-65156738D01*
X82901147Y-65040564D01*
X82901682Y-65036500D01*
X82895303Y-64988046D01*
X82881579Y-64883801D01*
X82881579Y-64883800D01*
X82881044Y-64879738D01*
X82877426Y-64871002D01*
X82822103Y-64737442D01*
X82820536Y-64733659D01*
X82724282Y-64608218D01*
X82598841Y-64511964D01*
X82465502Y-64456733D01*
X82456548Y-64453024D01*
X82456547Y-64453024D01*
X82452762Y-64451456D01*
X82448700Y-64450921D01*
X82448699Y-64450921D01*
X82300064Y-64431353D01*
X82296000Y-64430818D01*
X82291936Y-64431353D01*
X82143301Y-64450921D01*
X82143300Y-64450921D01*
X82139238Y-64451456D01*
X82135453Y-64453024D01*
X82135452Y-64453024D01*
X82126498Y-64456733D01*
X81993159Y-64511964D01*
X81867718Y-64608218D01*
X81771464Y-64733659D01*
X81769897Y-64737442D01*
X81714575Y-64871002D01*
X81710956Y-64879738D01*
X81710421Y-64883800D01*
X81710421Y-64883801D01*
X81696697Y-64988046D01*
X81690318Y-65036500D01*
X80602058Y-65036500D01*
X80581908Y-64883447D01*
X80578804Y-64875952D01*
X80522967Y-64741151D01*
X80521400Y-64737368D01*
X80425146Y-64611927D01*
X80299705Y-64515673D01*
X80286968Y-64510397D01*
X80157412Y-64456733D01*
X80157411Y-64456733D01*
X80153626Y-64455165D01*
X80149564Y-64454630D01*
X80149563Y-64454630D01*
X80000928Y-64435062D01*
X79996864Y-64434527D01*
X79992800Y-64435062D01*
X79844165Y-64454630D01*
X79844164Y-64454630D01*
X79840102Y-64455165D01*
X79836317Y-64456733D01*
X79836316Y-64456733D01*
X79706760Y-64510397D01*
X79694023Y-64515673D01*
X79568582Y-64611927D01*
X79472328Y-64737368D01*
X79470761Y-64741151D01*
X79414925Y-64875952D01*
X79411820Y-64883447D01*
X79391182Y-65040209D01*
X79411820Y-65196971D01*
X79413388Y-65200756D01*
X79413388Y-65200757D01*
X79456773Y-65305497D01*
X79456773Y-65353333D01*
X79422949Y-65387157D01*
X79304585Y-65436185D01*
X79179144Y-65532439D01*
X79082890Y-65657880D01*
X79081323Y-65661663D01*
X79048137Y-65741782D01*
X79022382Y-65803959D01*
X79001744Y-65960721D01*
X76273500Y-65960721D01*
X76273500Y-63154062D01*
X78909880Y-63154062D01*
X78930518Y-63310824D01*
X78991026Y-63456903D01*
X79087280Y-63582344D01*
X79212721Y-63678598D01*
X79216504Y-63680165D01*
X79355014Y-63737538D01*
X79355015Y-63737538D01*
X79358800Y-63739106D01*
X79362862Y-63739641D01*
X79362863Y-63739641D01*
X79511498Y-63759209D01*
X79515562Y-63759744D01*
X79519626Y-63759209D01*
X79668261Y-63739641D01*
X79668262Y-63739641D01*
X79672324Y-63739106D01*
X79676109Y-63737538D01*
X79676110Y-63737538D01*
X79814620Y-63680165D01*
X79818403Y-63678598D01*
X79943844Y-63582344D01*
X80040098Y-63456903D01*
X80100606Y-63310824D01*
X80121244Y-63154062D01*
X80114598Y-63103580D01*
X80101141Y-63001363D01*
X80101141Y-63001362D01*
X80100606Y-62997300D01*
X80097162Y-62988984D01*
X80041665Y-62855004D01*
X80040098Y-62851221D01*
X79943844Y-62725780D01*
X79818403Y-62629526D01*
X79809280Y-62625747D01*
X79676110Y-62570586D01*
X79676109Y-62570586D01*
X79672324Y-62569018D01*
X79668262Y-62568483D01*
X79668261Y-62568483D01*
X79519626Y-62548915D01*
X79515562Y-62548380D01*
X79511498Y-62548915D01*
X79362863Y-62568483D01*
X79362862Y-62568483D01*
X79358800Y-62569018D01*
X79355015Y-62570586D01*
X79355014Y-62570586D01*
X79221844Y-62625747D01*
X79212721Y-62629526D01*
X79087280Y-62725780D01*
X78991026Y-62851221D01*
X78989459Y-62855004D01*
X78933963Y-62988984D01*
X78930518Y-62997300D01*
X78929983Y-63001362D01*
X78929983Y-63001363D01*
X78916526Y-63103580D01*
X78909880Y-63154062D01*
X76273500Y-63154062D01*
X76273500Y-62357000D01*
X83341318Y-62357000D01*
X83341853Y-62361064D01*
X83358430Y-62486976D01*
X83361956Y-62513762D01*
X83363524Y-62517547D01*
X83363524Y-62517548D01*
X83408342Y-62625747D01*
X83422464Y-62659841D01*
X83518718Y-62785282D01*
X83644159Y-62881536D01*
X83647942Y-62883103D01*
X83786452Y-62940476D01*
X83786453Y-62940476D01*
X83790238Y-62942044D01*
X83794300Y-62942579D01*
X83794301Y-62942579D01*
X83942936Y-62962147D01*
X83947000Y-62962682D01*
X83951064Y-62962147D01*
X84099699Y-62942579D01*
X84099700Y-62942579D01*
X84103762Y-62942044D01*
X84107547Y-62940476D01*
X84107548Y-62940476D01*
X84246058Y-62883103D01*
X84249841Y-62881536D01*
X84375282Y-62785282D01*
X84471536Y-62659841D01*
X84473101Y-62656062D01*
X84475152Y-62652510D01*
X84477405Y-62653811D01*
X84505494Y-62625747D01*
X84529386Y-62621000D01*
X85208760Y-62621000D01*
X85252954Y-62639306D01*
X87601694Y-64988046D01*
X87620000Y-65032240D01*
X87620000Y-69460760D01*
X87601694Y-69504954D01*
X87556553Y-69550095D01*
X87512359Y-69568401D01*
X87468165Y-69550095D01*
X87450394Y-69514059D01*
X87449196Y-69504954D01*
X87444981Y-69472941D01*
X87441079Y-69443300D01*
X87441079Y-69443298D01*
X87440544Y-69439238D01*
X87414645Y-69376711D01*
X87381603Y-69296942D01*
X87380036Y-69293159D01*
X87283782Y-69167718D01*
X87158341Y-69071464D01*
X87134264Y-69061491D01*
X87016048Y-69012524D01*
X87016047Y-69012524D01*
X87012262Y-69010956D01*
X87008200Y-69010421D01*
X87008199Y-69010421D01*
X86859564Y-68990853D01*
X86855500Y-68990318D01*
X86851436Y-68990853D01*
X86702801Y-69010421D01*
X86702800Y-69010421D01*
X86698738Y-69010956D01*
X86694953Y-69012524D01*
X86694952Y-69012524D01*
X86576736Y-69061491D01*
X86552659Y-69071464D01*
X86427218Y-69167718D01*
X86424728Y-69170963D01*
X86424725Y-69170966D01*
X86372386Y-69239176D01*
X86330959Y-69263094D01*
X86284754Y-69250714D01*
X86163204Y-69157446D01*
X86163200Y-69157444D01*
X86159954Y-69154953D01*
X86156171Y-69153386D01*
X86017661Y-69096013D01*
X86017660Y-69096013D01*
X86013875Y-69094445D01*
X86009813Y-69093910D01*
X86009812Y-69093910D01*
X85861177Y-69074342D01*
X85857113Y-69073807D01*
X85853049Y-69074342D01*
X85848955Y-69074342D01*
X85848955Y-69071911D01*
X85810177Y-69061491D01*
X85786289Y-69020047D01*
X85798676Y-68973885D01*
X85866042Y-68886092D01*
X85866045Y-68886087D01*
X85868536Y-68882841D01*
X85870103Y-68879058D01*
X85927476Y-68740548D01*
X85927476Y-68740547D01*
X85929044Y-68736762D01*
X85949682Y-68580000D01*
X85929044Y-68423238D01*
X85907008Y-68370037D01*
X85870103Y-68280942D01*
X85868536Y-68277159D01*
X85772282Y-68151718D01*
X85766186Y-68147040D01*
X85742081Y-68128544D01*
X85646841Y-68055464D01*
X85562373Y-68020476D01*
X85504548Y-67996524D01*
X85504547Y-67996524D01*
X85500762Y-67994956D01*
X85496700Y-67994421D01*
X85496699Y-67994421D01*
X85348064Y-67974853D01*
X85344000Y-67974318D01*
X85339936Y-67974853D01*
X85191301Y-67994421D01*
X85191300Y-67994421D01*
X85187238Y-67994956D01*
X85183453Y-67996524D01*
X85183452Y-67996524D01*
X85125627Y-68020476D01*
X85041159Y-68055464D01*
X84945919Y-68128544D01*
X84921815Y-68147040D01*
X84915718Y-68151718D01*
X84819464Y-68277159D01*
X84817897Y-68280942D01*
X84780993Y-68370037D01*
X84758956Y-68423238D01*
X84738318Y-68580000D01*
X84758956Y-68736762D01*
X84760524Y-68740547D01*
X84760524Y-68740548D01*
X84817897Y-68879058D01*
X84819464Y-68882841D01*
X84915718Y-69008282D01*
X85041159Y-69104536D01*
X85044942Y-69106103D01*
X85183452Y-69163476D01*
X85183453Y-69163476D01*
X85187238Y-69165044D01*
X85191300Y-69165579D01*
X85191301Y-69165579D01*
X85232220Y-69170966D01*
X85344000Y-69185682D01*
X85348064Y-69185147D01*
X85352158Y-69185147D01*
X85352158Y-69187578D01*
X85390936Y-69197998D01*
X85414824Y-69239442D01*
X85402437Y-69285604D01*
X85335071Y-69373397D01*
X85335069Y-69373400D01*
X85332577Y-69376648D01*
X85331010Y-69380431D01*
X85283665Y-69494733D01*
X85272069Y-69522727D01*
X85271534Y-69526789D01*
X85271534Y-69526790D01*
X85259000Y-69621998D01*
X85251431Y-69679489D01*
X85251966Y-69683553D01*
X85264824Y-69781216D01*
X85272069Y-69836251D01*
X85273637Y-69840036D01*
X85273637Y-69840037D01*
X85319495Y-69950747D01*
X85332577Y-69982330D01*
X85428831Y-70107771D01*
X85554272Y-70204025D01*
X85558055Y-70205592D01*
X85696565Y-70262965D01*
X85696566Y-70262965D01*
X85700351Y-70264533D01*
X85704413Y-70265068D01*
X85704414Y-70265068D01*
X85853049Y-70284636D01*
X85857113Y-70285171D01*
X85861177Y-70284636D01*
X86009812Y-70265068D01*
X86009813Y-70265068D01*
X86013875Y-70264533D01*
X86017660Y-70262965D01*
X86017661Y-70262965D01*
X86156171Y-70205592D01*
X86159954Y-70204025D01*
X86285395Y-70107771D01*
X86287885Y-70104526D01*
X86287888Y-70104523D01*
X86340227Y-70036313D01*
X86381654Y-70012395D01*
X86427859Y-70024775D01*
X86549409Y-70118043D01*
X86549413Y-70118045D01*
X86552659Y-70120536D01*
X86556442Y-70122103D01*
X86694952Y-70179476D01*
X86694953Y-70179476D01*
X86698738Y-70181044D01*
X86702798Y-70181579D01*
X86702800Y-70181579D01*
X86732441Y-70185481D01*
X86773560Y-70190894D01*
X86814985Y-70214811D01*
X86827366Y-70261017D01*
X86809595Y-70297053D01*
X86443450Y-70663198D01*
X86433980Y-70670970D01*
X86426857Y-70675730D01*
X86417054Y-70682280D01*
X86402325Y-70704323D01*
X86358704Y-70769605D01*
X86338215Y-70872613D01*
X86339416Y-70878651D01*
X86342186Y-70892577D01*
X86343387Y-70904770D01*
X86343387Y-73091023D01*
X86325081Y-73135217D01*
X86311372Y-73144382D01*
X86311877Y-73145257D01*
X86308325Y-73147308D01*
X86304546Y-73148873D01*
X86179105Y-73245127D01*
X86082851Y-73370568D01*
X86081284Y-73374351D01*
X86037145Y-73480913D01*
X86022343Y-73516647D01*
X86021808Y-73520709D01*
X86021808Y-73520710D01*
X86006854Y-73634301D01*
X86001705Y-73673409D01*
X86022343Y-73830171D01*
X86082851Y-73976250D01*
X86179105Y-74101691D01*
X86304546Y-74197945D01*
X86308329Y-74199512D01*
X86446839Y-74256885D01*
X86446840Y-74256885D01*
X86450625Y-74258453D01*
X86454687Y-74258988D01*
X86454688Y-74258988D01*
X86603323Y-74278556D01*
X86607387Y-74279091D01*
X86611451Y-74278556D01*
X86760086Y-74258988D01*
X86760087Y-74258988D01*
X86764149Y-74258453D01*
X86767934Y-74256885D01*
X86767935Y-74256885D01*
X86906445Y-74199512D01*
X86910228Y-74197945D01*
X87035669Y-74101691D01*
X87131923Y-73976250D01*
X87192431Y-73830171D01*
X87213069Y-73673409D01*
X87207920Y-73634301D01*
X87192966Y-73520710D01*
X87192966Y-73520709D01*
X87192431Y-73516647D01*
X87177630Y-73480913D01*
X87133490Y-73374351D01*
X87131923Y-73370568D01*
X87035669Y-73245127D01*
X86910228Y-73148873D01*
X86906449Y-73147308D01*
X86902897Y-73145257D01*
X86904198Y-73143004D01*
X86876134Y-73114915D01*
X86871387Y-73091023D01*
X86871387Y-72948833D01*
X86889693Y-72904639D01*
X86933887Y-72886333D01*
X86964816Y-72894620D01*
X86967546Y-72896715D01*
X86971332Y-72898283D01*
X86971335Y-72898285D01*
X87109839Y-72955655D01*
X87109840Y-72955655D01*
X87113625Y-72957223D01*
X87117687Y-72957758D01*
X87117688Y-72957758D01*
X87266323Y-72977326D01*
X87270387Y-72977861D01*
X87274451Y-72977326D01*
X87423086Y-72957758D01*
X87423087Y-72957758D01*
X87427149Y-72957223D01*
X87430934Y-72955655D01*
X87430935Y-72955655D01*
X87569445Y-72898282D01*
X87573228Y-72896715D01*
X87698669Y-72800461D01*
X87794923Y-72675020D01*
X87811507Y-72634983D01*
X87853863Y-72532727D01*
X87853863Y-72532726D01*
X87855431Y-72528941D01*
X87876069Y-72372179D01*
X87866112Y-72296547D01*
X87855966Y-72219480D01*
X87855966Y-72219479D01*
X87855431Y-72215417D01*
X87835935Y-72168348D01*
X87796490Y-72073121D01*
X87794923Y-72069338D01*
X87698669Y-71943897D01*
X87573228Y-71847643D01*
X87482297Y-71809978D01*
X87430935Y-71788703D01*
X87430934Y-71788703D01*
X87427149Y-71787135D01*
X87423087Y-71786600D01*
X87423086Y-71786600D01*
X87274451Y-71767032D01*
X87270387Y-71766497D01*
X87266323Y-71767032D01*
X87117688Y-71786600D01*
X87117687Y-71786600D01*
X87113625Y-71787135D01*
X87109840Y-71788703D01*
X87109839Y-71788703D01*
X86971335Y-71846073D01*
X86971332Y-71846075D01*
X86967546Y-71847643D01*
X86964884Y-71849685D01*
X86917711Y-71855895D01*
X86879760Y-71826775D01*
X86871387Y-71795525D01*
X86871387Y-71007853D01*
X86889693Y-70963659D01*
X87184401Y-70668951D01*
X87228595Y-70650645D01*
X87272789Y-70668951D01*
X87290560Y-70704987D01*
X87298956Y-70768762D01*
X87300524Y-70772547D01*
X87300524Y-70772548D01*
X87344474Y-70878651D01*
X87359464Y-70914841D01*
X87455718Y-71040282D01*
X87581159Y-71136536D01*
X87584942Y-71138103D01*
X87723452Y-71195476D01*
X87723453Y-71195476D01*
X87727238Y-71197044D01*
X87731300Y-71197579D01*
X87731301Y-71197579D01*
X87879936Y-71217147D01*
X87884000Y-71217682D01*
X87888064Y-71217147D01*
X87888065Y-71217147D01*
X87907573Y-71214579D01*
X87953778Y-71226960D01*
X87977695Y-71268387D01*
X87977695Y-71284701D01*
X87972795Y-71321922D01*
X87971453Y-71332117D01*
X87971988Y-71336181D01*
X87989757Y-71471147D01*
X87992091Y-71488879D01*
X88052599Y-71634958D01*
X88148853Y-71760399D01*
X88152098Y-71762889D01*
X88152102Y-71762893D01*
X88213801Y-71810237D01*
X88237718Y-71851664D01*
X88225337Y-71897869D01*
X88223623Y-71899824D01*
X88222593Y-71900614D01*
X88126339Y-72026055D01*
X88124772Y-72029838D01*
X88080575Y-72136540D01*
X88065831Y-72172134D01*
X88045193Y-72328896D01*
X88065831Y-72485658D01*
X88067399Y-72489443D01*
X88067399Y-72489444D01*
X88090957Y-72546318D01*
X88126339Y-72631737D01*
X88222593Y-72757178D01*
X88348034Y-72853432D01*
X88351817Y-72854999D01*
X88490327Y-72912372D01*
X88490328Y-72912372D01*
X88494113Y-72913940D01*
X88498175Y-72914475D01*
X88498176Y-72914475D01*
X88646811Y-72934043D01*
X88650875Y-72934578D01*
X88654939Y-72934043D01*
X88803574Y-72914475D01*
X88803575Y-72914475D01*
X88807637Y-72913940D01*
X88811422Y-72912372D01*
X88811423Y-72912372D01*
X88949933Y-72854999D01*
X88953716Y-72853432D01*
X89079157Y-72757178D01*
X89175411Y-72631737D01*
X89210793Y-72546318D01*
X89234351Y-72489444D01*
X89234351Y-72489443D01*
X89235919Y-72485658D01*
X89256557Y-72328896D01*
X89235919Y-72172134D01*
X89221176Y-72136540D01*
X89176978Y-72029838D01*
X89175411Y-72026055D01*
X89079157Y-71900614D01*
X89075912Y-71898124D01*
X89075908Y-71898120D01*
X89014209Y-71850776D01*
X88990292Y-71809349D01*
X89002673Y-71763144D01*
X89004387Y-71761189D01*
X89005417Y-71760399D01*
X89101671Y-71634958D01*
X89162179Y-71488879D01*
X89164514Y-71471147D01*
X89182282Y-71336181D01*
X89182817Y-71332117D01*
X89180976Y-71318136D01*
X89162714Y-71179418D01*
X89162714Y-71179417D01*
X89162179Y-71175355D01*
X89156388Y-71161374D01*
X89347818Y-71161374D01*
X89348353Y-71165438D01*
X89367121Y-71307992D01*
X89368456Y-71318136D01*
X89370024Y-71321921D01*
X89370024Y-71321922D01*
X89422859Y-71449476D01*
X89428964Y-71464215D01*
X89525218Y-71589656D01*
X89650659Y-71685910D01*
X89654442Y-71687477D01*
X89792952Y-71744850D01*
X89792953Y-71744850D01*
X89796738Y-71746418D01*
X89800800Y-71746953D01*
X89800801Y-71746953D01*
X89949436Y-71766521D01*
X89953500Y-71767056D01*
X89957564Y-71766521D01*
X90106199Y-71746953D01*
X90106200Y-71746953D01*
X90110262Y-71746418D01*
X90114047Y-71744850D01*
X90114048Y-71744850D01*
X90252558Y-71687477D01*
X90256341Y-71685910D01*
X90381782Y-71589656D01*
X90478036Y-71464215D01*
X90484141Y-71449476D01*
X90536976Y-71321922D01*
X90536976Y-71321921D01*
X90538544Y-71318136D01*
X90539880Y-71307992D01*
X90558647Y-71165438D01*
X90559182Y-71161374D01*
X90545949Y-71060862D01*
X90539079Y-71008675D01*
X90539079Y-71008674D01*
X90538544Y-71004612D01*
X90478036Y-70858533D01*
X90381782Y-70733092D01*
X90256341Y-70636838D01*
X90186566Y-70607936D01*
X90114048Y-70577898D01*
X90114047Y-70577898D01*
X90110262Y-70576330D01*
X90106200Y-70575795D01*
X90106199Y-70575795D01*
X89957564Y-70556227D01*
X89953500Y-70555692D01*
X89949436Y-70556227D01*
X89800801Y-70575795D01*
X89800800Y-70575795D01*
X89796738Y-70576330D01*
X89792953Y-70577898D01*
X89792952Y-70577898D01*
X89720434Y-70607936D01*
X89650659Y-70636838D01*
X89525218Y-70733092D01*
X89428964Y-70858533D01*
X89368456Y-71004612D01*
X89367921Y-71008674D01*
X89367921Y-71008675D01*
X89361051Y-71060862D01*
X89347818Y-71161374D01*
X89156388Y-71161374D01*
X89115404Y-71062429D01*
X89103238Y-71033059D01*
X89101671Y-71029276D01*
X89005417Y-70903835D01*
X88879976Y-70807581D01*
X88737854Y-70748712D01*
X88737683Y-70748641D01*
X88737682Y-70748641D01*
X88733897Y-70747073D01*
X88729835Y-70746538D01*
X88729834Y-70746538D01*
X88581199Y-70726970D01*
X88577135Y-70726435D01*
X88573071Y-70726970D01*
X88573070Y-70726970D01*
X88553562Y-70729538D01*
X88507357Y-70717157D01*
X88483440Y-70675730D01*
X88483440Y-70659416D01*
X88489147Y-70616065D01*
X88489147Y-70616064D01*
X88489682Y-70612000D01*
X88472105Y-70478488D01*
X88469579Y-70459301D01*
X88469579Y-70459300D01*
X88469044Y-70455238D01*
X88461909Y-70438011D01*
X88410103Y-70312942D01*
X88408536Y-70309159D01*
X88312282Y-70183718D01*
X88186841Y-70087464D01*
X88183058Y-70085897D01*
X88044548Y-70028524D01*
X88044547Y-70028524D01*
X88040762Y-70026956D01*
X88036700Y-70026421D01*
X88036699Y-70026421D01*
X87995802Y-70021037D01*
X87976987Y-70018560D01*
X87935560Y-69994643D01*
X87923180Y-69948437D01*
X87940951Y-69912401D01*
X88047937Y-69805415D01*
X88057407Y-69797643D01*
X88069215Y-69789753D01*
X88069216Y-69789752D01*
X88074333Y-69786333D01*
X88132683Y-69699008D01*
X88136566Y-69679489D01*
X88142942Y-69647432D01*
X89330059Y-69647432D01*
X89330594Y-69651496D01*
X89349835Y-69797643D01*
X89350697Y-69804194D01*
X89352265Y-69807979D01*
X89352265Y-69807980D01*
X89388334Y-69895058D01*
X89411205Y-69950273D01*
X89507459Y-70075714D01*
X89632900Y-70171968D01*
X89636683Y-70173535D01*
X89775193Y-70230908D01*
X89775194Y-70230908D01*
X89778979Y-70232476D01*
X89783041Y-70233011D01*
X89783042Y-70233011D01*
X89931677Y-70252579D01*
X89935741Y-70253114D01*
X89939805Y-70252579D01*
X90088440Y-70233011D01*
X90088441Y-70233011D01*
X90092503Y-70232476D01*
X90096288Y-70230908D01*
X90096289Y-70230908D01*
X90234799Y-70173535D01*
X90238582Y-70171968D01*
X90364023Y-70075714D01*
X90460277Y-69950273D01*
X90483148Y-69895058D01*
X90519217Y-69807980D01*
X90519217Y-69807979D01*
X90520785Y-69804194D01*
X90521648Y-69797643D01*
X90540888Y-69651496D01*
X90541423Y-69647432D01*
X90520785Y-69490670D01*
X90475123Y-69380431D01*
X90461844Y-69348374D01*
X90460277Y-69344591D01*
X90364023Y-69219150D01*
X90238582Y-69122896D01*
X90194257Y-69104536D01*
X90096289Y-69063956D01*
X90096288Y-69063956D01*
X90092503Y-69062388D01*
X90088441Y-69061853D01*
X90088440Y-69061853D01*
X89939805Y-69042285D01*
X89935741Y-69041750D01*
X89931677Y-69042285D01*
X89783042Y-69061853D01*
X89783041Y-69061853D01*
X89778979Y-69062388D01*
X89775194Y-69063956D01*
X89775193Y-69063956D01*
X89677225Y-69104536D01*
X89632900Y-69122896D01*
X89507459Y-69219150D01*
X89411205Y-69344591D01*
X89409638Y-69348374D01*
X89396360Y-69380431D01*
X89350697Y-69490670D01*
X89330059Y-69647432D01*
X88142942Y-69647432D01*
X88148000Y-69622002D01*
X88148000Y-69621998D01*
X88151970Y-69602038D01*
X88153171Y-69596000D01*
X88149201Y-69576040D01*
X88148000Y-69563848D01*
X88148000Y-68274898D01*
X88819164Y-68274898D01*
X88839802Y-68431660D01*
X88841370Y-68435445D01*
X88841370Y-68435446D01*
X88880554Y-68530044D01*
X88900310Y-68577739D01*
X88996564Y-68703180D01*
X89122005Y-68799434D01*
X89125788Y-68801001D01*
X89264298Y-68858374D01*
X89264299Y-68858374D01*
X89268084Y-68859942D01*
X89272146Y-68860477D01*
X89272147Y-68860477D01*
X89420782Y-68880045D01*
X89424846Y-68880580D01*
X89428910Y-68880045D01*
X89577545Y-68860477D01*
X89577546Y-68860477D01*
X89581608Y-68859942D01*
X89585393Y-68858374D01*
X89585394Y-68858374D01*
X89723904Y-68801001D01*
X89727687Y-68799434D01*
X89853128Y-68703180D01*
X89949382Y-68577739D01*
X89951933Y-68571581D01*
X89952849Y-68570665D01*
X89952998Y-68570407D01*
X89953067Y-68570447D01*
X89985757Y-68537756D01*
X90033593Y-68537755D01*
X90047723Y-68545913D01*
X90098147Y-68584605D01*
X90101931Y-68586172D01*
X90101932Y-68586173D01*
X90240440Y-68643545D01*
X90240441Y-68643545D01*
X90244226Y-68645113D01*
X90248288Y-68645648D01*
X90248289Y-68645648D01*
X90396924Y-68665216D01*
X90400988Y-68665751D01*
X90405052Y-68665216D01*
X90553687Y-68645648D01*
X90553688Y-68645648D01*
X90557750Y-68645113D01*
X90561535Y-68643545D01*
X90561536Y-68643545D01*
X90700046Y-68586172D01*
X90703829Y-68584605D01*
X90829270Y-68488351D01*
X90925524Y-68362910D01*
X90959476Y-68280942D01*
X90984464Y-68220617D01*
X90984464Y-68220616D01*
X90986032Y-68216831D01*
X90998491Y-68122199D01*
X91006135Y-68064133D01*
X91006670Y-68060069D01*
X90986032Y-67903307D01*
X90970775Y-67866472D01*
X90927091Y-67761011D01*
X90925524Y-67757228D01*
X90829270Y-67631787D01*
X90826025Y-67629297D01*
X90824339Y-67627611D01*
X90806033Y-67583417D01*
X90824339Y-67539223D01*
X90830486Y-67533832D01*
X90883692Y-67493006D01*
X90883695Y-67493003D01*
X90886940Y-67490513D01*
X90983194Y-67365072D01*
X91003131Y-67316939D01*
X91042134Y-67222779D01*
X91042134Y-67222778D01*
X91043702Y-67218993D01*
X91054296Y-67138527D01*
X91063805Y-67066295D01*
X91064340Y-67062231D01*
X91053501Y-66979902D01*
X91044237Y-66909532D01*
X91044237Y-66909531D01*
X91043702Y-66905469D01*
X91040922Y-66898756D01*
X90984761Y-66763173D01*
X90983194Y-66759390D01*
X90886940Y-66633949D01*
X90761499Y-66537695D01*
X90638686Y-66486824D01*
X90619206Y-66478755D01*
X90619205Y-66478755D01*
X90615420Y-66477187D01*
X90611358Y-66476652D01*
X90611357Y-66476652D01*
X90462722Y-66457084D01*
X90458658Y-66456549D01*
X90454594Y-66457084D01*
X90305959Y-66476652D01*
X90305958Y-66476652D01*
X90301896Y-66477187D01*
X90298111Y-66478755D01*
X90298110Y-66478755D01*
X90278630Y-66486824D01*
X90155817Y-66537695D01*
X90070227Y-66603370D01*
X90024022Y-66615750D01*
X89982595Y-66591833D01*
X89901422Y-66486046D01*
X89898932Y-66482801D01*
X89773491Y-66386547D01*
X89769708Y-66384980D01*
X89631198Y-66327607D01*
X89631197Y-66327607D01*
X89627412Y-66326039D01*
X89623350Y-66325504D01*
X89623349Y-66325504D01*
X89474714Y-66305936D01*
X89470650Y-66305401D01*
X89466586Y-66305936D01*
X89317951Y-66325504D01*
X89317950Y-66325504D01*
X89313888Y-66326039D01*
X89310103Y-66327607D01*
X89310102Y-66327607D01*
X89171592Y-66384980D01*
X89167809Y-66386547D01*
X89042368Y-66482801D01*
X88946114Y-66608242D01*
X88944547Y-66612025D01*
X88920108Y-66671027D01*
X88885606Y-66754321D01*
X88885071Y-66758383D01*
X88885071Y-66758384D01*
X88865707Y-66905469D01*
X88864968Y-66911083D01*
X88865503Y-66915147D01*
X88884047Y-67056000D01*
X88885606Y-67067845D01*
X88887174Y-67071630D01*
X88887174Y-67071631D01*
X88908364Y-67122788D01*
X88946114Y-67213924D01*
X89042368Y-67339365D01*
X89167809Y-67435619D01*
X89171592Y-67437186D01*
X89310102Y-67494559D01*
X89310103Y-67494559D01*
X89313888Y-67496127D01*
X89317950Y-67496662D01*
X89317951Y-67496662D01*
X89466586Y-67516230D01*
X89470650Y-67516765D01*
X89474714Y-67516230D01*
X89623349Y-67496662D01*
X89623350Y-67496662D01*
X89627412Y-67496127D01*
X89631197Y-67494559D01*
X89631198Y-67494559D01*
X89769708Y-67437186D01*
X89773491Y-67435619D01*
X89859081Y-67369944D01*
X89905286Y-67357564D01*
X89946713Y-67381481D01*
X89963237Y-67403016D01*
X90030376Y-67490513D01*
X90033621Y-67493003D01*
X90035307Y-67494689D01*
X90053613Y-67538883D01*
X90035307Y-67583077D01*
X90029160Y-67588468D01*
X89975954Y-67629294D01*
X89975951Y-67629297D01*
X89972706Y-67631787D01*
X89970216Y-67635032D01*
X89961845Y-67645942D01*
X89876452Y-67757228D01*
X89874885Y-67761011D01*
X89874884Y-67761013D01*
X89873901Y-67763386D01*
X89872985Y-67764302D01*
X89872836Y-67764560D01*
X89872767Y-67764520D01*
X89840077Y-67797211D01*
X89792241Y-67797212D01*
X89778110Y-67789053D01*
X89741568Y-67761013D01*
X89727687Y-67750362D01*
X89710124Y-67743087D01*
X89585394Y-67691422D01*
X89585393Y-67691422D01*
X89581608Y-67689854D01*
X89577546Y-67689319D01*
X89577545Y-67689319D01*
X89428910Y-67669751D01*
X89424846Y-67669216D01*
X89420782Y-67669751D01*
X89272147Y-67689319D01*
X89272146Y-67689319D01*
X89268084Y-67689854D01*
X89264299Y-67691422D01*
X89264298Y-67691422D01*
X89204327Y-67716263D01*
X89122005Y-67750362D01*
X89105032Y-67763386D01*
X89001853Y-67842558D01*
X88996564Y-67846616D01*
X88900310Y-67972057D01*
X88898743Y-67975840D01*
X88865538Y-68056005D01*
X88839802Y-68118136D01*
X88839267Y-68122198D01*
X88839267Y-68122199D01*
X88826809Y-68216831D01*
X88819164Y-68274898D01*
X88148000Y-68274898D01*
X88148000Y-64929152D01*
X88149201Y-64916960D01*
X88151970Y-64903038D01*
X88153171Y-64897000D01*
X88148000Y-64871002D01*
X88148000Y-64870998D01*
X88132683Y-64793992D01*
X88074333Y-64706667D01*
X88057407Y-64695357D01*
X88047937Y-64687585D01*
X86479352Y-63119000D01*
X89818318Y-63119000D01*
X89838956Y-63275762D01*
X89899464Y-63421841D01*
X89995718Y-63547282D01*
X90121159Y-63643536D01*
X90124942Y-63645103D01*
X90263452Y-63702476D01*
X90263453Y-63702476D01*
X90267238Y-63704044D01*
X90271300Y-63704579D01*
X90271301Y-63704579D01*
X90419936Y-63724147D01*
X90424000Y-63724682D01*
X90428064Y-63724147D01*
X90576699Y-63704579D01*
X90576700Y-63704579D01*
X90580762Y-63704044D01*
X90584547Y-63702476D01*
X90584548Y-63702476D01*
X90723058Y-63645103D01*
X90726841Y-63643536D01*
X90852282Y-63547282D01*
X90948536Y-63421841D01*
X91009044Y-63275762D01*
X91029682Y-63119000D01*
X91009044Y-62962238D01*
X91000680Y-62942044D01*
X90950103Y-62819942D01*
X90948536Y-62816159D01*
X90852282Y-62690718D01*
X90726841Y-62594464D01*
X90665409Y-62569018D01*
X90584548Y-62535524D01*
X90584547Y-62535524D01*
X90580762Y-62533956D01*
X90576700Y-62533421D01*
X90576699Y-62533421D01*
X90428064Y-62513853D01*
X90424000Y-62513318D01*
X90419936Y-62513853D01*
X90271301Y-62533421D01*
X90271300Y-62533421D01*
X90267238Y-62533956D01*
X90263453Y-62535524D01*
X90263452Y-62535524D01*
X90182591Y-62569018D01*
X90121159Y-62594464D01*
X89995718Y-62690718D01*
X89899464Y-62816159D01*
X89897897Y-62819942D01*
X89847321Y-62942044D01*
X89838956Y-62962238D01*
X89818318Y-63119000D01*
X86479352Y-63119000D01*
X85553415Y-62193063D01*
X85545643Y-62183593D01*
X85537753Y-62171785D01*
X85537752Y-62171784D01*
X85534333Y-62166667D01*
X85447008Y-62108317D01*
X85440972Y-62107116D01*
X85440971Y-62107116D01*
X85370002Y-62093000D01*
X85350038Y-62089029D01*
X85344000Y-62087828D01*
X85337962Y-62089029D01*
X85324036Y-62091799D01*
X85311843Y-62093000D01*
X84529386Y-62093000D01*
X84485192Y-62074694D01*
X84476027Y-62060985D01*
X84475152Y-62061490D01*
X84473101Y-62057938D01*
X84471536Y-62054159D01*
X84375282Y-61928718D01*
X84342417Y-61903500D01*
X86914930Y-61903500D01*
X86915465Y-61907564D01*
X86934765Y-62054159D01*
X86935568Y-62060262D01*
X86937136Y-62064047D01*
X86937136Y-62064048D01*
X86955473Y-62108317D01*
X86996076Y-62206341D01*
X87092330Y-62331782D01*
X87217771Y-62428036D01*
X87221554Y-62429603D01*
X87360064Y-62486976D01*
X87360065Y-62486976D01*
X87363850Y-62488544D01*
X87367912Y-62489079D01*
X87367913Y-62489079D01*
X87516548Y-62508647D01*
X87520612Y-62509182D01*
X87524676Y-62508647D01*
X87673311Y-62489079D01*
X87673312Y-62489079D01*
X87677374Y-62488544D01*
X87681159Y-62486976D01*
X87681160Y-62486976D01*
X87819670Y-62429603D01*
X87823453Y-62428036D01*
X87948894Y-62331782D01*
X88045148Y-62206341D01*
X88085751Y-62108317D01*
X88104088Y-62064048D01*
X88104088Y-62064047D01*
X88105656Y-62060262D01*
X88106460Y-62054159D01*
X88125759Y-61907564D01*
X88126294Y-61903500D01*
X88109257Y-61774087D01*
X88106191Y-61750801D01*
X88106191Y-61750800D01*
X88105656Y-61746738D01*
X88045148Y-61600659D01*
X87948894Y-61475218D01*
X87823453Y-61378964D01*
X87819670Y-61377397D01*
X87681160Y-61320024D01*
X87681159Y-61320024D01*
X87677374Y-61318456D01*
X87673312Y-61317921D01*
X87673311Y-61317921D01*
X87524676Y-61298353D01*
X87520612Y-61297818D01*
X87516548Y-61298353D01*
X87367913Y-61317921D01*
X87367912Y-61317921D01*
X87363850Y-61318456D01*
X87360065Y-61320024D01*
X87360064Y-61320024D01*
X87221554Y-61377397D01*
X87217771Y-61378964D01*
X87092330Y-61475218D01*
X86996076Y-61600659D01*
X86935568Y-61746738D01*
X86935033Y-61750800D01*
X86935033Y-61750801D01*
X86931967Y-61774087D01*
X86914930Y-61903500D01*
X84342417Y-61903500D01*
X84249841Y-61832464D01*
X84108907Y-61774087D01*
X84107548Y-61773524D01*
X84107547Y-61773524D01*
X84103762Y-61771956D01*
X84099700Y-61771421D01*
X84099699Y-61771421D01*
X83951064Y-61751853D01*
X83947000Y-61751318D01*
X83942936Y-61751853D01*
X83794301Y-61771421D01*
X83794300Y-61771421D01*
X83790238Y-61771956D01*
X83786453Y-61773524D01*
X83786452Y-61773524D01*
X83785093Y-61774087D01*
X83644159Y-61832464D01*
X83518718Y-61928718D01*
X83422464Y-62054159D01*
X83420897Y-62057942D01*
X83368851Y-62183593D01*
X83361956Y-62200238D01*
X83361421Y-62204300D01*
X83361421Y-62204301D01*
X83360725Y-62209587D01*
X83341318Y-62357000D01*
X76273500Y-62357000D01*
X76273500Y-60706000D01*
X82198318Y-60706000D01*
X82218956Y-60862762D01*
X82220524Y-60866547D01*
X82220524Y-60866548D01*
X82251735Y-60941897D01*
X82279464Y-61008841D01*
X82375718Y-61134282D01*
X82501159Y-61230536D01*
X82504942Y-61232103D01*
X82643452Y-61289476D01*
X82643453Y-61289476D01*
X82647238Y-61291044D01*
X82651300Y-61291579D01*
X82651301Y-61291579D01*
X82799936Y-61311147D01*
X82804000Y-61311682D01*
X82808064Y-61311147D01*
X82956699Y-61291579D01*
X82956700Y-61291579D01*
X82960762Y-61291044D01*
X82964547Y-61289476D01*
X82964548Y-61289476D01*
X83103058Y-61232103D01*
X83106841Y-61230536D01*
X83232282Y-61134282D01*
X83328536Y-61008841D01*
X83356265Y-60941897D01*
X83387476Y-60866548D01*
X83387476Y-60866547D01*
X83389044Y-60862762D01*
X83409682Y-60706000D01*
X83397132Y-60610676D01*
X83389579Y-60553301D01*
X83389579Y-60553300D01*
X83389044Y-60549238D01*
X83351242Y-60457977D01*
X89668984Y-60457977D01*
X89689622Y-60614739D01*
X89750130Y-60760818D01*
X89752621Y-60764064D01*
X89843850Y-60882956D01*
X89846384Y-60886259D01*
X89971825Y-60982513D01*
X89975608Y-60984080D01*
X90057282Y-61017911D01*
X90091107Y-61051736D01*
X90091106Y-61099571D01*
X90082949Y-61113701D01*
X90043464Y-61165159D01*
X90041897Y-61168942D01*
X89991321Y-61291044D01*
X89982956Y-61311238D01*
X89962318Y-61468000D01*
X89982956Y-61624762D01*
X90043464Y-61770841D01*
X90139718Y-61896282D01*
X90265159Y-61992536D01*
X90268942Y-61994103D01*
X90407452Y-62051476D01*
X90407453Y-62051476D01*
X90411238Y-62053044D01*
X90415300Y-62053579D01*
X90415301Y-62053579D01*
X90563936Y-62073147D01*
X90568000Y-62073682D01*
X90572064Y-62073147D01*
X90720699Y-62053579D01*
X90720700Y-62053579D01*
X90724762Y-62053044D01*
X90728547Y-62051476D01*
X90728548Y-62051476D01*
X90867058Y-61994103D01*
X90870841Y-61992536D01*
X90996282Y-61896282D01*
X91092536Y-61770841D01*
X91153044Y-61624762D01*
X91173682Y-61468000D01*
X91153044Y-61311238D01*
X91144680Y-61291044D01*
X91094103Y-61168942D01*
X91092536Y-61165159D01*
X91000585Y-61045326D01*
X90998772Y-61042963D01*
X90996282Y-61039718D01*
X90870841Y-60943464D01*
X90867058Y-60941897D01*
X90785384Y-60908066D01*
X90751559Y-60874241D01*
X90751560Y-60826406D01*
X90759717Y-60812276D01*
X90796711Y-60764064D01*
X90799202Y-60760818D01*
X90800966Y-60756559D01*
X90801150Y-60756375D01*
X90802816Y-60753489D01*
X90803589Y-60753935D01*
X90834785Y-60722732D01*
X90882621Y-60722726D01*
X90912838Y-60749223D01*
X90913896Y-60751056D01*
X90915464Y-60754841D01*
X91011718Y-60880282D01*
X91137159Y-60976536D01*
X91140942Y-60978103D01*
X91279452Y-61035476D01*
X91279453Y-61035476D01*
X91283238Y-61037044D01*
X91287300Y-61037579D01*
X91287301Y-61037579D01*
X91435936Y-61057147D01*
X91440000Y-61057682D01*
X91444064Y-61057147D01*
X91592699Y-61037579D01*
X91592700Y-61037579D01*
X91596762Y-61037044D01*
X91600547Y-61035476D01*
X91600548Y-61035476D01*
X91739058Y-60978103D01*
X91742841Y-60976536D01*
X91868282Y-60880282D01*
X91964536Y-60754841D01*
X91977836Y-60722732D01*
X92023476Y-60612548D01*
X92023476Y-60612547D01*
X92025044Y-60608762D01*
X92032881Y-60549238D01*
X92045147Y-60456064D01*
X92045682Y-60452000D01*
X92025044Y-60295238D01*
X91964536Y-60149159D01*
X91868282Y-60023718D01*
X91742841Y-59927464D01*
X91739058Y-59925897D01*
X91600548Y-59868524D01*
X91600547Y-59868524D01*
X91596762Y-59866956D01*
X91592700Y-59866421D01*
X91592699Y-59866421D01*
X91444064Y-59846853D01*
X91440000Y-59846318D01*
X91435936Y-59846853D01*
X91287301Y-59866421D01*
X91287300Y-59866421D01*
X91283238Y-59866956D01*
X91279453Y-59868524D01*
X91279452Y-59868524D01*
X91140942Y-59925897D01*
X91137159Y-59927464D01*
X91011718Y-60023718D01*
X90915464Y-60149159D01*
X90913700Y-60153418D01*
X90913516Y-60153602D01*
X90911850Y-60156488D01*
X90911077Y-60156042D01*
X90879881Y-60187245D01*
X90832045Y-60187251D01*
X90801828Y-60160754D01*
X90800769Y-60158919D01*
X90799202Y-60155136D01*
X90702948Y-60029695D01*
X90577507Y-59933441D01*
X90559294Y-59925897D01*
X90435214Y-59874501D01*
X90435213Y-59874501D01*
X90431428Y-59872933D01*
X90427366Y-59872398D01*
X90427365Y-59872398D01*
X90278730Y-59852830D01*
X90274666Y-59852295D01*
X90270602Y-59852830D01*
X90121967Y-59872398D01*
X90121966Y-59872398D01*
X90117904Y-59872933D01*
X90114119Y-59874501D01*
X90114118Y-59874501D01*
X89990038Y-59925897D01*
X89971825Y-59933441D01*
X89846384Y-60029695D01*
X89750130Y-60155136D01*
X89748563Y-60158919D01*
X89698011Y-60280963D01*
X89689622Y-60301215D01*
X89668984Y-60457977D01*
X83351242Y-60457977D01*
X83328536Y-60403159D01*
X83232282Y-60277718D01*
X83106841Y-60181464D01*
X83043280Y-60155136D01*
X82964548Y-60122524D01*
X82964547Y-60122524D01*
X82960762Y-60120956D01*
X82956700Y-60120421D01*
X82956699Y-60120421D01*
X82808064Y-60100853D01*
X82804000Y-60100318D01*
X82799936Y-60100853D01*
X82651301Y-60120421D01*
X82651300Y-60120421D01*
X82647238Y-60120956D01*
X82643453Y-60122524D01*
X82643452Y-60122524D01*
X82564720Y-60155136D01*
X82501159Y-60181464D01*
X82375718Y-60277718D01*
X82279464Y-60403159D01*
X82218956Y-60549238D01*
X82218421Y-60553300D01*
X82218421Y-60553301D01*
X82210868Y-60610676D01*
X82198318Y-60706000D01*
X76273500Y-60706000D01*
X76273500Y-59572000D01*
X76291806Y-59527806D01*
X76336000Y-59509500D01*
X92320000Y-59509500D01*
X92364194Y-59527806D01*
G37*
G04 #@! TD.AperFunction*
M02*
