G04 #@! TF.GenerationSoftware,KiCad,Pcbnew,6.0.10-86aedd382b~118~ubuntu22.04.1*
G04 #@! TF.CreationDate,2023-02-01T12:07:48+01:00*
G04 #@! TF.ProjectId,rpcube,72706375-6265-42e6-9b69-6361645f7063,rev?*
G04 #@! TF.SameCoordinates,Original*
G04 #@! TF.FileFunction,Legend,Top*
G04 #@! TF.FilePolarity,Positive*
%FSLAX46Y46*%
G04 Gerber Fmt 4.6, Leading zero omitted, Abs format (unit mm)*
G04 Created by KiCad (PCBNEW 6.0.10-86aedd382b~118~ubuntu22.04.1) date 2023-02-01 12:07:48*
%MOMM*%
%LPD*%
G01*
G04 APERTURE LIST*
G04 Aperture macros list*
%AMRoundRect*
0 Rectangle with rounded corners*
0 $1 Rounding radius*
0 $2 $3 $4 $5 $6 $7 $8 $9 X,Y pos of 4 corners*
0 Add a 4 corners polygon primitive as box body*
4,1,4,$2,$3,$4,$5,$6,$7,$8,$9,$2,$3,0*
0 Add four circle primitives for the rounded corners*
1,1,$1+$1,$2,$3*
1,1,$1+$1,$4,$5*
1,1,$1+$1,$6,$7*
1,1,$1+$1,$8,$9*
0 Add four rect primitives between the rounded corners*
20,1,$1+$1,$2,$3,$4,$5,0*
20,1,$1+$1,$4,$5,$6,$7,0*
20,1,$1+$1,$6,$7,$8,$9,0*
20,1,$1+$1,$8,$9,$2,$3,0*%
G04 Aperture macros list end*
%ADD10C,0.120000*%
%ADD11C,0.127000*%
%ADD12C,0.200000*%
%ADD13RoundRect,0.140000X0.219203X0.021213X0.021213X0.219203X-0.219203X-0.021213X-0.021213X-0.219203X0*%
%ADD14RoundRect,0.135000X-0.135000X-0.185000X0.135000X-0.185000X0.135000X0.185000X-0.135000X0.185000X0*%
%ADD15RoundRect,0.140000X-0.170000X0.140000X-0.170000X-0.140000X0.170000X-0.140000X0.170000X0.140000X0*%
%ADD16RoundRect,0.135000X-0.185000X0.135000X-0.185000X-0.135000X0.185000X-0.135000X0.185000X0.135000X0*%
%ADD17RoundRect,0.140000X0.140000X0.170000X-0.140000X0.170000X-0.140000X-0.170000X0.140000X-0.170000X0*%
%ADD18RoundRect,0.140000X0.170000X-0.140000X0.170000X0.140000X-0.170000X0.140000X-0.170000X-0.140000X0*%
%ADD19RoundRect,0.150000X0.150000X-0.512500X0.150000X0.512500X-0.150000X0.512500X-0.150000X-0.512500X0*%
%ADD20RoundRect,0.140000X-0.140000X-0.170000X0.140000X-0.170000X0.140000X0.170000X-0.140000X0.170000X0*%
%ADD21R,1.150000X1.000000*%
%ADD22RoundRect,0.050000X-0.387500X-0.050000X0.387500X-0.050000X0.387500X0.050000X-0.387500X0.050000X0*%
%ADD23RoundRect,0.050000X-0.050000X-0.387500X0.050000X-0.387500X0.050000X0.387500X-0.050000X0.387500X0*%
%ADD24RoundRect,0.137160X-1.386840X-1.386840X1.386840X-1.386840X1.386840X1.386840X-1.386840X1.386840X0*%
%ADD25RoundRect,0.225000X0.250000X-0.225000X0.250000X0.225000X-0.250000X0.225000X-0.250000X-0.225000X0*%
%ADD26RoundRect,0.135000X0.135000X0.185000X-0.135000X0.185000X-0.135000X-0.185000X0.135000X-0.185000X0*%
%ADD27R,0.300000X0.600000*%
%ADD28R,1.700000X0.300000*%
G04 APERTURE END LIST*
D10*
X84658810Y-61035693D02*
X84506307Y-60883190D01*
X84149693Y-61544810D02*
X83997190Y-61392307D01*
X78205358Y-64935633D02*
X78512640Y-64935633D01*
X78205358Y-65695633D02*
X78512640Y-65695633D01*
X76729000Y-69488164D02*
X76729000Y-69703836D01*
X77449000Y-69488164D02*
X77449000Y-69703836D01*
X77249593Y-65239827D02*
X77249593Y-65547109D01*
X76489593Y-65239827D02*
X76489593Y-65547109D01*
X88400836Y-63098000D02*
X88185164Y-63098000D01*
X88400836Y-62378000D02*
X88185164Y-62378000D01*
X87091618Y-62424790D02*
X87091618Y-62209118D01*
X86371618Y-62424790D02*
X86371618Y-62209118D01*
X92111000Y-73533000D02*
X92111000Y-72733000D01*
X92111000Y-73533000D02*
X92111000Y-74333000D01*
X88991000Y-73533000D02*
X88991000Y-72733000D01*
X88991000Y-73533000D02*
X88991000Y-75333000D01*
X89554164Y-63394000D02*
X89769836Y-63394000D01*
X89554164Y-64114000D02*
X89769836Y-64114000D01*
X91207000Y-68306836D02*
X91207000Y-68091164D01*
X91927000Y-68306836D02*
X91927000Y-68091164D01*
X86085000Y-73707164D02*
X86085000Y-73922836D01*
X85365000Y-73707164D02*
X85365000Y-73922836D01*
X79355836Y-68813000D02*
X79140164Y-68813000D01*
X79355836Y-68093000D02*
X79140164Y-68093000D01*
X80497000Y-73767836D02*
X80497000Y-73552164D01*
X79777000Y-73767836D02*
X79777000Y-73552164D01*
X84073000Y-75441000D02*
X84073000Y-72641000D01*
X84073000Y-72641000D02*
X80773000Y-72641000D01*
X89554164Y-65130000D02*
X89769836Y-65130000D01*
X89554164Y-64410000D02*
X89769836Y-64410000D01*
X91205164Y-71353000D02*
X91420836Y-71353000D01*
X91205164Y-70633000D02*
X91420836Y-70633000D01*
X88065000Y-63827000D02*
X88065000Y-64477000D01*
X87415000Y-71047000D02*
X88065000Y-71047000D01*
X87415000Y-63827000D02*
X88065000Y-63827000D01*
X88065000Y-71047000D02*
X88065000Y-70397000D01*
X80845000Y-71047000D02*
X80845000Y-70397000D01*
X81495000Y-71047000D02*
X80845000Y-71047000D01*
X81495000Y-63827000D02*
X80845000Y-63827000D01*
X85089000Y-73599359D02*
X85089000Y-73906641D01*
X84329000Y-73599359D02*
X84329000Y-73906641D01*
X91205164Y-70337000D02*
X91420836Y-70337000D01*
X91205164Y-69617000D02*
X91420836Y-69617000D01*
X87142650Y-74568164D02*
X87142650Y-74783836D01*
X86422650Y-74568164D02*
X86422650Y-74783836D01*
X88521000Y-74308580D02*
X88521000Y-74027420D01*
X87501000Y-74308580D02*
X87501000Y-74027420D01*
X89053641Y-61215000D02*
X88746359Y-61215000D01*
X89053641Y-61975000D02*
X88746359Y-61975000D01*
X85073103Y-74903890D02*
X85288775Y-74903890D01*
X85073103Y-75623890D02*
X85288775Y-75623890D01*
X89053641Y-60959000D02*
X88746359Y-60959000D01*
X89053641Y-60199000D02*
X88746359Y-60199000D01*
X81045164Y-60473000D02*
X81260836Y-60473000D01*
X81045164Y-61193000D02*
X81260836Y-61193000D01*
X83896810Y-61797693D02*
X83744307Y-61645190D01*
X83387693Y-62306810D02*
X83235190Y-62154307D01*
D11*
X78724000Y-63114000D02*
X78724000Y-62954000D01*
X76724000Y-61854000D02*
X76724000Y-62014000D01*
X78724000Y-61854000D02*
X78724000Y-62014000D01*
X76724000Y-63114000D02*
X76724000Y-62954000D01*
D12*
X76681000Y-64135000D02*
G75*
G03*
X76681000Y-64135000I-100000J0D01*
G01*
%LPC*%
D13*
X84667411Y-61553411D03*
X83988589Y-60874589D03*
D14*
X77848999Y-65315633D03*
X78868999Y-65315633D03*
D15*
X77089000Y-69116000D03*
X77089000Y-70076000D03*
D16*
X76869593Y-64883468D03*
X76869593Y-65903468D03*
D17*
X88773000Y-62738000D03*
X87813000Y-62738000D03*
D18*
X86731618Y-62796954D03*
X86731618Y-61836954D03*
D19*
X89601000Y-74670500D03*
X90551000Y-74670500D03*
X91501000Y-74670500D03*
X91501000Y-72395500D03*
X89601000Y-72395500D03*
D20*
X89182000Y-63754000D03*
X90142000Y-63754000D03*
D18*
X91567000Y-68679000D03*
X91567000Y-67719000D03*
D15*
X85725000Y-73335000D03*
X85725000Y-74295000D03*
D17*
X79728000Y-68453000D03*
X78768000Y-68453000D03*
D18*
X80137000Y-74140000D03*
X80137000Y-73180000D03*
D21*
X83298000Y-73341000D03*
X81548000Y-73341000D03*
X81548000Y-74741000D03*
X83298000Y-74741000D03*
D20*
X89182000Y-64770000D03*
X90142000Y-64770000D03*
X90833000Y-70993000D03*
X91793000Y-70993000D03*
D22*
X81017500Y-64837000D03*
X81017500Y-65237000D03*
X81017500Y-65637000D03*
X81017500Y-66037000D03*
X81017500Y-66437000D03*
X81017500Y-66837000D03*
X81017500Y-67237000D03*
X81017500Y-67637000D03*
X81017500Y-68037000D03*
X81017500Y-68437000D03*
X81017500Y-68837000D03*
X81017500Y-69237000D03*
X81017500Y-69637000D03*
X81017500Y-70037000D03*
D23*
X81855000Y-70874500D03*
X82255000Y-70874500D03*
X82655000Y-70874500D03*
X83055000Y-70874500D03*
X83455000Y-70874500D03*
X83855000Y-70874500D03*
X84255000Y-70874500D03*
X84655000Y-70874500D03*
X85055000Y-70874500D03*
X85455000Y-70874500D03*
X85855000Y-70874500D03*
X86255000Y-70874500D03*
X86655000Y-70874500D03*
X87055000Y-70874500D03*
D22*
X87892500Y-70037000D03*
X87892500Y-69637000D03*
X87892500Y-69237000D03*
X87892500Y-68837000D03*
X87892500Y-68437000D03*
X87892500Y-68037000D03*
X87892500Y-67637000D03*
X87892500Y-67237000D03*
X87892500Y-66837000D03*
X87892500Y-66437000D03*
X87892500Y-66037000D03*
X87892500Y-65637000D03*
X87892500Y-65237000D03*
X87892500Y-64837000D03*
D23*
X87055000Y-63999500D03*
X86655000Y-63999500D03*
X86255000Y-63999500D03*
X85855000Y-63999500D03*
X85455000Y-63999500D03*
X85055000Y-63999500D03*
X84655000Y-63999500D03*
X84255000Y-63999500D03*
X83855000Y-63999500D03*
X83455000Y-63999500D03*
X83055000Y-63999500D03*
X82655000Y-63999500D03*
X82255000Y-63999500D03*
X81855000Y-63999500D03*
D24*
X84455000Y-67437000D03*
D16*
X84709000Y-73243000D03*
X84709000Y-74263000D03*
D20*
X90833000Y-69977000D03*
X91793000Y-69977000D03*
D15*
X86782650Y-74196000D03*
X86782650Y-75156000D03*
D25*
X88011000Y-74943000D03*
X88011000Y-73393000D03*
D26*
X89410000Y-61595000D03*
X88390000Y-61595000D03*
D20*
X84700939Y-75263890D03*
X85660939Y-75263890D03*
D26*
X89410000Y-60579000D03*
X88390000Y-60579000D03*
D20*
X80673000Y-60833000D03*
X81633000Y-60833000D03*
D13*
X83905411Y-62315411D03*
X83226589Y-61636589D03*
D27*
X76974000Y-63734000D03*
X77474000Y-63734000D03*
X77974000Y-63734000D03*
X78474000Y-63734000D03*
X78474000Y-61234000D03*
X77974000Y-61234000D03*
X77474000Y-61234000D03*
X76974000Y-61234000D03*
D28*
X77724000Y-62484000D03*
M02*
