M48
; DRILL file {KiCad 6.0.10-86aedd382b~118~ubuntu22.04.1} date Wed 01 Feb 2023 12:08:23 PM CET
; FORMAT={-:-/ absolute / metric / decimal}
; #@! TF.CreationDate,2023-02-01T12:08:23+01:00
; #@! TF.GenerationSoftware,Kicad,Pcbnew,6.0.10-86aedd382b~118~ubuntu22.04.1
; #@! TF.FileFunction,Plated,1,4,PTH
FMAT,2
METRIC
; #@! TA.AperFunction,Plated,PTH,ViaDrill
T1C0.400
%
G90
G05
T1
X76.708Y-73.66
X76.809Y-60.628
X76.846Y-67.504
X77.216Y-71.712
X78.157Y-69.319
X78.189Y-70.318
X78.232Y-67.056
X78.232Y-73.787
X78.234Y-75.093
X78.571Y-71.967
X79.152Y-69.22
X79.516Y-63.154
X79.607Y-65.961
X79.85Y-67.543
X79.883Y-60.452
X79.997Y-65.04
X80.174Y-70.536
X80.373Y-75.028
X80.772Y-73.152
X81.026Y-64.262
X82.056Y-69.833
X82.248Y-66.824
X82.296Y-65.037
X82.296Y-67.945
X82.804Y-60.706
X83.298Y-74.741
X83.312Y-66.548
X83.82Y-69.596
X83.947Y-62.357
X84.074Y-65.313
X84.455Y-67.437
X84.963Y-60.543
X85.344Y-66.548
X85.344Y-68.58
X85.405Y-72.581
X85.857Y-69.679
X86.607Y-73.673
X86.737Y-65.653
X86.855Y-69.596
X86.856Y-67.564
X87.27Y-72.372
X87.521Y-61.903
X87.884Y-70.612
X88.393Y-63.502
X88.577Y-71.332
X88.651Y-72.329
X89.408Y-74.676
X89.425Y-68.275
X89.471Y-66.911
X89.936Y-69.647
X89.953Y-71.161
X90.275Y-60.458
X90.401Y-68.06
X90.424Y-63.119
X90.459Y-67.062
X90.543Y-73.299
X90.568Y-61.468
X90.935Y-69.63
X91.44Y-60.452
X91.45Y-74.676
X91.846Y-63.511
X91.856Y-70.866
T0
M30
