G04 #@! TF.GenerationSoftware,KiCad,Pcbnew,6.0.10-86aedd382b~118~ubuntu22.04.1*
G04 #@! TF.CreationDate,2023-02-01T12:07:48+01:00*
G04 #@! TF.ProjectId,rpcube,72706375-6265-42e6-9b69-6361645f7063,rev?*
G04 #@! TF.SameCoordinates,Original*
G04 #@! TF.FileFunction,Copper,L4,Bot*
G04 #@! TF.FilePolarity,Positive*
%FSLAX46Y46*%
G04 Gerber Fmt 4.6, Leading zero omitted, Abs format (unit mm)*
G04 Created by KiCad (PCBNEW 6.0.10-86aedd382b~118~ubuntu22.04.1) date 2023-02-01 12:07:48*
%MOMM*%
%LPD*%
G01*
G04 APERTURE LIST*
G04 #@! TA.AperFunction,SMDPad,CuDef*
%ADD10C,1.000000*%
G04 #@! TD*
G04 #@! TA.AperFunction,ViaPad*
%ADD11C,0.800000*%
G04 #@! TD*
G04 #@! TA.AperFunction,Conductor*
%ADD12C,0.127000*%
G04 #@! TD*
G04 #@! TA.AperFunction,Conductor*
%ADD13C,0.300000*%
G04 #@! TD*
G04 APERTURE END LIST*
D10*
X77216000Y-60452000D03*
X81280000Y-70612000D03*
X85344000Y-66548000D03*
X89408000Y-60452000D03*
X79248000Y-74676000D03*
X91440000Y-62484000D03*
X77216000Y-66548000D03*
X77216000Y-72644000D03*
X91440000Y-70612000D03*
X87376000Y-66548000D03*
X91440000Y-64516000D03*
X87376000Y-60452000D03*
X83312000Y-68580000D03*
X79248000Y-66548000D03*
X77216000Y-62484000D03*
X77216000Y-74676000D03*
X87376000Y-70612000D03*
X81280000Y-60452000D03*
X77216000Y-70612000D03*
X79248000Y-62484000D03*
X83312000Y-64516000D03*
X83312000Y-62484000D03*
X79248000Y-60452000D03*
X87376000Y-62484000D03*
X87376000Y-64516000D03*
X89408000Y-74676000D03*
X89281000Y-64516000D03*
X87376000Y-72644000D03*
X91440000Y-68580000D03*
X83312000Y-72644000D03*
X83312000Y-74676000D03*
X79248000Y-64516000D03*
X89408000Y-72644000D03*
X81280000Y-68580000D03*
X83312000Y-70612000D03*
X79248000Y-72644000D03*
X85344000Y-68580000D03*
X77216000Y-68580000D03*
X81280000Y-64516000D03*
X83312000Y-66548000D03*
X91440000Y-66548000D03*
X85344000Y-72644000D03*
X77216000Y-64516000D03*
X87376000Y-68580000D03*
X81280000Y-72644000D03*
X81280000Y-62484000D03*
X87376000Y-74676000D03*
X85344000Y-62484000D03*
X83312000Y-60452000D03*
X85344000Y-60452000D03*
X85344000Y-74676000D03*
X91440000Y-72644000D03*
X89408000Y-68580000D03*
X85344000Y-64516000D03*
X79248000Y-70612000D03*
X79248000Y-68580000D03*
X89408000Y-62484000D03*
X81280000Y-66548000D03*
X85344000Y-70612000D03*
X89408000Y-66548000D03*
X91440000Y-74676000D03*
X89408000Y-70612000D03*
X81280000Y-74676000D03*
X91440000Y-60452000D03*
D11*
X80772000Y-73152000D03*
X84455000Y-67437000D03*
X91856500Y-70866000D03*
X83312000Y-66548000D03*
X83298000Y-74741000D03*
X85344000Y-66548000D03*
X79515562Y-63154062D03*
X82804000Y-60706000D03*
X87520612Y-61903500D03*
X76708000Y-73660000D03*
X90424000Y-63119000D03*
X79151521Y-69219949D03*
X85344000Y-68580000D03*
X89408000Y-74676000D03*
X91450500Y-74676000D03*
X90542801Y-73298860D03*
X78156932Y-69318938D03*
X85405355Y-72580736D03*
X88393483Y-63502000D03*
X90935085Y-69629633D03*
X81026000Y-64262000D03*
X79883000Y-60452000D03*
X76808588Y-60627809D03*
X84963000Y-60543500D03*
X86607387Y-73673409D03*
X83947000Y-62357000D03*
X76845938Y-67504438D03*
X87270387Y-72372179D03*
X83820000Y-69596000D03*
X85857113Y-69679489D03*
X82296000Y-65036500D03*
X84074000Y-65313500D03*
X79996864Y-65040209D03*
X79607426Y-65960721D03*
X78232000Y-67056000D03*
X82247631Y-66823726D03*
X79850005Y-67543500D03*
X82296000Y-67945000D03*
X82055792Y-69832864D03*
X78188550Y-70317940D03*
X77216000Y-71711503D03*
X80173547Y-70536326D03*
X78570740Y-71966740D03*
X78232000Y-73787000D03*
X78233562Y-75092500D03*
X80373498Y-75028150D03*
X88650875Y-72328896D03*
X88577135Y-71332117D03*
X87884000Y-70612000D03*
X89953500Y-71161374D03*
X86855500Y-69596000D03*
X89935741Y-69647432D03*
X86855922Y-67563564D03*
X89424846Y-68274898D03*
X90400988Y-68060069D03*
X89470650Y-66911083D03*
X90458658Y-67062231D03*
X86736927Y-65653298D03*
X91845752Y-63511029D03*
X91440000Y-60452000D03*
X90274666Y-60457977D03*
X90568000Y-61468000D03*
D12*
X83312000Y-74676000D02*
X83312000Y-74727000D01*
X83312000Y-66548000D02*
X84201000Y-67437000D01*
X84201000Y-67437000D02*
X84455000Y-67437000D01*
X83312000Y-74727000D02*
X83298000Y-74741000D01*
D13*
X87376000Y-74676000D02*
X91440000Y-74676000D01*
D12*
X87376000Y-64516000D02*
X88390000Y-63502000D01*
X88390000Y-63502000D02*
X88393483Y-63502000D01*
X85344000Y-74676000D02*
X86346591Y-73673409D01*
X86346591Y-73673409D02*
X86607387Y-73673409D01*
X76845938Y-67504438D02*
X76845938Y-66918062D01*
X76845938Y-66918062D02*
X77216000Y-66548000D01*
X87270387Y-72538387D02*
X87376000Y-72644000D01*
X87270387Y-72372179D02*
X87270387Y-72538387D01*
X83312000Y-70104000D02*
X83312000Y-70612000D01*
X83820000Y-69596000D02*
X83312000Y-70104000D01*
X85857113Y-70098887D02*
X85344000Y-70612000D01*
X85857113Y-69679489D02*
X85857113Y-70098887D01*
X82296000Y-65036500D02*
X82791500Y-65036500D01*
X82791500Y-65036500D02*
X83312000Y-64516000D01*
X84074000Y-65313500D02*
X84546500Y-65313500D01*
X84546500Y-65313500D02*
X85344000Y-64516000D01*
X79996864Y-65040209D02*
X79772209Y-65040209D01*
X79772209Y-65040209D02*
X79248000Y-64516000D01*
X79607426Y-66188574D02*
X79248000Y-66548000D01*
X79607426Y-65960721D02*
X79607426Y-66188574D01*
X78232000Y-67056000D02*
X77216000Y-68072000D01*
X77216000Y-68072000D02*
X77216000Y-68580000D01*
X82247631Y-66823726D02*
X81971905Y-66548000D01*
X81971905Y-66548000D02*
X81280000Y-66548000D01*
X79850005Y-67543500D02*
X80243500Y-67543500D01*
X80243500Y-67543500D02*
X81280000Y-68580000D01*
X82931000Y-68580000D02*
X83312000Y-68580000D01*
X82296000Y-67945000D02*
X82931000Y-68580000D01*
X82055792Y-69836208D02*
X81280000Y-70612000D01*
X82055792Y-69832864D02*
X82055792Y-69836208D01*
X77894490Y-70612000D02*
X77216000Y-70612000D01*
X78188550Y-70317940D02*
X77894490Y-70612000D01*
X77216000Y-71711503D02*
X77216000Y-72644000D01*
X80097873Y-70612000D02*
X79248000Y-70612000D01*
X80173547Y-70536326D02*
X80097873Y-70612000D01*
X78570740Y-71966740D02*
X79248000Y-72644000D01*
X78232000Y-73787000D02*
X78105000Y-73787000D01*
X78105000Y-73787000D02*
X77216000Y-74676000D01*
X78233562Y-75092500D02*
X78831500Y-75092500D01*
X78831500Y-75092500D02*
X79248000Y-74676000D01*
X80373498Y-75028150D02*
X80725648Y-74676000D01*
X80725648Y-74676000D02*
X81661000Y-74676000D01*
X89092896Y-72328896D02*
X89408000Y-72644000D01*
X88650875Y-72328896D02*
X89092896Y-72328896D01*
X88577135Y-71332117D02*
X88592427Y-71332117D01*
X88592427Y-71332117D02*
X89140810Y-71880500D01*
X90646376Y-72644000D02*
X91440000Y-72644000D01*
X89882876Y-71880500D02*
X90646376Y-72644000D01*
X89140810Y-71880500D02*
X89882876Y-71880500D01*
X87884000Y-70612000D02*
X87376000Y-70612000D01*
X89953500Y-71157500D02*
X89408000Y-70612000D01*
X89953500Y-71161374D02*
X89953500Y-71157500D01*
X86855500Y-69596000D02*
X86855500Y-69100500D01*
X86855500Y-69100500D02*
X87376000Y-68580000D01*
X89935741Y-69647432D02*
X91003173Y-68580000D01*
X91003173Y-68580000D02*
X91440000Y-68580000D01*
X86855922Y-67068078D02*
X87376000Y-66548000D01*
X86855922Y-67563564D02*
X86855922Y-67068078D01*
X89424846Y-68274898D02*
X89408000Y-68291744D01*
X89408000Y-68291744D02*
X89408000Y-68580000D01*
X90400988Y-68060069D02*
X90689931Y-68060069D01*
X90689931Y-68060069D02*
X91440000Y-67310000D01*
X91440000Y-67310000D02*
X91440000Y-66548000D01*
X90458658Y-64296658D02*
X89408000Y-63246000D01*
X89408000Y-63246000D02*
X89408000Y-62484000D01*
X90458658Y-67062231D02*
X90458658Y-64296658D01*
X86858225Y-65532000D02*
X88265000Y-65532000D01*
X86736927Y-65653298D02*
X86858225Y-65532000D01*
X88265000Y-65532000D02*
X89281000Y-64516000D01*
X91440000Y-63916781D02*
X91845752Y-63511029D01*
X91440000Y-64516000D02*
X91440000Y-63916781D01*
X89413977Y-60457977D02*
X89408000Y-60452000D01*
X90274666Y-60457977D02*
X89413977Y-60457977D01*
D13*
X90591046Y-61468000D02*
X91440000Y-62316954D01*
X90568000Y-61468000D02*
X90591046Y-61468000D01*
G04 #@! TA.AperFunction,Conductor*
G36*
X92364194Y-59527806D02*
G01*
X92382500Y-59572000D01*
X92382500Y-63041080D01*
X92364194Y-63085274D01*
X92320000Y-63103580D01*
X92276051Y-63085375D01*
X92274034Y-63082747D01*
X92148593Y-62986493D01*
X92123012Y-62975897D01*
X92061900Y-62950583D01*
X92028075Y-62916758D01*
X92028076Y-62868923D01*
X92035063Y-62856370D01*
X92056161Y-62827009D01*
X92056162Y-62827007D01*
X92058361Y-62823947D01*
X92121601Y-62666634D01*
X92145490Y-62498778D01*
X92145645Y-62484000D01*
X92125276Y-62315680D01*
X92065345Y-62157077D01*
X91969312Y-62017349D01*
X91842721Y-61904560D01*
X91706555Y-61832464D01*
X91696209Y-61826986D01*
X91696208Y-61826986D01*
X91692881Y-61825224D01*
X91528441Y-61783919D01*
X91524676Y-61783899D01*
X91524674Y-61783899D01*
X91488760Y-61783711D01*
X91427681Y-61783392D01*
X91383815Y-61765087D01*
X91185360Y-61566632D01*
X91167054Y-61522438D01*
X91167589Y-61514280D01*
X91173147Y-61472064D01*
X91173682Y-61468000D01*
X91153044Y-61311238D01*
X91103299Y-61191143D01*
X91103298Y-61143308D01*
X91137123Y-61109484D01*
X91179958Y-61109147D01*
X91180235Y-61108092D01*
X91339423Y-61149854D01*
X91344233Y-61151116D01*
X91434762Y-61152538D01*
X91509991Y-61153720D01*
X91509993Y-61153720D01*
X91513760Y-61153779D01*
X91679029Y-61115928D01*
X91682393Y-61114236D01*
X91682396Y-61114235D01*
X91771136Y-61069603D01*
X91830498Y-61039747D01*
X91833363Y-61037300D01*
X91833366Y-61037298D01*
X91956561Y-60932079D01*
X91956564Y-60932076D01*
X91959423Y-60929634D01*
X91961618Y-60926579D01*
X91961621Y-60926576D01*
X92056161Y-60795009D01*
X92056162Y-60795007D01*
X92058361Y-60791947D01*
X92121601Y-60634634D01*
X92145490Y-60466778D01*
X92145568Y-60459315D01*
X92145624Y-60454038D01*
X92145624Y-60454032D01*
X92145645Y-60452000D01*
X92125276Y-60283680D01*
X92065345Y-60125077D01*
X92002021Y-60032940D01*
X91971444Y-59988451D01*
X91969312Y-59985349D01*
X91842721Y-59872560D01*
X91692881Y-59793224D01*
X91528441Y-59751919D01*
X91524676Y-59751899D01*
X91524674Y-59751899D01*
X91441244Y-59751462D01*
X91358895Y-59751031D01*
X91351373Y-59752837D01*
X91197696Y-59789732D01*
X91197693Y-59789733D01*
X91194032Y-59790612D01*
X91190689Y-59792338D01*
X91190685Y-59792339D01*
X91116376Y-59830693D01*
X91043369Y-59868375D01*
X91018479Y-59890088D01*
X90918445Y-59977353D01*
X90915604Y-59979831D01*
X90913438Y-59982913D01*
X90913437Y-59982914D01*
X90844574Y-60080896D01*
X90804185Y-60106527D01*
X90757502Y-60096092D01*
X90743855Y-60083006D01*
X90705438Y-60032940D01*
X90702948Y-60029695D01*
X90577507Y-59933441D01*
X90472844Y-59890088D01*
X90435214Y-59874501D01*
X90435213Y-59874501D01*
X90431428Y-59872933D01*
X90427366Y-59872398D01*
X90427365Y-59872398D01*
X90278730Y-59852830D01*
X90274666Y-59852295D01*
X90270602Y-59852830D01*
X90121967Y-59872398D01*
X90121966Y-59872398D01*
X90117904Y-59872933D01*
X90114119Y-59874501D01*
X90114118Y-59874501D01*
X89975610Y-59931873D01*
X89971825Y-59933441D01*
X89963000Y-59940213D01*
X89916797Y-59952594D01*
X89883376Y-59937293D01*
X89830394Y-59890088D01*
X89810721Y-59872560D01*
X89660881Y-59793224D01*
X89496441Y-59751919D01*
X89492676Y-59751899D01*
X89492674Y-59751899D01*
X89409244Y-59751462D01*
X89326895Y-59751031D01*
X89319373Y-59752837D01*
X89165696Y-59789732D01*
X89165693Y-59789733D01*
X89162032Y-59790612D01*
X89158689Y-59792338D01*
X89158685Y-59792339D01*
X89084376Y-59830693D01*
X89011369Y-59868375D01*
X88986479Y-59890088D01*
X88886445Y-59977353D01*
X88883604Y-59979831D01*
X88786113Y-60118547D01*
X88784744Y-60122058D01*
X88784743Y-60122060D01*
X88725892Y-60273003D01*
X88725891Y-60273007D01*
X88724524Y-60276513D01*
X88724032Y-60280250D01*
X88702886Y-60440870D01*
X88702886Y-60440874D01*
X88702394Y-60444611D01*
X88720999Y-60613135D01*
X88722293Y-60616671D01*
X88722294Y-60616675D01*
X88730144Y-60638126D01*
X88779266Y-60772356D01*
X88792431Y-60791947D01*
X88853586Y-60882956D01*
X88873830Y-60913083D01*
X88999233Y-61027191D01*
X89148235Y-61108092D01*
X89151877Y-61109048D01*
X89151881Y-61109049D01*
X89308585Y-61150159D01*
X89312233Y-61151116D01*
X89402762Y-61152538D01*
X89477991Y-61153720D01*
X89477993Y-61153720D01*
X89481760Y-61153779D01*
X89647029Y-61115928D01*
X89650393Y-61114236D01*
X89650396Y-61114235D01*
X89739136Y-61069603D01*
X89798498Y-61039747D01*
X89801363Y-61037300D01*
X89801366Y-61037298D01*
X89877337Y-60972412D01*
X89922832Y-60957630D01*
X89955975Y-60970352D01*
X89968574Y-60980020D01*
X89968582Y-60980025D01*
X89971825Y-60982513D01*
X89975608Y-60984080D01*
X90057282Y-61017911D01*
X90091107Y-61051736D01*
X90091106Y-61099571D01*
X90082949Y-61113701D01*
X90043464Y-61165159D01*
X90041897Y-61168942D01*
X90015382Y-61232956D01*
X89982956Y-61311238D01*
X89962318Y-61468000D01*
X89982956Y-61624762D01*
X90043464Y-61770841D01*
X90139718Y-61896282D01*
X90265159Y-61992536D01*
X90268942Y-61994103D01*
X90407452Y-62051476D01*
X90407453Y-62051476D01*
X90411238Y-62053044D01*
X90415300Y-62053579D01*
X90415301Y-62053579D01*
X90563936Y-62073147D01*
X90568000Y-62073682D01*
X90655010Y-62062227D01*
X90701216Y-62074607D01*
X90707362Y-62079998D01*
X90777970Y-62150606D01*
X90796276Y-62194800D01*
X90792007Y-62217503D01*
X90757892Y-62305004D01*
X90756524Y-62308513D01*
X90756033Y-62312244D01*
X90756032Y-62312247D01*
X90734886Y-62472870D01*
X90734886Y-62472874D01*
X90734394Y-62476611D01*
X90752999Y-62645135D01*
X90754293Y-62648671D01*
X90754294Y-62648675D01*
X90762144Y-62670126D01*
X90811266Y-62804356D01*
X90824431Y-62823947D01*
X90892997Y-62925985D01*
X90905830Y-62945083D01*
X91031233Y-63059191D01*
X91180235Y-63140092D01*
X91183880Y-63141048D01*
X91183882Y-63141049D01*
X91263540Y-63161947D01*
X91301642Y-63190868D01*
X91308134Y-63238261D01*
X91305424Y-63246314D01*
X91260708Y-63354267D01*
X91260173Y-63358329D01*
X91260173Y-63358330D01*
X91249904Y-63436333D01*
X91240070Y-63511029D01*
X91240605Y-63515093D01*
X91259198Y-63656318D01*
X91260708Y-63667791D01*
X91262219Y-63671439D01*
X91255985Y-63718815D01*
X91250614Y-63725815D01*
X91249667Y-63726448D01*
X91234938Y-63748491D01*
X91191317Y-63813773D01*
X91190116Y-63819811D01*
X91187829Y-63831309D01*
X91161255Y-63871084D01*
X91155198Y-63874656D01*
X91043369Y-63932375D01*
X91040531Y-63934850D01*
X91040532Y-63934850D01*
X90925080Y-64035565D01*
X90915604Y-64043831D01*
X90913438Y-64046913D01*
X90913437Y-64046914D01*
X90871683Y-64106325D01*
X90818113Y-64182547D01*
X90816743Y-64186060D01*
X90814963Y-64189380D01*
X90812809Y-64188225D01*
X90784902Y-64217317D01*
X90737077Y-64218313D01*
X90710045Y-64191843D01*
X90707341Y-64193650D01*
X90663721Y-64128368D01*
X90663715Y-64128360D01*
X90652411Y-64111443D01*
X90652410Y-64111442D01*
X90648991Y-64106325D01*
X90632068Y-64095017D01*
X90622598Y-64087245D01*
X89732313Y-63196961D01*
X89714007Y-63152767D01*
X89732313Y-63108573D01*
X89748425Y-63096931D01*
X89798498Y-63071747D01*
X89801363Y-63069300D01*
X89801366Y-63069298D01*
X89924561Y-62964079D01*
X89924564Y-62964076D01*
X89927423Y-62961634D01*
X89929618Y-62958579D01*
X89929621Y-62958576D01*
X90024161Y-62827009D01*
X90024162Y-62827007D01*
X90026361Y-62823947D01*
X90089601Y-62666634D01*
X90113490Y-62498778D01*
X90113645Y-62484000D01*
X90093276Y-62315680D01*
X90033345Y-62157077D01*
X89937312Y-62017349D01*
X89810721Y-61904560D01*
X89674555Y-61832464D01*
X89664209Y-61826986D01*
X89664208Y-61826986D01*
X89660881Y-61825224D01*
X89496441Y-61783919D01*
X89492676Y-61783899D01*
X89492674Y-61783899D01*
X89409244Y-61783462D01*
X89326895Y-61783031D01*
X89319373Y-61784837D01*
X89165696Y-61821732D01*
X89165693Y-61821733D01*
X89162032Y-61822612D01*
X89158689Y-61824338D01*
X89158685Y-61824339D01*
X89103123Y-61853017D01*
X89011369Y-61900375D01*
X88883604Y-62011831D01*
X88881438Y-62014913D01*
X88881437Y-62014914D01*
X88821013Y-62100889D01*
X88786113Y-62150547D01*
X88784744Y-62154058D01*
X88784743Y-62154060D01*
X88725892Y-62305003D01*
X88725892Y-62305004D01*
X88724524Y-62308513D01*
X88724032Y-62312250D01*
X88702886Y-62472870D01*
X88702886Y-62472874D01*
X88702394Y-62476611D01*
X88720999Y-62645135D01*
X88722293Y-62648671D01*
X88722294Y-62648675D01*
X88730144Y-62670126D01*
X88779266Y-62804356D01*
X88792431Y-62823947D01*
X88860997Y-62925985D01*
X88873830Y-62945083D01*
X88999233Y-63059191D01*
X89111322Y-63120051D01*
X89141426Y-63157225D01*
X89144000Y-63174976D01*
X89144000Y-63213843D01*
X89142799Y-63226036D01*
X89138828Y-63246000D01*
X89144000Y-63272002D01*
X89159317Y-63349008D01*
X89217667Y-63436333D01*
X89222784Y-63439752D01*
X89222785Y-63439753D01*
X89234593Y-63447643D01*
X89244063Y-63455415D01*
X89523537Y-63734889D01*
X89541843Y-63779083D01*
X89523537Y-63823277D01*
X89479343Y-63841583D01*
X89464117Y-63839700D01*
X89428333Y-63830712D01*
X89369441Y-63815919D01*
X89365676Y-63815899D01*
X89365674Y-63815899D01*
X89282244Y-63815462D01*
X89199895Y-63815031D01*
X89165549Y-63823277D01*
X89038696Y-63853732D01*
X89038693Y-63853733D01*
X89035032Y-63854612D01*
X89031682Y-63856341D01*
X89011744Y-63866631D01*
X88964076Y-63870633D01*
X88927540Y-63839757D01*
X88923538Y-63792089D01*
X88925337Y-63787174D01*
X88976959Y-63662548D01*
X88976959Y-63662547D01*
X88978527Y-63658762D01*
X88999165Y-63502000D01*
X88978527Y-63345238D01*
X88918019Y-63199159D01*
X88821765Y-63073718D01*
X88696324Y-62977464D01*
X88658107Y-62961634D01*
X88554031Y-62918524D01*
X88554030Y-62918524D01*
X88550245Y-62916956D01*
X88546183Y-62916421D01*
X88546182Y-62916421D01*
X88397547Y-62896853D01*
X88393483Y-62896318D01*
X88389419Y-62896853D01*
X88240784Y-62916421D01*
X88240783Y-62916421D01*
X88236721Y-62916956D01*
X88232936Y-62918524D01*
X88232935Y-62918524D01*
X88128859Y-62961634D01*
X88090642Y-62977464D01*
X87965201Y-63073718D01*
X87868947Y-63199159D01*
X87808439Y-63345238D01*
X87787801Y-63502000D01*
X87808439Y-63658762D01*
X87810007Y-63662548D01*
X87810409Y-63664047D01*
X87804164Y-63711473D01*
X87794235Y-63724412D01*
X87734260Y-63784388D01*
X87679946Y-63838702D01*
X87635752Y-63857008D01*
X87620526Y-63855125D01*
X87525710Y-63831309D01*
X87464441Y-63815919D01*
X87460676Y-63815899D01*
X87460674Y-63815899D01*
X87377244Y-63815462D01*
X87294895Y-63815031D01*
X87260549Y-63823277D01*
X87133696Y-63853732D01*
X87133693Y-63853733D01*
X87130032Y-63854612D01*
X87126689Y-63856338D01*
X87126685Y-63856339D01*
X87052376Y-63894693D01*
X86979369Y-63932375D01*
X86976531Y-63934850D01*
X86976532Y-63934850D01*
X86861080Y-64035565D01*
X86851604Y-64043831D01*
X86849438Y-64046913D01*
X86849437Y-64046914D01*
X86807683Y-64106325D01*
X86754113Y-64182547D01*
X86752744Y-64186058D01*
X86752743Y-64186060D01*
X86693892Y-64337003D01*
X86693891Y-64337007D01*
X86692524Y-64340513D01*
X86692032Y-64344250D01*
X86670886Y-64504870D01*
X86670886Y-64504874D01*
X86670394Y-64508611D01*
X86688999Y-64677135D01*
X86690293Y-64680671D01*
X86690294Y-64680675D01*
X86700227Y-64707818D01*
X86747266Y-64836356D01*
X86760431Y-64855947D01*
X86826803Y-64954721D01*
X86836258Y-65001613D01*
X86809786Y-65041456D01*
X86766770Y-65051545D01*
X86736927Y-65047616D01*
X86732863Y-65048151D01*
X86584228Y-65067719D01*
X86584227Y-65067719D01*
X86580165Y-65068254D01*
X86576380Y-65069822D01*
X86576379Y-65069822D01*
X86500390Y-65101298D01*
X86434086Y-65128762D01*
X86308645Y-65225016D01*
X86212391Y-65350457D01*
X86210824Y-65354240D01*
X86163500Y-65468491D01*
X86151883Y-65496536D01*
X86151348Y-65500598D01*
X86151348Y-65500599D01*
X86136110Y-65616341D01*
X86131245Y-65653298D01*
X86131780Y-65657362D01*
X86148174Y-65781884D01*
X86151883Y-65810060D01*
X86153451Y-65813845D01*
X86153451Y-65813846D01*
X86185404Y-65890986D01*
X86212391Y-65956139D01*
X86308645Y-66081580D01*
X86434086Y-66177834D01*
X86437869Y-66179401D01*
X86576379Y-66236774D01*
X86576380Y-66236774D01*
X86580165Y-66238342D01*
X86584227Y-66238877D01*
X86584228Y-66238877D01*
X86657768Y-66248559D01*
X86699195Y-66272477D01*
X86711575Y-66318682D01*
X86707840Y-66333228D01*
X86693893Y-66368999D01*
X86693891Y-66369007D01*
X86692524Y-66372513D01*
X86692033Y-66376244D01*
X86692032Y-66376247D01*
X86670886Y-66536870D01*
X86670886Y-66536874D01*
X86670394Y-66540611D01*
X86688999Y-66709135D01*
X86690293Y-66712671D01*
X86690294Y-66712675D01*
X86716149Y-66783325D01*
X86714146Y-66831119D01*
X86701650Y-66848998D01*
X86691985Y-66858663D01*
X86682515Y-66866435D01*
X86674958Y-66871485D01*
X86665589Y-66877745D01*
X86650860Y-66899788D01*
X86607239Y-66965070D01*
X86606039Y-66971104D01*
X86606038Y-66971106D01*
X86602587Y-66988457D01*
X86576011Y-67028230D01*
X86565208Y-67034004D01*
X86556866Y-67037460D01*
X86553081Y-67039028D01*
X86427640Y-67135282D01*
X86331386Y-67260723D01*
X86329819Y-67264506D01*
X86289400Y-67362087D01*
X86270878Y-67406802D01*
X86270343Y-67410864D01*
X86270343Y-67410865D01*
X86259238Y-67495215D01*
X86250240Y-67563564D01*
X86250775Y-67567628D01*
X86268237Y-67700262D01*
X86270878Y-67720326D01*
X86272446Y-67724111D01*
X86272446Y-67724112D01*
X86321508Y-67842558D01*
X86331386Y-67866405D01*
X86427640Y-67991846D01*
X86553081Y-68088100D01*
X86556864Y-68089667D01*
X86695374Y-68147040D01*
X86695375Y-68147040D01*
X86699160Y-68148608D01*
X86703220Y-68149143D01*
X86703222Y-68149143D01*
X86710364Y-68150083D01*
X86751790Y-68174000D01*
X86764171Y-68220206D01*
X86757289Y-68241579D01*
X86756274Y-68243473D01*
X86754113Y-68246547D01*
X86752748Y-68250049D01*
X86752746Y-68250052D01*
X86693892Y-68401003D01*
X86693891Y-68401006D01*
X86692524Y-68404513D01*
X86692032Y-68408250D01*
X86670886Y-68568870D01*
X86670886Y-68568874D01*
X86670394Y-68572611D01*
X86688999Y-68741135D01*
X86690293Y-68744671D01*
X86690294Y-68744675D01*
X86716149Y-68815325D01*
X86714146Y-68863119D01*
X86701650Y-68880998D01*
X86691563Y-68891085D01*
X86682093Y-68898857D01*
X86665167Y-68910167D01*
X86650438Y-68932210D01*
X86606817Y-68997492D01*
X86605617Y-69003526D01*
X86605616Y-69003528D01*
X86602162Y-69020894D01*
X86575586Y-69060667D01*
X86564782Y-69066442D01*
X86556439Y-69069898D01*
X86556437Y-69069899D01*
X86552659Y-69071464D01*
X86427218Y-69167718D01*
X86424728Y-69170963D01*
X86424725Y-69170966D01*
X86372386Y-69239176D01*
X86330959Y-69263094D01*
X86284754Y-69250714D01*
X86163204Y-69157446D01*
X86163200Y-69157444D01*
X86159954Y-69154953D01*
X86154406Y-69152655D01*
X86017661Y-69096013D01*
X86017660Y-69096013D01*
X86013875Y-69094445D01*
X86009813Y-69093910D01*
X86009812Y-69093910D01*
X85861177Y-69074342D01*
X85857113Y-69073807D01*
X85853049Y-69074342D01*
X85704414Y-69093910D01*
X85704413Y-69093910D01*
X85700351Y-69094445D01*
X85696566Y-69096013D01*
X85696565Y-69096013D01*
X85559820Y-69152655D01*
X85554272Y-69154953D01*
X85428831Y-69251207D01*
X85332577Y-69376648D01*
X85331010Y-69380431D01*
X85283665Y-69494733D01*
X85272069Y-69522727D01*
X85271534Y-69526789D01*
X85271534Y-69526790D01*
X85262422Y-69596000D01*
X85251431Y-69679489D01*
X85251966Y-69683553D01*
X85270708Y-69825910D01*
X85272069Y-69836251D01*
X85273636Y-69840035D01*
X85274256Y-69842348D01*
X85268010Y-69889774D01*
X85228476Y-69919295D01*
X85098032Y-69950612D01*
X85094689Y-69952338D01*
X85094685Y-69952339D01*
X85030316Y-69985563D01*
X84947369Y-70028375D01*
X84917231Y-70054666D01*
X84824334Y-70135705D01*
X84819604Y-70139831D01*
X84817438Y-70142913D01*
X84817437Y-70142914D01*
X84795916Y-70173535D01*
X84722113Y-70278547D01*
X84720745Y-70282056D01*
X84720743Y-70282060D01*
X84661892Y-70433003D01*
X84661891Y-70433007D01*
X84660524Y-70436513D01*
X84660032Y-70440250D01*
X84638886Y-70600870D01*
X84638886Y-70600874D01*
X84638394Y-70604611D01*
X84656999Y-70773135D01*
X84658293Y-70776671D01*
X84658294Y-70776675D01*
X84694642Y-70876000D01*
X84715266Y-70932356D01*
X84739973Y-70969124D01*
X84802673Y-71062432D01*
X84809830Y-71073083D01*
X84935233Y-71187191D01*
X85084235Y-71268092D01*
X85087877Y-71269048D01*
X85087881Y-71269049D01*
X85235814Y-71307858D01*
X85248233Y-71311116D01*
X85338762Y-71312538D01*
X85413991Y-71313720D01*
X85413993Y-71313720D01*
X85417760Y-71313779D01*
X85583029Y-71275928D01*
X85586393Y-71274236D01*
X85586396Y-71274235D01*
X85658264Y-71238089D01*
X85734498Y-71199747D01*
X85737363Y-71197300D01*
X85737366Y-71197298D01*
X85860561Y-71092079D01*
X85860564Y-71092076D01*
X85863423Y-71089634D01*
X85865619Y-71086578D01*
X85865621Y-71086576D01*
X85960161Y-70955009D01*
X85960162Y-70955007D01*
X85962361Y-70951947D01*
X86025601Y-70794634D01*
X86049490Y-70626778D01*
X86049568Y-70619315D01*
X86049624Y-70614038D01*
X86049624Y-70614032D01*
X86049645Y-70612000D01*
X86029276Y-70443680D01*
X86027943Y-70440151D01*
X86004159Y-70377208D01*
X86005662Y-70329396D01*
X86018430Y-70310922D01*
X86021050Y-70308302D01*
X86030520Y-70300530D01*
X86042329Y-70292639D01*
X86047446Y-70289220D01*
X86050863Y-70284106D01*
X86050867Y-70284102D01*
X86072570Y-70251622D01*
X86100618Y-70228604D01*
X86156165Y-70205596D01*
X86156175Y-70205591D01*
X86159954Y-70204025D01*
X86216890Y-70160337D01*
X86282150Y-70110261D01*
X86285395Y-70107771D01*
X86287885Y-70104526D01*
X86287888Y-70104523D01*
X86340227Y-70036313D01*
X86381654Y-70012395D01*
X86427859Y-70024775D01*
X86549409Y-70118043D01*
X86549413Y-70118045D01*
X86552659Y-70120536D01*
X86556442Y-70122103D01*
X86694952Y-70179476D01*
X86694953Y-70179476D01*
X86698738Y-70181044D01*
X86710119Y-70182542D01*
X86751544Y-70206458D01*
X86763927Y-70252663D01*
X86757042Y-70274042D01*
X86756279Y-70275465D01*
X86754113Y-70278547D01*
X86752745Y-70282056D01*
X86693892Y-70433003D01*
X86693891Y-70433007D01*
X86692524Y-70436513D01*
X86692032Y-70440250D01*
X86670886Y-70600870D01*
X86670886Y-70600874D01*
X86670394Y-70604611D01*
X86688999Y-70773135D01*
X86690293Y-70776671D01*
X86690294Y-70776675D01*
X86726642Y-70876000D01*
X86747266Y-70932356D01*
X86771973Y-70969124D01*
X86834673Y-71062432D01*
X86841830Y-71073083D01*
X86967233Y-71187191D01*
X87116235Y-71268092D01*
X87119877Y-71269048D01*
X87119881Y-71269049D01*
X87267814Y-71307858D01*
X87280233Y-71311116D01*
X87370762Y-71312538D01*
X87445991Y-71313720D01*
X87445993Y-71313720D01*
X87449760Y-71313779D01*
X87615029Y-71275928D01*
X87618393Y-71274236D01*
X87618396Y-71274235D01*
X87745437Y-71210340D01*
X87781677Y-71204211D01*
X87879936Y-71217147D01*
X87884000Y-71217682D01*
X87888064Y-71217147D01*
X87888065Y-71217147D01*
X87907573Y-71214579D01*
X87953778Y-71226960D01*
X87977695Y-71268387D01*
X87977695Y-71284701D01*
X87972795Y-71321922D01*
X87971453Y-71332117D01*
X87992091Y-71488879D01*
X87993659Y-71492664D01*
X87993659Y-71492665D01*
X88011596Y-71535968D01*
X88052599Y-71634958D01*
X88148853Y-71760399D01*
X88152098Y-71762889D01*
X88152102Y-71762893D01*
X88213801Y-71810237D01*
X88237718Y-71851664D01*
X88225337Y-71897869D01*
X88223623Y-71899824D01*
X88222593Y-71900614D01*
X88126339Y-72026055D01*
X88124772Y-72029838D01*
X88108411Y-72069338D01*
X88065831Y-72172134D01*
X88065296Y-72176196D01*
X88065296Y-72176197D01*
X88060702Y-72211094D01*
X88036785Y-72252521D01*
X87990580Y-72264902D01*
X87947229Y-72238338D01*
X87907444Y-72180451D01*
X87905312Y-72177349D01*
X87811950Y-72094166D01*
X87799230Y-72076267D01*
X87798537Y-72076667D01*
X87796490Y-72073121D01*
X87794923Y-72069338D01*
X87698669Y-71943897D01*
X87573228Y-71847643D01*
X87482297Y-71809978D01*
X87430935Y-71788703D01*
X87430934Y-71788703D01*
X87427149Y-71787135D01*
X87423087Y-71786600D01*
X87423086Y-71786600D01*
X87274451Y-71767032D01*
X87270387Y-71766497D01*
X87266323Y-71767032D01*
X87117688Y-71786600D01*
X87117687Y-71786600D01*
X87113625Y-71787135D01*
X87109840Y-71788703D01*
X87109839Y-71788703D01*
X87058477Y-71809978D01*
X86967546Y-71847643D01*
X86842105Y-71943897D01*
X86745851Y-72069338D01*
X86744284Y-72073121D01*
X86687134Y-72211094D01*
X86685343Y-72215417D01*
X86664705Y-72372179D01*
X86665240Y-72376243D01*
X86683882Y-72517842D01*
X86683882Y-72534158D01*
X86670886Y-72632870D01*
X86670886Y-72632873D01*
X86670394Y-72636611D01*
X86688999Y-72805135D01*
X86690293Y-72808671D01*
X86690294Y-72808675D01*
X86712948Y-72870578D01*
X86747266Y-72964356D01*
X86749367Y-72967482D01*
X86749369Y-72967486D01*
X86759841Y-72983070D01*
X86769296Y-73029962D01*
X86742824Y-73069805D01*
X86699807Y-73079894D01*
X86611451Y-73068262D01*
X86607387Y-73067727D01*
X86603323Y-73068262D01*
X86454688Y-73087830D01*
X86454687Y-73087830D01*
X86450625Y-73088365D01*
X86446840Y-73089933D01*
X86446839Y-73089933D01*
X86320902Y-73142098D01*
X86304546Y-73148873D01*
X86179105Y-73245127D01*
X86082851Y-73370568D01*
X86081284Y-73374351D01*
X86037145Y-73480913D01*
X86022343Y-73516647D01*
X86021808Y-73520709D01*
X86021808Y-73520710D01*
X86008790Y-73619592D01*
X85991019Y-73655628D01*
X85812698Y-73833950D01*
X85647946Y-73998702D01*
X85603752Y-74017008D01*
X85588526Y-74015125D01*
X85518481Y-73997531D01*
X85432441Y-73975919D01*
X85428676Y-73975899D01*
X85428674Y-73975899D01*
X85345244Y-73975462D01*
X85262895Y-73975031D01*
X85257818Y-73976250D01*
X85101696Y-74013732D01*
X85101693Y-74013733D01*
X85098032Y-74014612D01*
X85094689Y-74016338D01*
X85094685Y-74016339D01*
X85052424Y-74038152D01*
X84947369Y-74092375D01*
X84944531Y-74094850D01*
X84944532Y-74094850D01*
X84824552Y-74199515D01*
X84819604Y-74203831D01*
X84817438Y-74206913D01*
X84817437Y-74206914D01*
X84757013Y-74292889D01*
X84722113Y-74342547D01*
X84720744Y-74346058D01*
X84720743Y-74346060D01*
X84661892Y-74497003D01*
X84661891Y-74497007D01*
X84660524Y-74500513D01*
X84660032Y-74504250D01*
X84638886Y-74664870D01*
X84638886Y-74664874D01*
X84638394Y-74668611D01*
X84656999Y-74837135D01*
X84658293Y-74840671D01*
X84658294Y-74840675D01*
X84666144Y-74862126D01*
X84715266Y-74996356D01*
X84809830Y-75137083D01*
X84935233Y-75251191D01*
X85084235Y-75332092D01*
X85087877Y-75333048D01*
X85087881Y-75333049D01*
X85196987Y-75361672D01*
X85248233Y-75375116D01*
X85338762Y-75376538D01*
X85413991Y-75377720D01*
X85413993Y-75377720D01*
X85417760Y-75377779D01*
X85583029Y-75339928D01*
X85586393Y-75338236D01*
X85586396Y-75338235D01*
X85658264Y-75302089D01*
X85734498Y-75263747D01*
X85737363Y-75261300D01*
X85737366Y-75261298D01*
X85860561Y-75156079D01*
X85860564Y-75156076D01*
X85863423Y-75153634D01*
X85865618Y-75150579D01*
X85865621Y-75150576D01*
X85960161Y-75019009D01*
X85960162Y-75019007D01*
X85962361Y-75015947D01*
X86025601Y-74858634D01*
X86049490Y-74690778D01*
X86049645Y-74676000D01*
X86029276Y-74507680D01*
X86027740Y-74503614D01*
X86004159Y-74441208D01*
X86005662Y-74393396D01*
X86018430Y-74374922D01*
X86204036Y-74189317D01*
X86248230Y-74171011D01*
X86286277Y-74183927D01*
X86304546Y-74197945D01*
X86308332Y-74199513D01*
X86308335Y-74199515D01*
X86446839Y-74256885D01*
X86446840Y-74256885D01*
X86450625Y-74258453D01*
X86454687Y-74258988D01*
X86454688Y-74258988D01*
X86603323Y-74278556D01*
X86607387Y-74279091D01*
X86611451Y-74278556D01*
X86683353Y-74269090D01*
X86729559Y-74281470D01*
X86753476Y-74322897D01*
X86749742Y-74353758D01*
X86693892Y-74497003D01*
X86693891Y-74497007D01*
X86692524Y-74500513D01*
X86692032Y-74504250D01*
X86670886Y-74664870D01*
X86670886Y-74664874D01*
X86670394Y-74668611D01*
X86688999Y-74837135D01*
X86690293Y-74840671D01*
X86690294Y-74840675D01*
X86698144Y-74862126D01*
X86747266Y-74996356D01*
X86841830Y-75137083D01*
X86967233Y-75251191D01*
X87116235Y-75332092D01*
X87119877Y-75333048D01*
X87119881Y-75333049D01*
X87228987Y-75361672D01*
X87280233Y-75375116D01*
X87370762Y-75376538D01*
X87445991Y-75377720D01*
X87445993Y-75377720D01*
X87449760Y-75377779D01*
X87615029Y-75339928D01*
X87618393Y-75338236D01*
X87618396Y-75338235D01*
X87690264Y-75302089D01*
X87766498Y-75263747D01*
X87769363Y-75261300D01*
X87769366Y-75261298D01*
X87892561Y-75156079D01*
X87892564Y-75156076D01*
X87895423Y-75153634D01*
X87897618Y-75150579D01*
X87897621Y-75150576D01*
X87968074Y-75052529D01*
X88008729Y-75027322D01*
X88018829Y-75026500D01*
X88766220Y-75026500D01*
X88810414Y-75044806D01*
X88818095Y-75054140D01*
X88873830Y-75137083D01*
X88999233Y-75251191D01*
X89148235Y-75332092D01*
X89151877Y-75333048D01*
X89151881Y-75333049D01*
X89260987Y-75361672D01*
X89312233Y-75375116D01*
X89402762Y-75376538D01*
X89477991Y-75377720D01*
X89477993Y-75377720D01*
X89481760Y-75377779D01*
X89647029Y-75339928D01*
X89650393Y-75338236D01*
X89650396Y-75338235D01*
X89722264Y-75302089D01*
X89798498Y-75263747D01*
X89801363Y-75261300D01*
X89801366Y-75261298D01*
X89924561Y-75156079D01*
X89924564Y-75156076D01*
X89927423Y-75153634D01*
X89929618Y-75150579D01*
X89929621Y-75150576D01*
X90000074Y-75052529D01*
X90040729Y-75027322D01*
X90050829Y-75026500D01*
X90798220Y-75026500D01*
X90842414Y-75044806D01*
X90850095Y-75054140D01*
X90905830Y-75137083D01*
X91031233Y-75251191D01*
X91180235Y-75332092D01*
X91183877Y-75333048D01*
X91183881Y-75333049D01*
X91292987Y-75361672D01*
X91344233Y-75375116D01*
X91434762Y-75376538D01*
X91509991Y-75377720D01*
X91509993Y-75377720D01*
X91513760Y-75377779D01*
X91679029Y-75339928D01*
X91682393Y-75338236D01*
X91682396Y-75338235D01*
X91754264Y-75302089D01*
X91830498Y-75263747D01*
X91833363Y-75261300D01*
X91833366Y-75261298D01*
X91956561Y-75156079D01*
X91956564Y-75156076D01*
X91959423Y-75153634D01*
X91961618Y-75150579D01*
X91961621Y-75150576D01*
X92056161Y-75019009D01*
X92056162Y-75019007D01*
X92058361Y-75015947D01*
X92121601Y-74858634D01*
X92145490Y-74690778D01*
X92145645Y-74676000D01*
X92125276Y-74507680D01*
X92123289Y-74502419D01*
X92093077Y-74422468D01*
X92065345Y-74349077D01*
X91969312Y-74209349D01*
X91842721Y-74096560D01*
X91692881Y-74017224D01*
X91528441Y-73975919D01*
X91524676Y-73975899D01*
X91524674Y-73975899D01*
X91441244Y-73975462D01*
X91358895Y-73975031D01*
X91353818Y-73976250D01*
X91197696Y-74013732D01*
X91197693Y-74013733D01*
X91194032Y-74014612D01*
X91190689Y-74016338D01*
X91190685Y-74016339D01*
X91148424Y-74038152D01*
X91043369Y-74092375D01*
X91040531Y-74094850D01*
X91040532Y-74094850D01*
X90920552Y-74199515D01*
X90915604Y-74203831D01*
X90913438Y-74206913D01*
X90913437Y-74206914D01*
X90848762Y-74298938D01*
X90808374Y-74324569D01*
X90797628Y-74325500D01*
X90050024Y-74325500D01*
X90005830Y-74307194D01*
X89998516Y-74298400D01*
X89939447Y-74212455D01*
X89939446Y-74212454D01*
X89937312Y-74209349D01*
X89810721Y-74096560D01*
X89660881Y-74017224D01*
X89496441Y-73975919D01*
X89492676Y-73975899D01*
X89492674Y-73975899D01*
X89409244Y-73975462D01*
X89326895Y-73975031D01*
X89321818Y-73976250D01*
X89165696Y-74013732D01*
X89165693Y-74013733D01*
X89162032Y-74014612D01*
X89158689Y-74016338D01*
X89158685Y-74016339D01*
X89116424Y-74038152D01*
X89011369Y-74092375D01*
X89008531Y-74094850D01*
X89008532Y-74094850D01*
X88888552Y-74199515D01*
X88883604Y-74203831D01*
X88881438Y-74206913D01*
X88881437Y-74206914D01*
X88816762Y-74298938D01*
X88776374Y-74324569D01*
X88765628Y-74325500D01*
X88018024Y-74325500D01*
X87973830Y-74307194D01*
X87966516Y-74298400D01*
X87907447Y-74212455D01*
X87907446Y-74212454D01*
X87905312Y-74209349D01*
X87778721Y-74096560D01*
X87628881Y-74017224D01*
X87464441Y-73975919D01*
X87460676Y-73975899D01*
X87460674Y-73975899D01*
X87377244Y-73975462D01*
X87294895Y-73975031D01*
X87233762Y-73989708D01*
X87186515Y-73982225D01*
X87158398Y-73943526D01*
X87161428Y-73905019D01*
X87192431Y-73830171D01*
X87213069Y-73673409D01*
X87207920Y-73634301D01*
X87192966Y-73520710D01*
X87192966Y-73520709D01*
X87192431Y-73516647D01*
X87149266Y-73412438D01*
X87149265Y-73364604D01*
X87183090Y-73330779D01*
X87222867Y-73328067D01*
X87276582Y-73342159D01*
X87276589Y-73342160D01*
X87280233Y-73343116D01*
X87370762Y-73344538D01*
X87445991Y-73345720D01*
X87445993Y-73345720D01*
X87449760Y-73345779D01*
X87615029Y-73307928D01*
X87618393Y-73306236D01*
X87618396Y-73306235D01*
X87705424Y-73262464D01*
X87766498Y-73231747D01*
X87769363Y-73229300D01*
X87769366Y-73229298D01*
X87892561Y-73124079D01*
X87892564Y-73124076D01*
X87895423Y-73121634D01*
X87897618Y-73118579D01*
X87897621Y-73118576D01*
X87992161Y-72987009D01*
X87992162Y-72987007D01*
X87994361Y-72983947D01*
X88057601Y-72826634D01*
X88058132Y-72822905D01*
X88058133Y-72822900D01*
X88070805Y-72733864D01*
X88095155Y-72692690D01*
X88141487Y-72680794D01*
X88182266Y-72704623D01*
X88220100Y-72753930D01*
X88220103Y-72753933D01*
X88222593Y-72757178D01*
X88348034Y-72853432D01*
X88351817Y-72854999D01*
X88490327Y-72912372D01*
X88490328Y-72912372D01*
X88494113Y-72913940D01*
X88498175Y-72914475D01*
X88498176Y-72914475D01*
X88646811Y-72934043D01*
X88650875Y-72934578D01*
X88713660Y-72926312D01*
X88759864Y-72938692D01*
X88777505Y-72959903D01*
X88777971Y-72960818D01*
X88779266Y-72964356D01*
X88792431Y-72983947D01*
X88863650Y-73089933D01*
X88873830Y-73105083D01*
X88999233Y-73219191D01*
X89148235Y-73300092D01*
X89151877Y-73301048D01*
X89151881Y-73301049D01*
X89308585Y-73342159D01*
X89312233Y-73343116D01*
X89402762Y-73344538D01*
X89477991Y-73345720D01*
X89477993Y-73345720D01*
X89481760Y-73345779D01*
X89647029Y-73307928D01*
X89650393Y-73306236D01*
X89650396Y-73306235D01*
X89737424Y-73262464D01*
X89798498Y-73231747D01*
X89840828Y-73195594D01*
X89886321Y-73180812D01*
X89928943Y-73202528D01*
X89943383Y-73251276D01*
X89937654Y-73294795D01*
X89937119Y-73298860D01*
X89937654Y-73302924D01*
X89947058Y-73374351D01*
X89957757Y-73455622D01*
X90018265Y-73601701D01*
X90114519Y-73727142D01*
X90239960Y-73823396D01*
X90243743Y-73824963D01*
X90382253Y-73882336D01*
X90382254Y-73882336D01*
X90386039Y-73883904D01*
X90390101Y-73884439D01*
X90390102Y-73884439D01*
X90538737Y-73904007D01*
X90542801Y-73904542D01*
X90546865Y-73904007D01*
X90695500Y-73884439D01*
X90695501Y-73884439D01*
X90699563Y-73883904D01*
X90703348Y-73882336D01*
X90703349Y-73882336D01*
X90841859Y-73824963D01*
X90845642Y-73823396D01*
X90971083Y-73727142D01*
X91067337Y-73601701D01*
X91127845Y-73455622D01*
X91140133Y-73362284D01*
X91164050Y-73320857D01*
X91210256Y-73308477D01*
X91217952Y-73309987D01*
X91344233Y-73343116D01*
X91434762Y-73344538D01*
X91509991Y-73345720D01*
X91509993Y-73345720D01*
X91513760Y-73345779D01*
X91679029Y-73307928D01*
X91682393Y-73306236D01*
X91682396Y-73306235D01*
X91769424Y-73262464D01*
X91830498Y-73231747D01*
X91833363Y-73229300D01*
X91833366Y-73229298D01*
X91956561Y-73124079D01*
X91956564Y-73124076D01*
X91959423Y-73121634D01*
X91961618Y-73118579D01*
X91961621Y-73118576D01*
X92056161Y-72987009D01*
X92056162Y-72987007D01*
X92058361Y-72983947D01*
X92121601Y-72826634D01*
X92145490Y-72658778D01*
X92145645Y-72644000D01*
X92125276Y-72475680D01*
X92065345Y-72317077D01*
X91969312Y-72177349D01*
X91842721Y-72064560D01*
X91692881Y-71985224D01*
X91528441Y-71943919D01*
X91524676Y-71943899D01*
X91524674Y-71943899D01*
X91441244Y-71943462D01*
X91358895Y-71943031D01*
X91351373Y-71944837D01*
X91197696Y-71981732D01*
X91197693Y-71981733D01*
X91194032Y-71982612D01*
X91190689Y-71984338D01*
X91190685Y-71984339D01*
X91139882Y-72010561D01*
X91043369Y-72060375D01*
X91028758Y-72073121D01*
X90919597Y-72168348D01*
X90915604Y-72171831D01*
X90913438Y-72174913D01*
X90913437Y-72174914D01*
X90887632Y-72211631D01*
X90818113Y-72310547D01*
X90815892Y-72316244D01*
X90815166Y-72317001D01*
X90814963Y-72317380D01*
X90814857Y-72317323D01*
X90782785Y-72350772D01*
X90734960Y-72351776D01*
X90713466Y-72337738D01*
X90184807Y-71809079D01*
X90166501Y-71764885D01*
X90184807Y-71720691D01*
X90205083Y-71707143D01*
X90252552Y-71687481D01*
X90252562Y-71687476D01*
X90256341Y-71685910D01*
X90381782Y-71589656D01*
X90478036Y-71464215D01*
X90479603Y-71460432D01*
X90536976Y-71321922D01*
X90536976Y-71321921D01*
X90538544Y-71318136D01*
X90539461Y-71311175D01*
X90558647Y-71165438D01*
X90559182Y-71161374D01*
X90538544Y-71004612D01*
X90523845Y-70969124D01*
X90479603Y-70862316D01*
X90478036Y-70858533D01*
X90381782Y-70733092D01*
X90256341Y-70636838D01*
X90143020Y-70589899D01*
X90109196Y-70556075D01*
X90104891Y-70539665D01*
X90095284Y-70460270D01*
X90093276Y-70443680D01*
X90044952Y-70315794D01*
X90046454Y-70267982D01*
X90081325Y-70235237D01*
X90087243Y-70233331D01*
X90088436Y-70233011D01*
X90092503Y-70232476D01*
X90096289Y-70230908D01*
X90096292Y-70230907D01*
X90234799Y-70173535D01*
X90238582Y-70171968D01*
X90364023Y-70075714D01*
X90366513Y-70072469D01*
X90366516Y-70072466D01*
X90392657Y-70038398D01*
X90434084Y-70014480D01*
X90480289Y-70026860D01*
X90491826Y-70038397D01*
X90506803Y-70057915D01*
X90510048Y-70060405D01*
X90510049Y-70060406D01*
X90525766Y-70072466D01*
X90632244Y-70154169D01*
X90636027Y-70155736D01*
X90774537Y-70213109D01*
X90774538Y-70213109D01*
X90778323Y-70214677D01*
X90782385Y-70215212D01*
X90782386Y-70215212D01*
X90931021Y-70234780D01*
X90935085Y-70235315D01*
X90939149Y-70234780D01*
X91087784Y-70215212D01*
X91087785Y-70215212D01*
X91091847Y-70214677D01*
X91095632Y-70213109D01*
X91095633Y-70213109D01*
X91234143Y-70155736D01*
X91237926Y-70154169D01*
X91363367Y-70057915D01*
X91459621Y-69932474D01*
X91468135Y-69911919D01*
X91518561Y-69790181D01*
X91518561Y-69790180D01*
X91520129Y-69786395D01*
X91525287Y-69747220D01*
X91540232Y-69633697D01*
X91540767Y-69629633D01*
X91520129Y-69472871D01*
X91475585Y-69365332D01*
X91475586Y-69317498D01*
X91509410Y-69283673D01*
X91519375Y-69280493D01*
X91675357Y-69244769D01*
X91679029Y-69243928D01*
X91682393Y-69242236D01*
X91682396Y-69242235D01*
X91792649Y-69186783D01*
X91830498Y-69167747D01*
X91833363Y-69165300D01*
X91833366Y-69165298D01*
X91956561Y-69060079D01*
X91956564Y-69060076D01*
X91959423Y-69057634D01*
X91961618Y-69054579D01*
X91961621Y-69054576D01*
X92056161Y-68923009D01*
X92056162Y-68923007D01*
X92058361Y-68919947D01*
X92121601Y-68762634D01*
X92145490Y-68594778D01*
X92145645Y-68580000D01*
X92125276Y-68411680D01*
X92065345Y-68253077D01*
X91994559Y-68150083D01*
X91971444Y-68116451D01*
X91969312Y-68113349D01*
X91842721Y-68000560D01*
X91708459Y-67929472D01*
X91696209Y-67922986D01*
X91696208Y-67922986D01*
X91692881Y-67921224D01*
X91528441Y-67879919D01*
X91524676Y-67879899D01*
X91524674Y-67879899D01*
X91479193Y-67879661D01*
X91394693Y-67879218D01*
X91350596Y-67860682D01*
X91332522Y-67816393D01*
X91350827Y-67772526D01*
X91603940Y-67519413D01*
X91613410Y-67511641D01*
X91625215Y-67503753D01*
X91625216Y-67503752D01*
X91630333Y-67500333D01*
X91639208Y-67487051D01*
X91645057Y-67478298D01*
X91645066Y-67478286D01*
X91685263Y-67418127D01*
X91685264Y-67418125D01*
X91688683Y-67413008D01*
X91709172Y-67310000D01*
X91705201Y-67290036D01*
X91704000Y-67277843D01*
X91704000Y-67237895D01*
X91722306Y-67193701D01*
X91738417Y-67182059D01*
X91769042Y-67166656D01*
X91830498Y-67135747D01*
X91833363Y-67133300D01*
X91833366Y-67133298D01*
X91956561Y-67028079D01*
X91956564Y-67028076D01*
X91959423Y-67025634D01*
X91961618Y-67022579D01*
X91961621Y-67022576D01*
X92056161Y-66891009D01*
X92056162Y-66891007D01*
X92058361Y-66887947D01*
X92121601Y-66730634D01*
X92135598Y-66632282D01*
X92145203Y-66564796D01*
X92145203Y-66564793D01*
X92145490Y-66562778D01*
X92145645Y-66548000D01*
X92125276Y-66379680D01*
X92065345Y-66221077D01*
X91969312Y-66081349D01*
X91842721Y-65968560D01*
X91692881Y-65889224D01*
X91528441Y-65847919D01*
X91524676Y-65847899D01*
X91524674Y-65847899D01*
X91441244Y-65847462D01*
X91358895Y-65847031D01*
X91321173Y-65856087D01*
X91197696Y-65885732D01*
X91197693Y-65885733D01*
X91194032Y-65886612D01*
X91190689Y-65888338D01*
X91190685Y-65888339D01*
X91141482Y-65913735D01*
X91043369Y-65964375D01*
X90915604Y-66075831D01*
X90913438Y-66078913D01*
X90913437Y-66078914D01*
X90836292Y-66188681D01*
X90795904Y-66214312D01*
X90749220Y-66203877D01*
X90723589Y-66163489D01*
X90722658Y-66152743D01*
X90722658Y-64909562D01*
X90740964Y-64865368D01*
X90785158Y-64847062D01*
X90829352Y-64865368D01*
X90837034Y-64874703D01*
X90894826Y-64960707D01*
X90905830Y-64977083D01*
X91031233Y-65091191D01*
X91180235Y-65172092D01*
X91183877Y-65173048D01*
X91183881Y-65173049D01*
X91324377Y-65209907D01*
X91344233Y-65215116D01*
X91434762Y-65216538D01*
X91509991Y-65217720D01*
X91509993Y-65217720D01*
X91513760Y-65217779D01*
X91679029Y-65179928D01*
X91682393Y-65178236D01*
X91682396Y-65178235D01*
X91775808Y-65131253D01*
X91830498Y-65103747D01*
X91833363Y-65101300D01*
X91833366Y-65101298D01*
X91956561Y-64996079D01*
X91956564Y-64996076D01*
X91959423Y-64993634D01*
X91961618Y-64990579D01*
X91961621Y-64990576D01*
X92056161Y-64859009D01*
X92056162Y-64859007D01*
X92058361Y-64855947D01*
X92121601Y-64698634D01*
X92145490Y-64530778D01*
X92145618Y-64518606D01*
X92145624Y-64518038D01*
X92145624Y-64518032D01*
X92145645Y-64516000D01*
X92125276Y-64347680D01*
X92122401Y-64340069D01*
X92092900Y-64262000D01*
X92065345Y-64189077D01*
X92045382Y-64160031D01*
X92035437Y-64113241D01*
X92061489Y-64073122D01*
X92072962Y-64066892D01*
X92148593Y-64035565D01*
X92274034Y-63939311D01*
X92276051Y-63936683D01*
X92320000Y-63918478D01*
X92364194Y-63936784D01*
X92382500Y-63980978D01*
X92382500Y-75556000D01*
X92364194Y-75600194D01*
X92320000Y-75618500D01*
X80774689Y-75618500D01*
X80730495Y-75600194D01*
X80712189Y-75556000D01*
X80730495Y-75511806D01*
X80736641Y-75506415D01*
X80798535Y-75458922D01*
X80801780Y-75456432D01*
X80874547Y-75361600D01*
X80895541Y-75334240D01*
X80895543Y-75334237D01*
X80898034Y-75330991D01*
X80898742Y-75331534D01*
X80933747Y-75304668D01*
X80979751Y-75310111D01*
X81020235Y-75332092D01*
X81023877Y-75333048D01*
X81023881Y-75333049D01*
X81132987Y-75361672D01*
X81184233Y-75375116D01*
X81274762Y-75376538D01*
X81349991Y-75377720D01*
X81349993Y-75377720D01*
X81353760Y-75377779D01*
X81519029Y-75339928D01*
X81522393Y-75338236D01*
X81522396Y-75338235D01*
X81594264Y-75302089D01*
X81670498Y-75263747D01*
X81673363Y-75261300D01*
X81673366Y-75261298D01*
X81796561Y-75156079D01*
X81796564Y-75156076D01*
X81799423Y-75153634D01*
X81801618Y-75150579D01*
X81801621Y-75150576D01*
X81896161Y-75019009D01*
X81896162Y-75019007D01*
X81898361Y-75015947D01*
X81961601Y-74858634D01*
X81985490Y-74690778D01*
X81985645Y-74676000D01*
X81965276Y-74507680D01*
X81963289Y-74502419D01*
X81933077Y-74422468D01*
X81905345Y-74349077D01*
X81809312Y-74209349D01*
X81682721Y-74096560D01*
X81532881Y-74017224D01*
X81368441Y-73975919D01*
X81364676Y-73975899D01*
X81364674Y-73975899D01*
X81281244Y-73975462D01*
X81198895Y-73975031D01*
X81193818Y-73976250D01*
X81037696Y-74013732D01*
X81037693Y-74013733D01*
X81034032Y-74014612D01*
X81030689Y-74016338D01*
X81030685Y-74016339D01*
X80988424Y-74038152D01*
X80883369Y-74092375D01*
X80880531Y-74094850D01*
X80880532Y-74094850D01*
X80760552Y-74199515D01*
X80755604Y-74203831D01*
X80753438Y-74206913D01*
X80753437Y-74206914D01*
X80693013Y-74292889D01*
X80658113Y-74342547D01*
X80656744Y-74346058D01*
X80656743Y-74346060D01*
X80633063Y-74406797D01*
X80609553Y-74436062D01*
X80602700Y-74440641D01*
X80600474Y-74442128D01*
X80553557Y-74451457D01*
X80541836Y-74447901D01*
X80534046Y-74444674D01*
X80534044Y-74444674D01*
X80530260Y-74443106D01*
X80526198Y-74442571D01*
X80526197Y-74442571D01*
X80377562Y-74423003D01*
X80373498Y-74422468D01*
X80369434Y-74423003D01*
X80220799Y-74442571D01*
X80220798Y-74442571D01*
X80216736Y-74443106D01*
X80212951Y-74444674D01*
X80212950Y-74444674D01*
X80078143Y-74500513D01*
X80070657Y-74503614D01*
X80067411Y-74506105D01*
X80067407Y-74506107D01*
X80029729Y-74535018D01*
X79983524Y-74547398D01*
X79942097Y-74523480D01*
X79933217Y-74507525D01*
X79932690Y-74506130D01*
X79873345Y-74349077D01*
X79777312Y-74209349D01*
X79650721Y-74096560D01*
X79500881Y-74017224D01*
X79336441Y-73975919D01*
X79332676Y-73975899D01*
X79332674Y-73975899D01*
X79249244Y-73975462D01*
X79166895Y-73975031D01*
X79161818Y-73976250D01*
X79005696Y-74013732D01*
X79005693Y-74013733D01*
X79002032Y-74014612D01*
X78998682Y-74016341D01*
X78881179Y-74076988D01*
X78833512Y-74080990D01*
X78796975Y-74050114D01*
X78792973Y-74002447D01*
X78794772Y-73997531D01*
X78798013Y-73989708D01*
X78817044Y-73943762D01*
X78823369Y-73895723D01*
X78837147Y-73791064D01*
X78837682Y-73787000D01*
X78817044Y-73630238D01*
X78756536Y-73484159D01*
X78660282Y-73358718D01*
X78534841Y-73262464D01*
X78492986Y-73245127D01*
X78392548Y-73203524D01*
X78392547Y-73203524D01*
X78388762Y-73201956D01*
X78384700Y-73201421D01*
X78384699Y-73201421D01*
X78236064Y-73181853D01*
X78232000Y-73181318D01*
X78227936Y-73181853D01*
X78079301Y-73201421D01*
X78079300Y-73201421D01*
X78075238Y-73201956D01*
X78071453Y-73203524D01*
X78071452Y-73203524D01*
X77971014Y-73245127D01*
X77929159Y-73262464D01*
X77803718Y-73358718D01*
X77707464Y-73484159D01*
X77646956Y-73630238D01*
X77626318Y-73787000D01*
X77626853Y-73791064D01*
X77634549Y-73849518D01*
X77622169Y-73895723D01*
X77616778Y-73901870D01*
X77519946Y-73998702D01*
X77475752Y-74017008D01*
X77460526Y-74015125D01*
X77390481Y-73997531D01*
X77304441Y-73975919D01*
X77300676Y-73975899D01*
X77300674Y-73975899D01*
X77217244Y-73975462D01*
X77134895Y-73975031D01*
X77129818Y-73976250D01*
X76973696Y-74013732D01*
X76973693Y-74013733D01*
X76970032Y-74014612D01*
X76966689Y-74016338D01*
X76966685Y-74016339D01*
X76924424Y-74038152D01*
X76819369Y-74092375D01*
X76816531Y-74094850D01*
X76816532Y-74094850D01*
X76696552Y-74199515D01*
X76691604Y-74203831D01*
X76689438Y-74206913D01*
X76689437Y-74206914D01*
X76629013Y-74292889D01*
X76594113Y-74342547D01*
X76592744Y-74346058D01*
X76592743Y-74346060D01*
X76533892Y-74497003D01*
X76533891Y-74497007D01*
X76532524Y-74500513D01*
X76532032Y-74504250D01*
X76510886Y-74664870D01*
X76510886Y-74664874D01*
X76510394Y-74668611D01*
X76528999Y-74837135D01*
X76530293Y-74840671D01*
X76530294Y-74840675D01*
X76538144Y-74862126D01*
X76587266Y-74996356D01*
X76681830Y-75137083D01*
X76807233Y-75251191D01*
X76956235Y-75332092D01*
X76959877Y-75333048D01*
X76959881Y-75333049D01*
X77068987Y-75361672D01*
X77120233Y-75375116D01*
X77210762Y-75376538D01*
X77285991Y-75377720D01*
X77285993Y-75377720D01*
X77289760Y-75377779D01*
X77455029Y-75339928D01*
X77586154Y-75273979D01*
X77633859Y-75270476D01*
X77671977Y-75305897D01*
X77700649Y-75375116D01*
X77709026Y-75395341D01*
X77711517Y-75398587D01*
X77711519Y-75398591D01*
X77803108Y-75517953D01*
X77815488Y-75564158D01*
X77791570Y-75605585D01*
X77753523Y-75618500D01*
X76336000Y-75618500D01*
X76291806Y-75600194D01*
X76273500Y-75556000D01*
X76273500Y-67928972D01*
X76291806Y-67884778D01*
X76336000Y-67866472D01*
X76380194Y-67884778D01*
X76385585Y-67890925D01*
X76415163Y-67929472D01*
X76415166Y-67929475D01*
X76417656Y-67932720D01*
X76543097Y-68028974D01*
X76628973Y-68064545D01*
X76662795Y-68098368D01*
X76662796Y-68146204D01*
X76656187Y-68158224D01*
X76645100Y-68174000D01*
X76594113Y-68246547D01*
X76592746Y-68250054D01*
X76592743Y-68250060D01*
X76533892Y-68401003D01*
X76533891Y-68401006D01*
X76532524Y-68404513D01*
X76532032Y-68408250D01*
X76510886Y-68568870D01*
X76510886Y-68568874D01*
X76510394Y-68572611D01*
X76528999Y-68741135D01*
X76530293Y-68744671D01*
X76530294Y-68744675D01*
X76556149Y-68815325D01*
X76587266Y-68900356D01*
X76598083Y-68916453D01*
X76668264Y-69020894D01*
X76681830Y-69041083D01*
X76807233Y-69155191D01*
X76956235Y-69236092D01*
X76959877Y-69237048D01*
X76959881Y-69237049D01*
X77116585Y-69278159D01*
X77120233Y-69279116D01*
X77210376Y-69280532D01*
X77285991Y-69281720D01*
X77285993Y-69281720D01*
X77289760Y-69281779D01*
X77455029Y-69243928D01*
X77458388Y-69242238D01*
X77458395Y-69242236D01*
X77463194Y-69239822D01*
X77510901Y-69236319D01*
X77547112Y-69267576D01*
X77553241Y-69303815D01*
X77551250Y-69318938D01*
X77571888Y-69475700D01*
X77573456Y-69479485D01*
X77573456Y-69479486D01*
X77578089Y-69490670D01*
X77632396Y-69621779D01*
X77728650Y-69747220D01*
X77731895Y-69749710D01*
X77731898Y-69749713D01*
X77772653Y-69780985D01*
X77796571Y-69822412D01*
X77784191Y-69868617D01*
X77772654Y-69880154D01*
X77760268Y-69889658D01*
X77757778Y-69892903D01*
X77757774Y-69892907D01*
X77673554Y-70002666D01*
X77632127Y-70026584D01*
X77594723Y-70019854D01*
X77585743Y-70015099D01*
X77468881Y-69953224D01*
X77304441Y-69911919D01*
X77300676Y-69911899D01*
X77300674Y-69911899D01*
X77217244Y-69911462D01*
X77134895Y-69911031D01*
X77102602Y-69918784D01*
X76973696Y-69949732D01*
X76973693Y-69949733D01*
X76970032Y-69950612D01*
X76966689Y-69952338D01*
X76966685Y-69952339D01*
X76902316Y-69985563D01*
X76819369Y-70028375D01*
X76789231Y-70054666D01*
X76696334Y-70135705D01*
X76691604Y-70139831D01*
X76689438Y-70142913D01*
X76689437Y-70142914D01*
X76667916Y-70173535D01*
X76594113Y-70278547D01*
X76592745Y-70282056D01*
X76592743Y-70282060D01*
X76533892Y-70433003D01*
X76533891Y-70433007D01*
X76532524Y-70436513D01*
X76532032Y-70440250D01*
X76510886Y-70600870D01*
X76510886Y-70600874D01*
X76510394Y-70604611D01*
X76528999Y-70773135D01*
X76530293Y-70776671D01*
X76530294Y-70776675D01*
X76566642Y-70876000D01*
X76587266Y-70932356D01*
X76611973Y-70969124D01*
X76674673Y-71062432D01*
X76681830Y-71073083D01*
X76684617Y-71075619D01*
X76800272Y-71180857D01*
X76820640Y-71224140D01*
X76804436Y-71269147D01*
X76796256Y-71276669D01*
X76790966Y-71280728D01*
X76790964Y-71280730D01*
X76787718Y-71283221D01*
X76691464Y-71408662D01*
X76689897Y-71412445D01*
X76636357Y-71541703D01*
X76630956Y-71554741D01*
X76630421Y-71558803D01*
X76630421Y-71558804D01*
X76610892Y-71707143D01*
X76610318Y-71711503D01*
X76610853Y-71715567D01*
X76623317Y-71810237D01*
X76630956Y-71868265D01*
X76632524Y-71872050D01*
X76632524Y-71872051D01*
X76679402Y-71985224D01*
X76691464Y-72014344D01*
X76693956Y-72017592D01*
X76693958Y-72017595D01*
X76728179Y-72062193D01*
X76740560Y-72108399D01*
X76719681Y-72147338D01*
X76691604Y-72171831D01*
X76689438Y-72174913D01*
X76689437Y-72174914D01*
X76663632Y-72211631D01*
X76594113Y-72310547D01*
X76592744Y-72314058D01*
X76592743Y-72314060D01*
X76533892Y-72465003D01*
X76533891Y-72465007D01*
X76532524Y-72468513D01*
X76532032Y-72472250D01*
X76510886Y-72632870D01*
X76510886Y-72632873D01*
X76510394Y-72636611D01*
X76528999Y-72805135D01*
X76530293Y-72808671D01*
X76530294Y-72808675D01*
X76552948Y-72870578D01*
X76587266Y-72964356D01*
X76600431Y-72983947D01*
X76671650Y-73089933D01*
X76681830Y-73105083D01*
X76807233Y-73219191D01*
X76956235Y-73300092D01*
X76959877Y-73301048D01*
X76959881Y-73301049D01*
X77116585Y-73342159D01*
X77120233Y-73343116D01*
X77210762Y-73344538D01*
X77285991Y-73345720D01*
X77285993Y-73345720D01*
X77289760Y-73345779D01*
X77455029Y-73307928D01*
X77458393Y-73306236D01*
X77458396Y-73306235D01*
X77545424Y-73262464D01*
X77606498Y-73231747D01*
X77609363Y-73229300D01*
X77609366Y-73229298D01*
X77732561Y-73124079D01*
X77732564Y-73124076D01*
X77735423Y-73121634D01*
X77737618Y-73118579D01*
X77737621Y-73118576D01*
X77832161Y-72987009D01*
X77832162Y-72987007D01*
X77834361Y-72983947D01*
X77897601Y-72826634D01*
X77921490Y-72658778D01*
X77921645Y-72644000D01*
X77901276Y-72475680D01*
X77841345Y-72317077D01*
X77745312Y-72177349D01*
X77711550Y-72147268D01*
X77690731Y-72104201D01*
X77703543Y-72062555D01*
X77738042Y-72017595D01*
X77738044Y-72017592D01*
X77740536Y-72014344D01*
X77752598Y-71985224D01*
X77760254Y-71966740D01*
X77965058Y-71966740D01*
X77965593Y-71970804D01*
X77977625Y-72062193D01*
X77985696Y-72123502D01*
X77987264Y-72127287D01*
X77987264Y-72127288D01*
X78044266Y-72264902D01*
X78046204Y-72269581D01*
X78142458Y-72395022D01*
X78267899Y-72491276D01*
X78271682Y-72492843D01*
X78410192Y-72550216D01*
X78410193Y-72550216D01*
X78413978Y-72551784D01*
X78418040Y-72552319D01*
X78418041Y-72552319D01*
X78435692Y-72554643D01*
X78489219Y-72561689D01*
X78530645Y-72585606D01*
X78542301Y-72629105D01*
X78542926Y-72629112D01*
X78542902Y-72631352D01*
X78543026Y-72631812D01*
X78542394Y-72636611D01*
X78560999Y-72805135D01*
X78562293Y-72808671D01*
X78562294Y-72808675D01*
X78584948Y-72870578D01*
X78619266Y-72964356D01*
X78632431Y-72983947D01*
X78703650Y-73089933D01*
X78713830Y-73105083D01*
X78839233Y-73219191D01*
X78988235Y-73300092D01*
X78991877Y-73301048D01*
X78991881Y-73301049D01*
X79148585Y-73342159D01*
X79152233Y-73343116D01*
X79242762Y-73344538D01*
X79317991Y-73345720D01*
X79317993Y-73345720D01*
X79321760Y-73345779D01*
X79487029Y-73307928D01*
X79490393Y-73306236D01*
X79490396Y-73306235D01*
X79577424Y-73262464D01*
X79638498Y-73231747D01*
X79641363Y-73229300D01*
X79641366Y-73229298D01*
X79764561Y-73124079D01*
X79764564Y-73124076D01*
X79767423Y-73121634D01*
X79769618Y-73118579D01*
X79769621Y-73118576D01*
X79864161Y-72987009D01*
X79864162Y-72987007D01*
X79866361Y-72983947D01*
X79929601Y-72826634D01*
X79953490Y-72658778D01*
X79953645Y-72644000D01*
X79952751Y-72636611D01*
X84638394Y-72636611D01*
X84656999Y-72805135D01*
X84658293Y-72808671D01*
X84658294Y-72808675D01*
X84680948Y-72870578D01*
X84715266Y-72964356D01*
X84728431Y-72983947D01*
X84799650Y-73089933D01*
X84809830Y-73105083D01*
X84935233Y-73219191D01*
X85084235Y-73300092D01*
X85087877Y-73301048D01*
X85087881Y-73301049D01*
X85244585Y-73342159D01*
X85248233Y-73343116D01*
X85338762Y-73344538D01*
X85413991Y-73345720D01*
X85413993Y-73345720D01*
X85417760Y-73345779D01*
X85583029Y-73307928D01*
X85586393Y-73306236D01*
X85586396Y-73306235D01*
X85673424Y-73262464D01*
X85734498Y-73231747D01*
X85737363Y-73229300D01*
X85737366Y-73229298D01*
X85860561Y-73124079D01*
X85860564Y-73124076D01*
X85863423Y-73121634D01*
X85865618Y-73118579D01*
X85865621Y-73118576D01*
X85960161Y-72987009D01*
X85960162Y-72987007D01*
X85962361Y-72983947D01*
X86025601Y-72826634D01*
X86049490Y-72658778D01*
X86049645Y-72644000D01*
X86029276Y-72475680D01*
X85969345Y-72317077D01*
X85873312Y-72177349D01*
X85746721Y-72064560D01*
X85596881Y-71985224D01*
X85432441Y-71943919D01*
X85428676Y-71943899D01*
X85428674Y-71943899D01*
X85345244Y-71943462D01*
X85262895Y-71943031D01*
X85255373Y-71944837D01*
X85101696Y-71981732D01*
X85101693Y-71981733D01*
X85098032Y-71982612D01*
X85094689Y-71984338D01*
X85094685Y-71984339D01*
X85043882Y-72010561D01*
X84947369Y-72060375D01*
X84932758Y-72073121D01*
X84823597Y-72168348D01*
X84819604Y-72171831D01*
X84817438Y-72174913D01*
X84817437Y-72174914D01*
X84791632Y-72211631D01*
X84722113Y-72310547D01*
X84720744Y-72314058D01*
X84720743Y-72314060D01*
X84661892Y-72465003D01*
X84661891Y-72465007D01*
X84660524Y-72468513D01*
X84660032Y-72472250D01*
X84638886Y-72632870D01*
X84638886Y-72632873D01*
X84638394Y-72636611D01*
X79952751Y-72636611D01*
X79933276Y-72475680D01*
X79873345Y-72317077D01*
X79777312Y-72177349D01*
X79650721Y-72064560D01*
X79500881Y-71985224D01*
X79336441Y-71943919D01*
X79332676Y-71943899D01*
X79332674Y-71943899D01*
X79227827Y-71943350D01*
X79183729Y-71924813D01*
X79166189Y-71889009D01*
X79156319Y-71814041D01*
X79156319Y-71814040D01*
X79155784Y-71809978D01*
X79146101Y-71786600D01*
X79096843Y-71667682D01*
X79095276Y-71663899D01*
X78999022Y-71538458D01*
X78873581Y-71442204D01*
X78784767Y-71405416D01*
X78731288Y-71383264D01*
X78731287Y-71383264D01*
X78727502Y-71381696D01*
X78723440Y-71381161D01*
X78723439Y-71381161D01*
X78574804Y-71361593D01*
X78570740Y-71361058D01*
X78566676Y-71361593D01*
X78418041Y-71381161D01*
X78418040Y-71381161D01*
X78413978Y-71381696D01*
X78410193Y-71383264D01*
X78410192Y-71383264D01*
X78356713Y-71405416D01*
X78267899Y-71442204D01*
X78142458Y-71538458D01*
X78046204Y-71663899D01*
X78044637Y-71667682D01*
X77995380Y-71786600D01*
X77985696Y-71809978D01*
X77965058Y-71966740D01*
X77760254Y-71966740D01*
X77799476Y-71872051D01*
X77799476Y-71872050D01*
X77801044Y-71868265D01*
X77808684Y-71810237D01*
X77821147Y-71715567D01*
X77821682Y-71711503D01*
X77821108Y-71707143D01*
X77801579Y-71558804D01*
X77801579Y-71558803D01*
X77801044Y-71554741D01*
X77795644Y-71541703D01*
X77742103Y-71412445D01*
X77740536Y-71408662D01*
X77666354Y-71311986D01*
X77646773Y-71286467D01*
X77646772Y-71286466D01*
X77644282Y-71283221D01*
X77634127Y-71275429D01*
X77610211Y-71234002D01*
X77622592Y-71187796D01*
X77631586Y-71178320D01*
X77732557Y-71092082D01*
X77732560Y-71092079D01*
X77735423Y-71089634D01*
X77737619Y-71086578D01*
X77737621Y-71086576D01*
X77832161Y-70955009D01*
X77832162Y-70955007D01*
X77834361Y-70951947D01*
X77847542Y-70919159D01*
X77881011Y-70884982D01*
X77894692Y-70882186D01*
X77894490Y-70881172D01*
X77920492Y-70876000D01*
X77920493Y-70876000D01*
X77933078Y-70873497D01*
X77969188Y-70877054D01*
X78028002Y-70901416D01*
X78028004Y-70901416D01*
X78031788Y-70902984D01*
X78035850Y-70903519D01*
X78035851Y-70903519D01*
X78184486Y-70923087D01*
X78188550Y-70923622D01*
X78192614Y-70923087D01*
X78341249Y-70903519D01*
X78341250Y-70903519D01*
X78345312Y-70902984D01*
X78349097Y-70901416D01*
X78349098Y-70901416D01*
X78487608Y-70844043D01*
X78491391Y-70842476D01*
X78494639Y-70839984D01*
X78494642Y-70839982D01*
X78498049Y-70837368D01*
X78544254Y-70824987D01*
X78585681Y-70848904D01*
X78594790Y-70865473D01*
X78619266Y-70932356D01*
X78643973Y-70969124D01*
X78706673Y-71062432D01*
X78713830Y-71073083D01*
X78839233Y-71187191D01*
X78988235Y-71268092D01*
X78991877Y-71269048D01*
X78991881Y-71269049D01*
X79139814Y-71307858D01*
X79152233Y-71311116D01*
X79242762Y-71312538D01*
X79317991Y-71313720D01*
X79317993Y-71313720D01*
X79321760Y-71313779D01*
X79487029Y-71275928D01*
X79490393Y-71274236D01*
X79490396Y-71274235D01*
X79562264Y-71238089D01*
X79638498Y-71199747D01*
X79641363Y-71197300D01*
X79641366Y-71197298D01*
X79764561Y-71092079D01*
X79764564Y-71092076D01*
X79767423Y-71089634D01*
X79779823Y-71072378D01*
X79820475Y-71047171D01*
X79863019Y-71057858D01*
X79863908Y-71056319D01*
X79867453Y-71058366D01*
X79870706Y-71060862D01*
X79874492Y-71062430D01*
X79874495Y-71062432D01*
X80012999Y-71119802D01*
X80013000Y-71119802D01*
X80016785Y-71121370D01*
X80020847Y-71121905D01*
X80020848Y-71121905D01*
X80169483Y-71141473D01*
X80173547Y-71142008D01*
X80177611Y-71141473D01*
X80326246Y-71121905D01*
X80326247Y-71121905D01*
X80330309Y-71121370D01*
X80334094Y-71119802D01*
X80334095Y-71119802D01*
X80472605Y-71062429D01*
X80476388Y-71060862D01*
X80479634Y-71058371D01*
X80479638Y-71058369D01*
X80595945Y-70969124D01*
X80642150Y-70956744D01*
X80685868Y-70983850D01*
X80738673Y-71062432D01*
X80745830Y-71073083D01*
X80871233Y-71187191D01*
X81020235Y-71268092D01*
X81023877Y-71269048D01*
X81023881Y-71269049D01*
X81171814Y-71307858D01*
X81184233Y-71311116D01*
X81274762Y-71312538D01*
X81349991Y-71313720D01*
X81349993Y-71313720D01*
X81353760Y-71313779D01*
X81519029Y-71275928D01*
X81522393Y-71274236D01*
X81522396Y-71274235D01*
X81594264Y-71238089D01*
X81670498Y-71199747D01*
X81673363Y-71197300D01*
X81673366Y-71197298D01*
X81796561Y-71092079D01*
X81796564Y-71092076D01*
X81799423Y-71089634D01*
X81801619Y-71086578D01*
X81801621Y-71086576D01*
X81896161Y-70955009D01*
X81896162Y-70955007D01*
X81898361Y-70951947D01*
X81961601Y-70794634D01*
X81985490Y-70626778D01*
X81985568Y-70619315D01*
X81985624Y-70614038D01*
X81985624Y-70614032D01*
X81985645Y-70612000D01*
X81972859Y-70506344D01*
X81985722Y-70460270D01*
X82027397Y-70436788D01*
X82043061Y-70436870D01*
X82055792Y-70438546D01*
X82059856Y-70438011D01*
X82208491Y-70418443D01*
X82208492Y-70418443D01*
X82212554Y-70417908D01*
X82216339Y-70416340D01*
X82216340Y-70416340D01*
X82354850Y-70358967D01*
X82358633Y-70357400D01*
X82484074Y-70261146D01*
X82580328Y-70135705D01*
X82589541Y-70113463D01*
X82639268Y-69993412D01*
X82639268Y-69993411D01*
X82640836Y-69989626D01*
X82645397Y-69954986D01*
X82660939Y-69836928D01*
X82660939Y-69836926D01*
X82661474Y-69832864D01*
X82660908Y-69828561D01*
X82641371Y-69680165D01*
X82641371Y-69680164D01*
X82640836Y-69676102D01*
X82628961Y-69647432D01*
X82581895Y-69533806D01*
X82580328Y-69530023D01*
X82484074Y-69404582D01*
X82358633Y-69308328D01*
X82345398Y-69302846D01*
X82216340Y-69249388D01*
X82216339Y-69249388D01*
X82212554Y-69247820D01*
X82208492Y-69247285D01*
X82208491Y-69247285D01*
X82059856Y-69227717D01*
X82055792Y-69227182D01*
X82051728Y-69227717D01*
X81903093Y-69247285D01*
X81903092Y-69247285D01*
X81899030Y-69247820D01*
X81895245Y-69249388D01*
X81895244Y-69249388D01*
X81766186Y-69302846D01*
X81752951Y-69308328D01*
X81627510Y-69404582D01*
X81531256Y-69530023D01*
X81529689Y-69533806D01*
X81482624Y-69647432D01*
X81470748Y-69676102D01*
X81470213Y-69680164D01*
X81470213Y-69680165D01*
X81450676Y-69828561D01*
X81450110Y-69832864D01*
X81451313Y-69841996D01*
X81451663Y-69844658D01*
X81439283Y-69890864D01*
X81397857Y-69914782D01*
X81374473Y-69913434D01*
X81368441Y-69911919D01*
X81364676Y-69911899D01*
X81364674Y-69911899D01*
X81281244Y-69911462D01*
X81198895Y-69911031D01*
X81166602Y-69918784D01*
X81037696Y-69949732D01*
X81037693Y-69949733D01*
X81034032Y-69950612D01*
X81030689Y-69952338D01*
X81030685Y-69952339D01*
X80966316Y-69985563D01*
X80883369Y-70028375D01*
X80853231Y-70054666D01*
X80760334Y-70135705D01*
X80755604Y-70139831D01*
X80744426Y-70155736D01*
X80742674Y-70158229D01*
X80702285Y-70183859D01*
X80655601Y-70173424D01*
X80641955Y-70160337D01*
X80604322Y-70111292D01*
X80604319Y-70111289D01*
X80601829Y-70108044D01*
X80476388Y-70011790D01*
X80464469Y-70006853D01*
X80334095Y-69952850D01*
X80334094Y-69952850D01*
X80330309Y-69951282D01*
X80326247Y-69950747D01*
X80326246Y-69950747D01*
X80177611Y-69931179D01*
X80173547Y-69930644D01*
X80169483Y-69931179D01*
X80020848Y-69950747D01*
X80020847Y-69950747D01*
X80016785Y-69951282D01*
X80013000Y-69952850D01*
X80012999Y-69952850D01*
X79882625Y-70006853D01*
X79870706Y-70011790D01*
X79867460Y-70014281D01*
X79867456Y-70014283D01*
X79781006Y-70080618D01*
X79734801Y-70092998D01*
X79701383Y-70077698D01*
X79650721Y-70032560D01*
X79500881Y-69953224D01*
X79336441Y-69911919D01*
X79332676Y-69911899D01*
X79332674Y-69911899D01*
X79249244Y-69911462D01*
X79166895Y-69911031D01*
X79134602Y-69918784D01*
X79005696Y-69949732D01*
X79005693Y-69949733D01*
X79002032Y-69950612D01*
X78998689Y-69952338D01*
X78998685Y-69952339D01*
X78934316Y-69985563D01*
X78851369Y-70028375D01*
X78821227Y-70054670D01*
X78819373Y-70056287D01*
X78774036Y-70071544D01*
X78731189Y-70050275D01*
X78720546Y-70033110D01*
X78713086Y-70015099D01*
X78616832Y-69889658D01*
X78613587Y-69887168D01*
X78613584Y-69887165D01*
X78572829Y-69855893D01*
X78548911Y-69814466D01*
X78561291Y-69768261D01*
X78572829Y-69756723D01*
X78573057Y-69756548D01*
X78585214Y-69747220D01*
X78681468Y-69621779D01*
X78735775Y-69490670D01*
X78740408Y-69479486D01*
X78740408Y-69479485D01*
X78741976Y-69475700D01*
X78762614Y-69318938D01*
X78743133Y-69170963D01*
X78742511Y-69166239D01*
X78742511Y-69166238D01*
X78741976Y-69162176D01*
X78739828Y-69156989D01*
X78683035Y-69019880D01*
X78681468Y-69016097D01*
X78585214Y-68890656D01*
X78459773Y-68794402D01*
X78391509Y-68766126D01*
X78317480Y-68735462D01*
X78317479Y-68735462D01*
X78313694Y-68733894D01*
X78309632Y-68733359D01*
X78309631Y-68733359D01*
X78160996Y-68713791D01*
X78156932Y-68713256D01*
X78152868Y-68713791D01*
X78004233Y-68733359D01*
X78004232Y-68733359D01*
X78000170Y-68733894D01*
X77996384Y-68735462D01*
X77992429Y-68736522D01*
X77992104Y-68735309D01*
X77948918Y-68735308D01*
X77915095Y-68701482D01*
X77910961Y-68668760D01*
X77921203Y-68596796D01*
X77921203Y-68596793D01*
X77921490Y-68594778D01*
X77921645Y-68580000D01*
X77901276Y-68411680D01*
X77841345Y-68253077D01*
X77770559Y-68150083D01*
X77747444Y-68116451D01*
X77745312Y-68113349D01*
X77690402Y-68064426D01*
X77669583Y-68021359D01*
X77687785Y-67973567D01*
X78006867Y-67654485D01*
X78051061Y-67636179D01*
X78067236Y-67639388D01*
X78067497Y-67638416D01*
X78071452Y-67639476D01*
X78075238Y-67641044D01*
X78079300Y-67641579D01*
X78079301Y-67641579D01*
X78227936Y-67661147D01*
X78232000Y-67661682D01*
X78236064Y-67661147D01*
X78384699Y-67641579D01*
X78384700Y-67641579D01*
X78388762Y-67641044D01*
X78392547Y-67639476D01*
X78392548Y-67639476D01*
X78531058Y-67582103D01*
X78534841Y-67580536D01*
X78660282Y-67484282D01*
X78756536Y-67358841D01*
X78763572Y-67341855D01*
X78815476Y-67216548D01*
X78815476Y-67216547D01*
X78817044Y-67212762D01*
X78817660Y-67208082D01*
X78817817Y-67207810D01*
X78818639Y-67204743D01*
X78819461Y-67204963D01*
X78841576Y-67166656D01*
X78887781Y-67154274D01*
X78909448Y-67161314D01*
X78988235Y-67204092D01*
X78991877Y-67205048D01*
X78991881Y-67205049D01*
X79127620Y-67240659D01*
X79152233Y-67247116D01*
X79181211Y-67247571D01*
X79229738Y-67248334D01*
X79273639Y-67267332D01*
X79291248Y-67311808D01*
X79286498Y-67334744D01*
X79267139Y-67381481D01*
X79264961Y-67386738D01*
X79264426Y-67390800D01*
X79264426Y-67390801D01*
X79252908Y-67478290D01*
X79244323Y-67543500D01*
X79264961Y-67700262D01*
X79266529Y-67704047D01*
X79266529Y-67704048D01*
X79291594Y-67764560D01*
X79325469Y-67846341D01*
X79421723Y-67971782D01*
X79424968Y-67974272D01*
X79437409Y-67983818D01*
X79547164Y-68068036D01*
X79550947Y-68069603D01*
X79689457Y-68126976D01*
X79689458Y-68126976D01*
X79693243Y-68128544D01*
X79697305Y-68129079D01*
X79697306Y-68129079D01*
X79845941Y-68148647D01*
X79850005Y-68149182D01*
X79854069Y-68148647D01*
X80002704Y-68129079D01*
X80002705Y-68129079D01*
X80006767Y-68128544D01*
X80010552Y-68126976D01*
X80010553Y-68126976D01*
X80149063Y-68069603D01*
X80152846Y-68068036D01*
X80246200Y-67996403D01*
X80292406Y-67984023D01*
X80328442Y-68001794D01*
X80605427Y-68278779D01*
X80623733Y-68322973D01*
X80619465Y-68345674D01*
X80596524Y-68404513D01*
X80596032Y-68408250D01*
X80574886Y-68568870D01*
X80574886Y-68568874D01*
X80574394Y-68572611D01*
X80592999Y-68741135D01*
X80594293Y-68744671D01*
X80594294Y-68744675D01*
X80620149Y-68815325D01*
X80651266Y-68900356D01*
X80662083Y-68916453D01*
X80732264Y-69020894D01*
X80745830Y-69041083D01*
X80871233Y-69155191D01*
X81020235Y-69236092D01*
X81023877Y-69237048D01*
X81023881Y-69237049D01*
X81180585Y-69278159D01*
X81184233Y-69279116D01*
X81274376Y-69280532D01*
X81349991Y-69281720D01*
X81349993Y-69281720D01*
X81353760Y-69281779D01*
X81519029Y-69243928D01*
X81522393Y-69242236D01*
X81522396Y-69242235D01*
X81632649Y-69186783D01*
X81670498Y-69167747D01*
X81673363Y-69165300D01*
X81673366Y-69165298D01*
X81796561Y-69060079D01*
X81796564Y-69060076D01*
X81799423Y-69057634D01*
X81801618Y-69054579D01*
X81801621Y-69054576D01*
X81896161Y-68923009D01*
X81896162Y-68923007D01*
X81898361Y-68919947D01*
X81961601Y-68762634D01*
X81985490Y-68594778D01*
X81985645Y-68580000D01*
X81984751Y-68572611D01*
X81984025Y-68566609D01*
X81996889Y-68520536D01*
X82038565Y-68497055D01*
X82069988Y-68501360D01*
X82115576Y-68520243D01*
X82135452Y-68528476D01*
X82135453Y-68528476D01*
X82139238Y-68530044D01*
X82143300Y-68530579D01*
X82143301Y-68530579D01*
X82291936Y-68550147D01*
X82296000Y-68550682D01*
X82300064Y-68550147D01*
X82448699Y-68530579D01*
X82448700Y-68530579D01*
X82452762Y-68530044D01*
X82456546Y-68528477D01*
X82460505Y-68527416D01*
X82461171Y-68529901D01*
X82500989Y-68529992D01*
X82521133Y-68543486D01*
X82597839Y-68620192D01*
X82615768Y-68657527D01*
X82618638Y-68683522D01*
X82624999Y-68741135D01*
X82683266Y-68900356D01*
X82694083Y-68916453D01*
X82764264Y-69020894D01*
X82777830Y-69041083D01*
X82903233Y-69155191D01*
X83052235Y-69236092D01*
X83055877Y-69237048D01*
X83055881Y-69237049D01*
X83212585Y-69278159D01*
X83216233Y-69279116D01*
X83217350Y-69279134D01*
X83257931Y-69302846D01*
X83270071Y-69349116D01*
X83265892Y-69364552D01*
X83234956Y-69439238D01*
X83234421Y-69443300D01*
X83234421Y-69443301D01*
X83223431Y-69526777D01*
X83214318Y-69596000D01*
X83214853Y-69600064D01*
X83225845Y-69683553D01*
X83234956Y-69752762D01*
X83236523Y-69756544D01*
X83237584Y-69760503D01*
X83235078Y-69761174D01*
X83235041Y-69800910D01*
X83221515Y-69821133D01*
X83148063Y-69894585D01*
X83138593Y-69902357D01*
X83126823Y-69910222D01*
X83121667Y-69913667D01*
X83118248Y-69918784D01*
X83116483Y-69921425D01*
X83079110Y-69947472D01*
X83076408Y-69948121D01*
X83066032Y-69950612D01*
X83062689Y-69952338D01*
X83062685Y-69952339D01*
X82998316Y-69985563D01*
X82915369Y-70028375D01*
X82885231Y-70054666D01*
X82792334Y-70135705D01*
X82787604Y-70139831D01*
X82785438Y-70142913D01*
X82785437Y-70142914D01*
X82763916Y-70173535D01*
X82690113Y-70278547D01*
X82688745Y-70282056D01*
X82688743Y-70282060D01*
X82629892Y-70433003D01*
X82629891Y-70433007D01*
X82628524Y-70436513D01*
X82628032Y-70440250D01*
X82606886Y-70600870D01*
X82606886Y-70600874D01*
X82606394Y-70604611D01*
X82624999Y-70773135D01*
X82626293Y-70776671D01*
X82626294Y-70776675D01*
X82662642Y-70876000D01*
X82683266Y-70932356D01*
X82707973Y-70969124D01*
X82770673Y-71062432D01*
X82777830Y-71073083D01*
X82903233Y-71187191D01*
X83052235Y-71268092D01*
X83055877Y-71269048D01*
X83055881Y-71269049D01*
X83203814Y-71307858D01*
X83216233Y-71311116D01*
X83306762Y-71312538D01*
X83381991Y-71313720D01*
X83381993Y-71313720D01*
X83385760Y-71313779D01*
X83551029Y-71275928D01*
X83554393Y-71274236D01*
X83554396Y-71274235D01*
X83626264Y-71238089D01*
X83702498Y-71199747D01*
X83705363Y-71197300D01*
X83705366Y-71197298D01*
X83828561Y-71092079D01*
X83828564Y-71092076D01*
X83831423Y-71089634D01*
X83833619Y-71086578D01*
X83833621Y-71086576D01*
X83928161Y-70955009D01*
X83928162Y-70955007D01*
X83930361Y-70951947D01*
X83993601Y-70794634D01*
X84017490Y-70626778D01*
X84017568Y-70619315D01*
X84017624Y-70614038D01*
X84017624Y-70614032D01*
X84017645Y-70612000D01*
X83997276Y-70443680D01*
X83995337Y-70438546D01*
X83965266Y-70358967D01*
X83937345Y-70285077D01*
X83935212Y-70281973D01*
X83932815Y-70278485D01*
X83922872Y-70231694D01*
X83948927Y-70191577D01*
X83969068Y-70183853D01*
X83968743Y-70182639D01*
X83972700Y-70181579D01*
X83976762Y-70181044D01*
X83980547Y-70179476D01*
X83980548Y-70179476D01*
X84119058Y-70122103D01*
X84122841Y-70120536D01*
X84248282Y-70024282D01*
X84344536Y-69898841D01*
X84382173Y-69807978D01*
X84403476Y-69756548D01*
X84403477Y-69756544D01*
X84405044Y-69752762D01*
X84414156Y-69683553D01*
X84425147Y-69600064D01*
X84425682Y-69596000D01*
X84416569Y-69526777D01*
X84405579Y-69443301D01*
X84405579Y-69443300D01*
X84405044Y-69439238D01*
X84348549Y-69302846D01*
X84346103Y-69296942D01*
X84344536Y-69293159D01*
X84248282Y-69167718D01*
X84122841Y-69071464D01*
X83976762Y-69010956D01*
X83972699Y-69010421D01*
X83968986Y-69009426D01*
X83931036Y-68980304D01*
X83924794Y-68932878D01*
X83929525Y-68921111D01*
X83930361Y-68919947D01*
X83931767Y-68916451D01*
X83992197Y-68766126D01*
X83993601Y-68762634D01*
X84017490Y-68594778D01*
X84017645Y-68580000D01*
X83997276Y-68411680D01*
X83937345Y-68253077D01*
X83866559Y-68150083D01*
X83843444Y-68116451D01*
X83841312Y-68113349D01*
X83714721Y-68000560D01*
X83580459Y-67929472D01*
X83568209Y-67922986D01*
X83568208Y-67922986D01*
X83564881Y-67921224D01*
X83400441Y-67879919D01*
X83396676Y-67879899D01*
X83396674Y-67879899D01*
X83313244Y-67879462D01*
X83230895Y-67879031D01*
X83223377Y-67880836D01*
X83069696Y-67917732D01*
X83069693Y-67917733D01*
X83066032Y-67918612D01*
X83062689Y-67920338D01*
X83062685Y-67920339D01*
X82987910Y-67958934D01*
X82940242Y-67962936D01*
X82903705Y-67932061D01*
X82897279Y-67911553D01*
X82881579Y-67792301D01*
X82881579Y-67792300D01*
X82881044Y-67788238D01*
X82871130Y-67764302D01*
X82822103Y-67645942D01*
X82820536Y-67642159D01*
X82724282Y-67516718D01*
X82685256Y-67486772D01*
X82602090Y-67422957D01*
X82598841Y-67420464D01*
X82597539Y-67419925D01*
X82568974Y-67382703D01*
X82575214Y-67335277D01*
X82591295Y-67316939D01*
X82672664Y-67254502D01*
X82672668Y-67254498D01*
X82675913Y-67252008D01*
X82679622Y-67247175D01*
X82709140Y-67208706D01*
X82772167Y-67126567D01*
X82788116Y-67088062D01*
X82831107Y-66984274D01*
X82831107Y-66984273D01*
X82832675Y-66980488D01*
X82840894Y-66918062D01*
X82852778Y-66827790D01*
X82853313Y-66823726D01*
X82832675Y-66666964D01*
X82792959Y-66571080D01*
X82773734Y-66524668D01*
X82772167Y-66520885D01*
X82675913Y-66395444D01*
X82550472Y-66299190D01*
X82508465Y-66281790D01*
X82408179Y-66240250D01*
X82408178Y-66240250D01*
X82404393Y-66238682D01*
X82400331Y-66238147D01*
X82400330Y-66238147D01*
X82251695Y-66218579D01*
X82247631Y-66218044D01*
X82243567Y-66218579D01*
X82094932Y-66238147D01*
X82094931Y-66238147D01*
X82090869Y-66238682D01*
X82002531Y-66275273D01*
X81978617Y-66280029D01*
X81977943Y-66280029D01*
X81971905Y-66278828D01*
X81969211Y-66279364D01*
X81926623Y-66261723D01*
X81912352Y-66239621D01*
X81906677Y-66224601D01*
X81905345Y-66221077D01*
X81809312Y-66081349D01*
X81682721Y-65968560D01*
X81532881Y-65889224D01*
X81368441Y-65847919D01*
X81364676Y-65847899D01*
X81364674Y-65847899D01*
X81281244Y-65847462D01*
X81198895Y-65847031D01*
X81161173Y-65856087D01*
X81037696Y-65885732D01*
X81037693Y-65885733D01*
X81034032Y-65886612D01*
X81030689Y-65888338D01*
X81030685Y-65888339D01*
X80981482Y-65913735D01*
X80883369Y-65964375D01*
X80755604Y-66075831D01*
X80753438Y-66078913D01*
X80753437Y-66078914D01*
X80723670Y-66121269D01*
X80658113Y-66214547D01*
X80656744Y-66218058D01*
X80656743Y-66218060D01*
X80597892Y-66369003D01*
X80597891Y-66369007D01*
X80596524Y-66372513D01*
X80596032Y-66376250D01*
X80574886Y-66536870D01*
X80574886Y-66536874D01*
X80574394Y-66540611D01*
X80592999Y-66709135D01*
X80594293Y-66712671D01*
X80594294Y-66712675D01*
X80602144Y-66734126D01*
X80651266Y-66868356D01*
X80680609Y-66912023D01*
X80720311Y-66971106D01*
X80745830Y-67009083D01*
X80871233Y-67123191D01*
X81020235Y-67204092D01*
X81023877Y-67205048D01*
X81023881Y-67205049D01*
X81159620Y-67240659D01*
X81184233Y-67247116D01*
X81274762Y-67248538D01*
X81349991Y-67249720D01*
X81349993Y-67249720D01*
X81353760Y-67249779D01*
X81519029Y-67211928D01*
X81667341Y-67137335D01*
X81715046Y-67133832D01*
X81745007Y-67155124D01*
X81816856Y-67248760D01*
X81816859Y-67248763D01*
X81819349Y-67252008D01*
X81944790Y-67348262D01*
X81946092Y-67348801D01*
X81974657Y-67386023D01*
X81968417Y-67433449D01*
X81952336Y-67451787D01*
X81870967Y-67514224D01*
X81870963Y-67514228D01*
X81867718Y-67516718D01*
X81771464Y-67642159D01*
X81769897Y-67645942D01*
X81720871Y-67764302D01*
X81710956Y-67788238D01*
X81710421Y-67792298D01*
X81710421Y-67792300D01*
X81708449Y-67807279D01*
X81695979Y-67902006D01*
X81694723Y-67911544D01*
X81670806Y-67952970D01*
X81624600Y-67965351D01*
X81603513Y-67958621D01*
X81536213Y-67922988D01*
X81536212Y-67922987D01*
X81532881Y-67921224D01*
X81368441Y-67879919D01*
X81364676Y-67879899D01*
X81364674Y-67879899D01*
X81281244Y-67879462D01*
X81198895Y-67879031D01*
X81191377Y-67880836D01*
X81034143Y-67918585D01*
X80986896Y-67911102D01*
X80975358Y-67902006D01*
X80452915Y-67379563D01*
X80445143Y-67370093D01*
X80437253Y-67358285D01*
X80437252Y-67358284D01*
X80433833Y-67353167D01*
X80428716Y-67349748D01*
X80424362Y-67345394D01*
X80425617Y-67344139D01*
X80409032Y-67323927D01*
X80376108Y-67244442D01*
X80374541Y-67240659D01*
X80278287Y-67115218D01*
X80152846Y-67018964D01*
X80128991Y-67009083D01*
X80010553Y-66960024D01*
X80010552Y-66960024D01*
X80006767Y-66958456D01*
X80002705Y-66957921D01*
X80002704Y-66957921D01*
X79926384Y-66947873D01*
X79884957Y-66923955D01*
X79872577Y-66877750D01*
X79876552Y-66862596D01*
X79881294Y-66850800D01*
X79929601Y-66730634D01*
X79943598Y-66632282D01*
X79953203Y-66564796D01*
X79953203Y-66564793D01*
X79953490Y-66562778D01*
X79953645Y-66548000D01*
X79948799Y-66507956D01*
X79947295Y-66495523D01*
X79960159Y-66449450D01*
X79971294Y-66438431D01*
X80032459Y-66391497D01*
X80032463Y-66391493D01*
X80035708Y-66389003D01*
X80131962Y-66263562D01*
X80142268Y-66238682D01*
X80190902Y-66121269D01*
X80190902Y-66121268D01*
X80192470Y-66117483D01*
X80213108Y-65960721D01*
X80192470Y-65803959D01*
X80166716Y-65741782D01*
X80147517Y-65695433D01*
X80147517Y-65647597D01*
X80181341Y-65613773D01*
X80184270Y-65612560D01*
X80299705Y-65564745D01*
X80425146Y-65468491D01*
X80521400Y-65343050D01*
X80554825Y-65262355D01*
X80580340Y-65200757D01*
X80580340Y-65200756D01*
X80581908Y-65196971D01*
X80584483Y-65177416D01*
X80602011Y-65044273D01*
X80602546Y-65040209D01*
X80597465Y-65001613D01*
X80592080Y-64960707D01*
X80604461Y-64914502D01*
X80645888Y-64890585D01*
X80692093Y-64902966D01*
X80705919Y-64917689D01*
X80745830Y-64977083D01*
X80871233Y-65091191D01*
X81020235Y-65172092D01*
X81023877Y-65173048D01*
X81023881Y-65173049D01*
X81164377Y-65209907D01*
X81184233Y-65215116D01*
X81274762Y-65216538D01*
X81349991Y-65217720D01*
X81349993Y-65217720D01*
X81353760Y-65217779D01*
X81519029Y-65179928D01*
X81522393Y-65178236D01*
X81522396Y-65178235D01*
X81618823Y-65129737D01*
X81666530Y-65126234D01*
X81702741Y-65157491D01*
X81708870Y-65177415D01*
X81710956Y-65193262D01*
X81712524Y-65197047D01*
X81712524Y-65197048D01*
X81749031Y-65285183D01*
X81771464Y-65339341D01*
X81867718Y-65464782D01*
X81993159Y-65561036D01*
X81996942Y-65562603D01*
X82135452Y-65619976D01*
X82135453Y-65619976D01*
X82139238Y-65621544D01*
X82143300Y-65622079D01*
X82143301Y-65622079D01*
X82291936Y-65641647D01*
X82296000Y-65642182D01*
X82300064Y-65641647D01*
X82448699Y-65622079D01*
X82448700Y-65622079D01*
X82452762Y-65621544D01*
X82456547Y-65619976D01*
X82456548Y-65619976D01*
X82595058Y-65562603D01*
X82598841Y-65561036D01*
X82724282Y-65464782D01*
X82820536Y-65339341D01*
X82822103Y-65335558D01*
X82825558Y-65327218D01*
X82859384Y-65293394D01*
X82871106Y-65289838D01*
X82888472Y-65286384D01*
X82888474Y-65286383D01*
X82894508Y-65285183D01*
X82981833Y-65226833D01*
X82993143Y-65209907D01*
X83000915Y-65200437D01*
X83008673Y-65192679D01*
X83052867Y-65174373D01*
X83068727Y-65176419D01*
X83196377Y-65209907D01*
X83216233Y-65215116D01*
X83306762Y-65216538D01*
X83381991Y-65217720D01*
X83381993Y-65217720D01*
X83385760Y-65217779D01*
X83389429Y-65216939D01*
X83389436Y-65216938D01*
X83396225Y-65215383D01*
X83443390Y-65223362D01*
X83471099Y-65262355D01*
X83472141Y-65284462D01*
X83468318Y-65313500D01*
X83468853Y-65317564D01*
X83488235Y-65464782D01*
X83488956Y-65470262D01*
X83490524Y-65474047D01*
X83490524Y-65474048D01*
X83526556Y-65561036D01*
X83549464Y-65616341D01*
X83645718Y-65741782D01*
X83771159Y-65838036D01*
X83774942Y-65839603D01*
X83913452Y-65896976D01*
X83913453Y-65896976D01*
X83917238Y-65898544D01*
X83921300Y-65899079D01*
X83921301Y-65899079D01*
X84069936Y-65918647D01*
X84074000Y-65919182D01*
X84078064Y-65918647D01*
X84226699Y-65899079D01*
X84226700Y-65899079D01*
X84230762Y-65898544D01*
X84234547Y-65896976D01*
X84234548Y-65896976D01*
X84373058Y-65839603D01*
X84376841Y-65838036D01*
X84502282Y-65741782D01*
X84598536Y-65616341D01*
X84605802Y-65598799D01*
X84639627Y-65564975D01*
X84643466Y-65563385D01*
X84649508Y-65562183D01*
X84736833Y-65503833D01*
X84748143Y-65486907D01*
X84755915Y-65477437D01*
X85040673Y-65192679D01*
X85084867Y-65174373D01*
X85100727Y-65176419D01*
X85228377Y-65209907D01*
X85248233Y-65215116D01*
X85338762Y-65216538D01*
X85413991Y-65217720D01*
X85413993Y-65217720D01*
X85417760Y-65217779D01*
X85583029Y-65179928D01*
X85586393Y-65178236D01*
X85586396Y-65178235D01*
X85679808Y-65131253D01*
X85734498Y-65103747D01*
X85737363Y-65101300D01*
X85737366Y-65101298D01*
X85860561Y-64996079D01*
X85860564Y-64996076D01*
X85863423Y-64993634D01*
X85865618Y-64990579D01*
X85865621Y-64990576D01*
X85960161Y-64859009D01*
X85960162Y-64859007D01*
X85962361Y-64855947D01*
X86025601Y-64698634D01*
X86049490Y-64530778D01*
X86049618Y-64518606D01*
X86049624Y-64518038D01*
X86049624Y-64518032D01*
X86049645Y-64516000D01*
X86029276Y-64347680D01*
X86026401Y-64340069D01*
X85996900Y-64262000D01*
X85969345Y-64189077D01*
X85898142Y-64085476D01*
X85875444Y-64052451D01*
X85873312Y-64049349D01*
X85746721Y-63936560D01*
X85596881Y-63857224D01*
X85432441Y-63815919D01*
X85428676Y-63815899D01*
X85428674Y-63815899D01*
X85345244Y-63815462D01*
X85262895Y-63815031D01*
X85228549Y-63823277D01*
X85101696Y-63853732D01*
X85101693Y-63853733D01*
X85098032Y-63854612D01*
X85094689Y-63856338D01*
X85094685Y-63856339D01*
X85020376Y-63894693D01*
X84947369Y-63932375D01*
X84944531Y-63934850D01*
X84944532Y-63934850D01*
X84829080Y-64035565D01*
X84819604Y-64043831D01*
X84817438Y-64046913D01*
X84817437Y-64046914D01*
X84775683Y-64106325D01*
X84722113Y-64182547D01*
X84720744Y-64186058D01*
X84720743Y-64186060D01*
X84661892Y-64337003D01*
X84661891Y-64337007D01*
X84660524Y-64340513D01*
X84660032Y-64344250D01*
X84638886Y-64504870D01*
X84638886Y-64504874D01*
X84638394Y-64508611D01*
X84656999Y-64677135D01*
X84658293Y-64680671D01*
X84658294Y-64680675D01*
X84684149Y-64751325D01*
X84682146Y-64799119D01*
X84669650Y-64816998D01*
X84595672Y-64890976D01*
X84551478Y-64909282D01*
X84507282Y-64890974D01*
X84504774Y-64888466D01*
X84502282Y-64885218D01*
X84376841Y-64788964D01*
X84285973Y-64751325D01*
X84234548Y-64730024D01*
X84234547Y-64730024D01*
X84230762Y-64728456D01*
X84226700Y-64727921D01*
X84226699Y-64727921D01*
X84078064Y-64708353D01*
X84074000Y-64707818D01*
X84069936Y-64708353D01*
X84065842Y-64708353D01*
X84065842Y-64706280D01*
X84026177Y-64695662D01*
X84002249Y-64654241D01*
X84002336Y-64637262D01*
X84017202Y-64532811D01*
X84017204Y-64532791D01*
X84017490Y-64530778D01*
X84017618Y-64518606D01*
X84017624Y-64518038D01*
X84017624Y-64518032D01*
X84017645Y-64516000D01*
X83997276Y-64347680D01*
X83994401Y-64340069D01*
X83964900Y-64262000D01*
X83937345Y-64189077D01*
X83866142Y-64085476D01*
X83843444Y-64052451D01*
X83841312Y-64049349D01*
X83714721Y-63936560D01*
X83564881Y-63857224D01*
X83400441Y-63815919D01*
X83396676Y-63815899D01*
X83396674Y-63815899D01*
X83313244Y-63815462D01*
X83230895Y-63815031D01*
X83196549Y-63823277D01*
X83069696Y-63853732D01*
X83069693Y-63853733D01*
X83066032Y-63854612D01*
X83062689Y-63856338D01*
X83062685Y-63856339D01*
X82988376Y-63894693D01*
X82915369Y-63932375D01*
X82912531Y-63934850D01*
X82912532Y-63934850D01*
X82797080Y-64035565D01*
X82787604Y-64043831D01*
X82785438Y-64046913D01*
X82785437Y-64046914D01*
X82743683Y-64106325D01*
X82690113Y-64182547D01*
X82688744Y-64186058D01*
X82688743Y-64186060D01*
X82629892Y-64337003D01*
X82629891Y-64337007D01*
X82628524Y-64340513D01*
X82628032Y-64344250D01*
X82616216Y-64434003D01*
X82592299Y-64475430D01*
X82546093Y-64487810D01*
X82530333Y-64483587D01*
X82456548Y-64453024D01*
X82456547Y-64453024D01*
X82452762Y-64451456D01*
X82448700Y-64450921D01*
X82448699Y-64450921D01*
X82300064Y-64431353D01*
X82296000Y-64430818D01*
X82291936Y-64431353D01*
X82143301Y-64450921D01*
X82143300Y-64450921D01*
X82139238Y-64451456D01*
X82061609Y-64483611D01*
X82013775Y-64483610D01*
X81979950Y-64449786D01*
X81975646Y-64433376D01*
X81975468Y-64431899D01*
X81965276Y-64347680D01*
X81962401Y-64340069D01*
X81932900Y-64262000D01*
X81905345Y-64189077D01*
X81834142Y-64085476D01*
X81811444Y-64052451D01*
X81809312Y-64049349D01*
X81682721Y-63936560D01*
X81532881Y-63857224D01*
X81506590Y-63850620D01*
X81474128Y-63842466D01*
X81451307Y-63831434D01*
X81332091Y-63739957D01*
X81332087Y-63739955D01*
X81328841Y-63737464D01*
X81302246Y-63726448D01*
X81186548Y-63678524D01*
X81186547Y-63678524D01*
X81182762Y-63676956D01*
X81178700Y-63676421D01*
X81178699Y-63676421D01*
X81030064Y-63656853D01*
X81026000Y-63656318D01*
X81021936Y-63656853D01*
X80873301Y-63676421D01*
X80873300Y-63676421D01*
X80869238Y-63676956D01*
X80865453Y-63678524D01*
X80865452Y-63678524D01*
X80749754Y-63726448D01*
X80723159Y-63737464D01*
X80597718Y-63833718D01*
X80501464Y-63959159D01*
X80499897Y-63962942D01*
X80442977Y-64100360D01*
X80440956Y-64105238D01*
X80440421Y-64109300D01*
X80440421Y-64109301D01*
X80429316Y-64193650D01*
X80420318Y-64262000D01*
X80440956Y-64418762D01*
X80442524Y-64422547D01*
X80442524Y-64422548D01*
X80476351Y-64504213D01*
X80476351Y-64552049D01*
X80442527Y-64585873D01*
X80394691Y-64585873D01*
X80380561Y-64577716D01*
X80347111Y-64552049D01*
X80299705Y-64515673D01*
X80222301Y-64483611D01*
X80157412Y-64456733D01*
X80157411Y-64456733D01*
X80153626Y-64455165D01*
X80149564Y-64454630D01*
X80149563Y-64454630D01*
X80000928Y-64435062D01*
X79996864Y-64434527D01*
X79996920Y-64434100D01*
X79955049Y-64416756D01*
X79937196Y-64380071D01*
X79933729Y-64351425D01*
X79933276Y-64347680D01*
X79930401Y-64340069D01*
X79900900Y-64262000D01*
X79873345Y-64189077D01*
X79802142Y-64085476D01*
X79779444Y-64052451D01*
X79777312Y-64049349D01*
X79650721Y-63936560D01*
X79500881Y-63857224D01*
X79336441Y-63815919D01*
X79332676Y-63815899D01*
X79332674Y-63815899D01*
X79249244Y-63815462D01*
X79166895Y-63815031D01*
X79132549Y-63823277D01*
X79005696Y-63853732D01*
X79005693Y-63853733D01*
X79002032Y-63854612D01*
X78998689Y-63856338D01*
X78998685Y-63856339D01*
X78924376Y-63894693D01*
X78851369Y-63932375D01*
X78848531Y-63934850D01*
X78848532Y-63934850D01*
X78733080Y-64035565D01*
X78723604Y-64043831D01*
X78721438Y-64046913D01*
X78721437Y-64046914D01*
X78679683Y-64106325D01*
X78626113Y-64182547D01*
X78624744Y-64186058D01*
X78624743Y-64186060D01*
X78565892Y-64337003D01*
X78565891Y-64337007D01*
X78564524Y-64340513D01*
X78564032Y-64344250D01*
X78542886Y-64504870D01*
X78542886Y-64504874D01*
X78542394Y-64508611D01*
X78560999Y-64677135D01*
X78562293Y-64680671D01*
X78562294Y-64680675D01*
X78572227Y-64707818D01*
X78619266Y-64836356D01*
X78713830Y-64977083D01*
X78839233Y-65091191D01*
X78988235Y-65172092D01*
X78991877Y-65173048D01*
X78991881Y-65173049D01*
X79132377Y-65209907D01*
X79152233Y-65215116D01*
X79242762Y-65216538D01*
X79317991Y-65217720D01*
X79317993Y-65217720D01*
X79321760Y-65217779D01*
X79360406Y-65208928D01*
X79407572Y-65216906D01*
X79432100Y-65245930D01*
X79456774Y-65305499D01*
X79456773Y-65353333D01*
X79422949Y-65387157D01*
X79304585Y-65436185D01*
X79179144Y-65532439D01*
X79082890Y-65657880D01*
X79081323Y-65661663D01*
X79048137Y-65741782D01*
X79022382Y-65803959D01*
X79021847Y-65808019D01*
X79021847Y-65808021D01*
X79016456Y-65848973D01*
X78992539Y-65890399D01*
X78983157Y-65896354D01*
X78958087Y-65909294D01*
X78851369Y-65964375D01*
X78723604Y-66075831D01*
X78721438Y-66078913D01*
X78721437Y-66078914D01*
X78691670Y-66121269D01*
X78626113Y-66214547D01*
X78624744Y-66218058D01*
X78624743Y-66218060D01*
X78565892Y-66369003D01*
X78565891Y-66369007D01*
X78564524Y-66372513D01*
X78562780Y-66385758D01*
X78553777Y-66454148D01*
X78529860Y-66495575D01*
X78483655Y-66507956D01*
X78467895Y-66503734D01*
X78448072Y-66495523D01*
X78388762Y-66470956D01*
X78384700Y-66470421D01*
X78384699Y-66470421D01*
X78236064Y-66450853D01*
X78232000Y-66450318D01*
X78227936Y-66450853D01*
X78079301Y-66470421D01*
X78079300Y-66470421D01*
X78075238Y-66470956D01*
X78071453Y-66472524D01*
X78071452Y-66472524D01*
X78041404Y-66484970D01*
X77996170Y-66503707D01*
X77948336Y-66503708D01*
X77914511Y-66469883D01*
X77910206Y-66453474D01*
X77901729Y-66383423D01*
X77901276Y-66379680D01*
X77841345Y-66221077D01*
X77745312Y-66081349D01*
X77618721Y-65968560D01*
X77468881Y-65889224D01*
X77304441Y-65847919D01*
X77300676Y-65847899D01*
X77300674Y-65847899D01*
X77217244Y-65847462D01*
X77134895Y-65847031D01*
X77097173Y-65856087D01*
X76973696Y-65885732D01*
X76973693Y-65885733D01*
X76970032Y-65886612D01*
X76966689Y-65888338D01*
X76966685Y-65888339D01*
X76917482Y-65913735D01*
X76819369Y-65964375D01*
X76691604Y-66075831D01*
X76689438Y-66078913D01*
X76689437Y-66078914D01*
X76659670Y-66121269D01*
X76594113Y-66214547D01*
X76592744Y-66218058D01*
X76592743Y-66218060D01*
X76533892Y-66369003D01*
X76533891Y-66369007D01*
X76532524Y-66372513D01*
X76532032Y-66376250D01*
X76510886Y-66536870D01*
X76510886Y-66536874D01*
X76510394Y-66540611D01*
X76528999Y-66709135D01*
X76530293Y-66712671D01*
X76530294Y-66712675D01*
X76580841Y-66850800D01*
X76583447Y-66884471D01*
X76582756Y-66887947D01*
X76576766Y-66918062D01*
X76577967Y-66924100D01*
X76577967Y-66924303D01*
X76559661Y-66968497D01*
X76546791Y-66978372D01*
X76543097Y-66979902D01*
X76417656Y-67076156D01*
X76415166Y-67079401D01*
X76415163Y-67079404D01*
X76385585Y-67117951D01*
X76344158Y-67141869D01*
X76297953Y-67129489D01*
X76274035Y-67088062D01*
X76273500Y-67079904D01*
X76273500Y-62476611D01*
X82606394Y-62476611D01*
X82624999Y-62645135D01*
X82626293Y-62648671D01*
X82626294Y-62648675D01*
X82634144Y-62670126D01*
X82683266Y-62804356D01*
X82696431Y-62823947D01*
X82764997Y-62925985D01*
X82777830Y-62945083D01*
X82903233Y-63059191D01*
X83052235Y-63140092D01*
X83055877Y-63141048D01*
X83055881Y-63141049D01*
X83185205Y-63174976D01*
X83216233Y-63183116D01*
X83306762Y-63184538D01*
X83381991Y-63185720D01*
X83381993Y-63185720D01*
X83385760Y-63185779D01*
X83551029Y-63147928D01*
X83554393Y-63146236D01*
X83554396Y-63146235D01*
X83652425Y-63096931D01*
X83702498Y-63071747D01*
X83705363Y-63069300D01*
X83705366Y-63069298D01*
X83824636Y-62967431D01*
X83873384Y-62952991D01*
X83942935Y-62962147D01*
X83942936Y-62962147D01*
X83947000Y-62962682D01*
X83951064Y-62962147D01*
X84099699Y-62942579D01*
X84099700Y-62942579D01*
X84103762Y-62942044D01*
X84107547Y-62940476D01*
X84107548Y-62940476D01*
X84246058Y-62883103D01*
X84249841Y-62881536D01*
X84375282Y-62785282D01*
X84471536Y-62659841D01*
X84532044Y-62513762D01*
X84552682Y-62357000D01*
X84532044Y-62200238D01*
X84523443Y-62179472D01*
X84473103Y-62057942D01*
X84471536Y-62054159D01*
X84375282Y-61928718D01*
X84249841Y-61832464D01*
X84223932Y-61821732D01*
X84107548Y-61773524D01*
X84107547Y-61773524D01*
X84103762Y-61771956D01*
X84099700Y-61771421D01*
X84099699Y-61771421D01*
X83951064Y-61751853D01*
X83947000Y-61751318D01*
X83942936Y-61751853D01*
X83794301Y-61771421D01*
X83794300Y-61771421D01*
X83790238Y-61771956D01*
X83786453Y-61773524D01*
X83786452Y-61773524D01*
X83670068Y-61821732D01*
X83644159Y-61832464D01*
X83642567Y-61833686D01*
X83595846Y-61839835D01*
X83582781Y-61834701D01*
X83574367Y-61830246D01*
X83564881Y-61825224D01*
X83400441Y-61783919D01*
X83396676Y-61783899D01*
X83396674Y-61783899D01*
X83313244Y-61783462D01*
X83230895Y-61783031D01*
X83223373Y-61784837D01*
X83069696Y-61821732D01*
X83069693Y-61821733D01*
X83066032Y-61822612D01*
X83062689Y-61824338D01*
X83062685Y-61824339D01*
X83007123Y-61853017D01*
X82915369Y-61900375D01*
X82787604Y-62011831D01*
X82785438Y-62014913D01*
X82785437Y-62014914D01*
X82725013Y-62100889D01*
X82690113Y-62150547D01*
X82688744Y-62154058D01*
X82688743Y-62154060D01*
X82629892Y-62305003D01*
X82629892Y-62305004D01*
X82628524Y-62308513D01*
X82628032Y-62312250D01*
X82606886Y-62472870D01*
X82606886Y-62472874D01*
X82606394Y-62476611D01*
X76273500Y-62476611D01*
X76273500Y-61099418D01*
X76291806Y-61055224D01*
X76336000Y-61036918D01*
X76379383Y-61054888D01*
X76380306Y-61056091D01*
X76505747Y-61152345D01*
X76509530Y-61153912D01*
X76648040Y-61211285D01*
X76648041Y-61211285D01*
X76651826Y-61212853D01*
X76655888Y-61213388D01*
X76655889Y-61213388D01*
X76804524Y-61232956D01*
X76808588Y-61233491D01*
X76812652Y-61232956D01*
X76961287Y-61213388D01*
X76961288Y-61213388D01*
X76965350Y-61212853D01*
X76969135Y-61211285D01*
X76969136Y-61211285D01*
X77102651Y-61155981D01*
X77127551Y-61151231D01*
X77285991Y-61153720D01*
X77285993Y-61153720D01*
X77289760Y-61153779D01*
X77455029Y-61115928D01*
X77458393Y-61114236D01*
X77458396Y-61114235D01*
X77547136Y-61069603D01*
X77606498Y-61039747D01*
X77609363Y-61037300D01*
X77609366Y-61037298D01*
X77732561Y-60932079D01*
X77732564Y-60932076D01*
X77735423Y-60929634D01*
X77737618Y-60926579D01*
X77737621Y-60926576D01*
X77832161Y-60795009D01*
X77832162Y-60795007D01*
X77834361Y-60791947D01*
X77897601Y-60634634D01*
X77921490Y-60466778D01*
X77921568Y-60459315D01*
X77921624Y-60454038D01*
X77921624Y-60454032D01*
X77921645Y-60452000D01*
X77920751Y-60444611D01*
X78542394Y-60444611D01*
X78560999Y-60613135D01*
X78562293Y-60616671D01*
X78562294Y-60616675D01*
X78570144Y-60638126D01*
X78619266Y-60772356D01*
X78632431Y-60791947D01*
X78693586Y-60882956D01*
X78713830Y-60913083D01*
X78839233Y-61027191D01*
X78988235Y-61108092D01*
X78991877Y-61109048D01*
X78991881Y-61109049D01*
X79148585Y-61150159D01*
X79152233Y-61151116D01*
X79242762Y-61152538D01*
X79317991Y-61153720D01*
X79317993Y-61153720D01*
X79321760Y-61153779D01*
X79487029Y-61115928D01*
X79490393Y-61114236D01*
X79490396Y-61114235D01*
X79579136Y-61069603D01*
X79638498Y-61039747D01*
X79641366Y-61037297D01*
X79644502Y-61035214D01*
X79645431Y-61036612D01*
X79685665Y-61023546D01*
X79704668Y-61028110D01*
X79722454Y-61035477D01*
X79722457Y-61035478D01*
X79726238Y-61037044D01*
X79730294Y-61037578D01*
X79730298Y-61037579D01*
X79878936Y-61057147D01*
X79883000Y-61057682D01*
X79887064Y-61057147D01*
X80035699Y-61037579D01*
X80035700Y-61037579D01*
X80039762Y-61037044D01*
X80043547Y-61035476D01*
X80043548Y-61035476D01*
X80182058Y-60978103D01*
X80185841Y-60976536D01*
X80311282Y-60880282D01*
X80407536Y-60754841D01*
X80455881Y-60638126D01*
X80466476Y-60612548D01*
X80466476Y-60612547D01*
X80468044Y-60608762D01*
X80476636Y-60543500D01*
X84357318Y-60543500D01*
X84377956Y-60700262D01*
X84379524Y-60704047D01*
X84379524Y-60704048D01*
X84436897Y-60842558D01*
X84438464Y-60846341D01*
X84534718Y-60971782D01*
X84660159Y-61068036D01*
X84663942Y-61069603D01*
X84802452Y-61126976D01*
X84802453Y-61126976D01*
X84806238Y-61128544D01*
X84810300Y-61129079D01*
X84810301Y-61129079D01*
X84958936Y-61148647D01*
X84963000Y-61149182D01*
X84967064Y-61148647D01*
X85115702Y-61129079D01*
X85115706Y-61129078D01*
X85119762Y-61128544D01*
X85123542Y-61126978D01*
X85123707Y-61126934D01*
X85155739Y-61126851D01*
X85248233Y-61151116D01*
X85338762Y-61152538D01*
X85413991Y-61153720D01*
X85413993Y-61153720D01*
X85417760Y-61153779D01*
X85583029Y-61115928D01*
X85586393Y-61114236D01*
X85586396Y-61114235D01*
X85675136Y-61069603D01*
X85734498Y-61039747D01*
X85737363Y-61037300D01*
X85737366Y-61037298D01*
X85860561Y-60932079D01*
X85860564Y-60932076D01*
X85863423Y-60929634D01*
X85865618Y-60926579D01*
X85865621Y-60926576D01*
X85960161Y-60795009D01*
X85960162Y-60795007D01*
X85962361Y-60791947D01*
X86025601Y-60634634D01*
X86049490Y-60466778D01*
X86049568Y-60459315D01*
X86049624Y-60454038D01*
X86049624Y-60454032D01*
X86049645Y-60452000D01*
X86029276Y-60283680D01*
X85969345Y-60125077D01*
X85906021Y-60032940D01*
X85875444Y-59988451D01*
X85873312Y-59985349D01*
X85746721Y-59872560D01*
X85596881Y-59793224D01*
X85432441Y-59751919D01*
X85428676Y-59751899D01*
X85428674Y-59751899D01*
X85345244Y-59751462D01*
X85262895Y-59751031D01*
X85255373Y-59752837D01*
X85101696Y-59789732D01*
X85101693Y-59789733D01*
X85098032Y-59790612D01*
X85094689Y-59792338D01*
X85094685Y-59792339D01*
X85020376Y-59830693D01*
X84947369Y-59868375D01*
X84922479Y-59890088D01*
X84865057Y-59940180D01*
X84832130Y-59955047D01*
X84810300Y-59957921D01*
X84810299Y-59957921D01*
X84806238Y-59958456D01*
X84802453Y-59960024D01*
X84802452Y-59960024D01*
X84663942Y-60017397D01*
X84660159Y-60018964D01*
X84534718Y-60115218D01*
X84438464Y-60240659D01*
X84377956Y-60386738D01*
X84357318Y-60543500D01*
X80476636Y-60543500D01*
X80488682Y-60452000D01*
X80468044Y-60295238D01*
X80410453Y-60156200D01*
X80409103Y-60152942D01*
X80407536Y-60149159D01*
X80311282Y-60023718D01*
X80185841Y-59927464D01*
X80182058Y-59925897D01*
X80043548Y-59868524D01*
X80043547Y-59868524D01*
X80039762Y-59866956D01*
X80035700Y-59866421D01*
X80035699Y-59866421D01*
X79887064Y-59846853D01*
X79883000Y-59846318D01*
X79878936Y-59846853D01*
X79730301Y-59866421D01*
X79730300Y-59866421D01*
X79726238Y-59866956D01*
X79704918Y-59875787D01*
X79657084Y-59875786D01*
X79650823Y-59872367D01*
X79650721Y-59872560D01*
X79504209Y-59794986D01*
X79504208Y-59794986D01*
X79500881Y-59793224D01*
X79336441Y-59751919D01*
X79332676Y-59751899D01*
X79332674Y-59751899D01*
X79249244Y-59751462D01*
X79166895Y-59751031D01*
X79159373Y-59752837D01*
X79005696Y-59789732D01*
X79005693Y-59789733D01*
X79002032Y-59790612D01*
X78998689Y-59792338D01*
X78998685Y-59792339D01*
X78924376Y-59830693D01*
X78851369Y-59868375D01*
X78826479Y-59890088D01*
X78726445Y-59977353D01*
X78723604Y-59979831D01*
X78626113Y-60118547D01*
X78624744Y-60122058D01*
X78624743Y-60122060D01*
X78565892Y-60273003D01*
X78565891Y-60273007D01*
X78564524Y-60276513D01*
X78564032Y-60280250D01*
X78542886Y-60440870D01*
X78542886Y-60440874D01*
X78542394Y-60444611D01*
X77920751Y-60444611D01*
X77901276Y-60283680D01*
X77841345Y-60125077D01*
X77778021Y-60032940D01*
X77747444Y-59988451D01*
X77745312Y-59985349D01*
X77618721Y-59872560D01*
X77468881Y-59793224D01*
X77304441Y-59751919D01*
X77300676Y-59751899D01*
X77300674Y-59751899D01*
X77217244Y-59751462D01*
X77134895Y-59751031D01*
X77127373Y-59752837D01*
X76973696Y-59789732D01*
X76973693Y-59789733D01*
X76970032Y-59790612D01*
X76966689Y-59792338D01*
X76966685Y-59792339D01*
X76892376Y-59830693D01*
X76819369Y-59868375D01*
X76794479Y-59890088D01*
X76694444Y-59977353D01*
X76694442Y-59977355D01*
X76691604Y-59979831D01*
X76689439Y-59982911D01*
X76689434Y-59982917D01*
X76655986Y-60030510D01*
X76628769Y-60052316D01*
X76505747Y-60103273D01*
X76380306Y-60199527D01*
X76379383Y-60200730D01*
X76336000Y-60218700D01*
X76291806Y-60200394D01*
X76273500Y-60156200D01*
X76273500Y-59572000D01*
X76291806Y-59527806D01*
X76336000Y-59509500D01*
X92320000Y-59509500D01*
X92364194Y-59527806D01*
G37*
G04 #@! TD.AperFunction*
M02*
